<?xml version="1.0" encoding="utf-8"?>
<!-- Generator: Adobe Illustrator 17.0.0, SVG Export Plug-In . SVG Version: 6.00 Build 0)  -->
<!DOCTYPE svg PUBLIC "-//W3C//DTD SVG 1.1 Tiny//EN" "http://www.w3.org/Graphics/SVG/1.1/DTD/svg11-tiny.dtd">
<svg version="1.1" baseProfile="tiny" id="Слой_1"
	 xmlns="http://www.w3.org/2000/svg" xmlns:xlink="http://www.w3.org/1999/xlink" x="0px" y="0px" width="72px" height="56px"
	 viewBox="0 0 72 56" xml:space="preserve">
<path fill-rule="evenodd" d="M2.05,49.479l-1.712-2.966L69.95,6.323l1.712,2.966L2.05,49.479z M28.941,25.711v-9.822
	l8.555,4.957L28.941,25.711z M36.088,3c-13.807,0-25,11.193-25,25c0,2.523,0.382,4.955,1.077,7.25l-2.668,1.517
	C8.587,34.009,8.088,31.064,8.088,28c0-15.464,12.536-28,28-28c8.435,0,15.992,3.735,21.125,9.634l-2.685,1.527
	C49.957,6.158,43.4,3,36.088,3z M28.941,38.143l19.112-11.179l2.577,1.493l-21.69,12.569V38.143z M36.088,53
	c13.807,0,25-11.193,25-25c0-2.765-0.467-5.416-1.295-7.903l2.655-1.553c1.06,2.954,1.641,6.137,1.641,9.455
	c0,15.464-12.536,28-28,28c-8.449,0-16.019-3.748-21.152-9.666l2.658-1.555C22.168,49.817,28.748,53,36.088,53z"/>
</svg>
