<?xml version="1.0" encoding="utf-8"?>
<!-- Generator: Adobe Illustrator 17.0.0, SVG Export Plug-In . SVG Version: 6.00 Build 0)  -->
<!DOCTYPE svg PUBLIC "-//W3C//DTD SVG 1.1 Tiny//EN" "http://www.w3.org/Graphics/SVG/1.1/DTD/svg11-tiny.dtd">
<svg version="1.1" baseProfile="tiny" id="Слой_1"
	 xmlns="http://www.w3.org/2000/svg" xmlns:xlink="http://www.w3.org/1999/xlink" x="0px" y="0px"
	 viewBox="0 0 20 20" xml:space="preserve">

  <defs>
    <linearGradient id="grad1" x1="0%" y1="0%" x2="100%" y2="100%">
      <stop offset="0%" style="stop-color:#36a0fe;stop-opacity:1" />
      <stop offset="100%" style="stop-color:#1b7ace;stop-opacity:1" />
    </linearGradient>
  </defs>

<g>
	<path fill="url(#grad1)" d="M10,0C4.477,0,0,4.477,0,10c0,5.523,4.477,10,10,10s10-4.477,10-10
		C20,4.477,15.523,0,10,0z M10,18c-4.418,0-8-3.582-8-8c0-4.418,3.582-8,8-8s8,3.582,8,8C18,14.418,14.418,18,10,18z M7.477,14.028
		L14.428,10L7.477,5.972V14.028z"/>
</g>

</svg>
