
<svg id="Layer_1" version="1.1" xmlns="http://www.w3.org/2000/svg" xmlns:xlink="http://www.w3.org/1999/xlink" x="0px" y="0px" width="60px" height="60px" viewbox="0 0 100 100" xml:space="preserve">
  <g>
    <g>
      <path fill="#FFFFFF" d="M98.544,50.003c0,26.807-21.733,48.54-48.544,48.54c-26.811,0-48.543-21.733-48.543-48.54      C1.457,23.19,23.189,1.457,50,1.457C76.811,1.457,98.544,23.19,98.544,50.003z"></path>
      <path fill="#AFAFAF" d="M50,99.999c-27.57,0-50-22.428-50-49.996C0,22.432,22.43,0.001,50,0.001c27.57,0,50,22.431,50,50.002      C100,77.571,77.57,99.999,50,99.999z M50,2.914c-25.964,0-47.087,21.124-47.087,47.089c0,25.962,21.123,47.084,47.087,47.084      c25.964,0,47.087-21.122,47.087-47.084C97.087,24.038,75.964,2.914,50,2.914z"></path>
    </g>
    <path fill="#5EB53E" d="M69.56,38.945c0,10.627-8.614,19.241-19.246,19.241c-10.624,0-19.241-8.614-19.241-19.241    c0-10.628,8.617-19.245,19.241-19.245C60.945,19.701,69.56,28.318,69.56,38.945z"></path>
    <path fill="#5EB53E" d="M9.36,76.514c0,0,36.983-24.979,81.276,0C72.694,102.592,33.131,109.01,9.36,76.514z"></path>
  </g>
</svg>