<?xml version="1.0" encoding="utf-8"?>
<!-- Generator: Adobe Illustrator 18.1.1, SVG Export Plug-In . SVG Version: 6.00 Build 0)  -->
<!DOCTYPE svg PUBLIC "-//W3C//DTD SVG 1.1//EN" "http://www.w3.org/Graphics/SVG/1.1/DTD/svg11.dtd">
<svg version="1.1" id="ic_x5F_ringer" xmlns="http://www.w3.org/2000/svg" xmlns:xlink="http://www.w3.org/1999/xlink" x="0px"
	 y="0px" viewBox="0 0 50 50" enable-background="new 0 0 50 50" xml:space="preserve">
<g>
	<g>
		<path d="M25,48.3c-6.5,0-12.5-3.8-15.2-9.9c-0.2-0.5,0-0.8,0.3-1.1c0.5-0.2,0.8,0,1.1,0.3c2.4,5.5,7.9,9,13.8,9
			s11.4-3.5,13.8-9c0.2-0.5,0.6-0.6,1.1-0.3c0.5,0.2,0.6,0.6,0.3,1.1C37.5,44.4,31.5,48.3,25,48.3z"/>
	</g>
	<g>
		<path d="M25,41.3c-3.3,0-6.5-2-7.9-5c-0.2-0.5,0-0.8,0.3-1.1c0.5-0.2,0.8,0,1.1,0.3c1.2,2.6,3.6,4.1,6.5,4.1
			c2.7,0,5.3-1.7,6.5-4.1c0.2-0.5,0.6-0.6,1.1-0.3c0.5,0.2,0.6,0.6,0.3,1.1C31.4,39.4,28.3,41.3,25,41.3z"/>
	</g>
	<path d="M39.6,27.7l-4.9-8.1L33.1,8.5c-0.3-1.7-1.2-3.2-2.7-4.3l-2.1-1.4c-1.8-1.2-4.4-1.2-6.4,0l-2.1,1.5
		c-1.4,0.9-2.3,2.3-2.6,4l-1.7,11.2l-5.2,8.2c-0.6,0.9-0.6,2-0.2,2.7c0.5,0.9,1.4,1.4,2.4,1.4h6.1c1.2,2.3,3.6,3.8,6.2,3.8
		s5-1.5,6.2-3.8H37c1.1,0,2-0.6,2.4-1.5C40.2,29.6,40.2,28.6,39.6,27.7z M25,34.3c-1.8,0-3.3-0.9-4.4-2.3h8.8
		C28.3,33.4,26.8,34.3,25,34.3z M38.4,29.9c-0.3,0.5-0.6,0.8-1.2,0.8H12.7c-0.5,0-0.9-0.3-1.1-0.6c-0.2-0.5-0.2-0.9,0-1.2l5.3-8.4
		l1.7-11.7c0.2-1.2,0.9-2.3,1.8-3l2.1-1.5c0.8-0.5,1.5-0.8,2.3-0.8c0.8,0,1.7,0.3,2.3,0.8l2.1,1.4c1.1,0.8,1.8,1.8,2,3.2l1.7,11.2
		l5.2,8.5C38.7,28.9,38.7,29.5,38.4,29.9z"/>
	<g>
		<path d="M25,19.9"/>
	</g>
</g>
</svg>
