<?xml version="1.0" encoding="utf-8"?>
<!-- Generator: Adobe Illustrator 18.1.1, SVG Export Plug-In . SVG Version: 6.00 Build 0)  -->
<!DOCTYPE svg PUBLIC "-//W3C//DTD SVG 1.1//EN" "http://www.w3.org/Graphics/SVG/1.1/DTD/svg11.dtd">
<svg version="1.1" id="ic_x5F_mark" xmlns="http://www.w3.org/2000/svg" xmlns:xlink="http://www.w3.org/1999/xlink" x="0px"
	 y="0px" viewBox="0 0 50 50" enable-background="new 0 0 50 50" xml:space="preserve">
<g>
	<g>
		<path d="M43.7,45.8H6.3c-1.6,0-3-0.7-3.7-2c-0.7-1.2-0.7-2.8,0-4.1l18-33.2c0.7-1.5,2.1-2.3,3.7-2.3
			c1.5,0,2.8,0.7,3.6,2.1l19.6,33.2c0.7,1.4,0.7,3-0.1,4.3C46.7,45,45.2,45.8,43.7,45.8z M24.3,5.5c-1.1,0-2.1,0.6-2.6,1.6l-18,33.2
			c-0.5,1-0.5,2,0,3c0.5,0.9,1.5,1.4,2.6,1.4h37.5c1.1,0,2-0.5,2.6-1.5s0.6-2.1,0-3.1l-19.6-33C26.2,6,25.4,5.5,24.3,5.5z"/>
	</g>
	<g>
		<rect x="22.4" y="36" width="5.3" height="5.3"/>
	</g>
	<g>
		<rect x="22.4" y="15.4" width="5.3" height="16.9"/>
	</g>
</g>
</svg>
