<?xml version="1.0" encoding="utf-8"?>
<!-- Generator: Adobe Illustrator 18.1.1, SVG Export Plug-In . SVG Version: 6.00 Build 0)  -->
<svg version="1.1" id="ic_x5F_camera" xmlns="http://www.w3.org/2000/svg" xmlns:xlink="http://www.w3.org/1999/xlink" x="0px"
	 y="0px" viewBox="0 0 612 792" enable-background="new 0 0 612 792" xml:space="preserve">
<g>
	<path d="M460.5,65.3C422.7,27.6,372.3,6.7,318.4,6.7h-24.9c-110.7,0-200.7,90-200.7,200.7v378c0,53.8,20.8,104.3,58.6,142.1
		c37.8,37.8,88.3,58.6,142.1,58.6h24.9c53.2,0,103.4-21.2,141.5-59.7c38.2-38.6,59.2-89.9,59.2-144.3V207.4
		C519.1,153.6,498.3,103.1,460.5,65.3z M293.6,30.1h24.9c97.8,0,177.3,79.6,177.3,177.3v376.4c0,98.7-79.6,179-177.3,179h-24.9
		c-97.8,0-177.3-79.6-177.3-177.3v-378C116.2,111.3,197.4,30.1,293.6,30.1z"/>
	<path d="M306,143.5c-46.5,0-83,34.3-83,78c0,43,37.2,78,83,78s83-35,83-78C389,177.8,352.5,143.5,306,143.5z M365.6,223.2
		c0,30.6-26.2,54.6-59.6,54.6c-32.9,0-59.6-24.5-59.6-54.6c0-30.6,26.2-54.6,59.6-54.6C338.9,168.5,365.6,193,365.6,223.2z"/>
	<path d="M306,143.5c-46.5,0-83,34.3-83,78c0,43,37.2,78,83,78s83-35,83-78C389,177.8,352.5,143.5,306,143.5z M365.6,223.2
		c0,30.6-26.2,54.6-59.6,54.6c-32.9,0-59.6-24.5-59.6-54.6c0-30.6,26.2-54.6,59.6-54.6C338.9,168.5,365.6,193,365.6,223.2z"/>
	<g>
		<path d="M306,736.8c-78.7,0-155.7-81.4-155.7-142.2c0-29.3,17.3-50.6,51.3-63.4c25.2-9.4,60.3-14.2,104.5-14.2
			s79.3,4.8,104.5,14.2c34,12.7,51.3,34.1,51.3,63.4C461.7,655.4,384.7,736.8,306,736.8z M306,533c-92.7,0-139.7,20.7-139.7,61.6
			c0,25.1,16.7,56.6,43.6,82.4c29,27.8,64.1,43.8,96.1,43.8c32.1,0,67.1-16,96.1-43.8c26.9-25.8,43.6-57.4,43.6-82.4
			C445.7,553.7,398.7,533,306,533z"/>
	</g>
	<circle cx="306" cy="380.4" r="29.7"/>
	<rect x="296.3" y="9.7" width="19.4" height="77.3"/>
	<g>
		<path d="M311.3,456h-10.6c-35.4,0-64.2-28.8-64.2-64.2v-38c-22.7-12-42-29.6-56.1-51.3c-15.6-24.1-23.8-52.1-23.8-81
			c0-82.4,67-149.4,149.4-149.4c82.4,0,149.4,67,149.4,149.4c0,28.9-8.2,56.9-23.8,81c-14,21.7-33.3,39.3-56.1,51.3v38
			C375.5,427.2,346.7,456,311.3,456z M306,92.1c-71.3,0-129.4,58-129.4,129.4c0,49.8,29.1,95.8,74.2,117l5.7,2.7v50.5
			c0,24.4,19.8,44.2,44.2,44.2h10.6c24.4,0,44.2-19.8,44.2-44.2v-50.5l5.7-2.7c45.1-21.3,74.2-67.2,74.2-117
			C435.4,150.2,377.3,92.1,306,92.1z"/>
	</g>
</g>
</svg>
