<?xml version="1.0" encoding="utf-8"?>
<!-- Generator: Adobe Illustrator 18.1.1, SVG Export Plug-In . SVG Version: 6.00 Build 0)  -->
<!DOCTYPE svg PUBLIC "-//W3C//DTD SVG 1.1//EN" "http://www.w3.org/Graphics/SVG/1.1/DTD/svg11.dtd">
<svg version="1.1" id="ic_x5F_devices" xmlns="http://www.w3.org/2000/svg" xmlns:xlink="http://www.w3.org/1999/xlink" x="0px"
	 y="0px" viewBox="0 0 50 50" enable-background="new 0 0 50 50" xml:space="preserve">
<g>
	<path d="M8,1.3H6.8v47.4h21.9V1.3h-0.9H8z M26.7,2.4V10h-1.3H10H9V2.4H26.7z M11,11h13.4v33.2H11V11z M7.9,47.7V2.4h0.5V11H10v34.3
		h15.5V11h2.2v36.7C27.6,47.7,7.9,47.7,7.9,47.7z"/>
	<path d="M31,1.3v10.3v26.7v10.4h12.2c0,0,0-6.8,0-10.4c0-9.2,0-17.7,0-26.7c0-3.5,0-10.3,0-10.3S31,1.3,31,1.3z M32,12.7h10.1v24.6
		H32C32,28.6,32,21.3,32,12.7z M42.1,47.7H32c0,0,0-6.3,0-9.4h10.1V47.7z M32,11.6c0-3.1,0-9.3,0-9.3h10.1v9.3H32z"/>
	<rect x="13.9" y="16.3" width="3.1" height="4.6"/>
	<rect x="15.5" y="5.1" width="4.6" height="3.2"/>
	<polygon points="35.6,43.3 37.5,43.3 37.5,45.3 38.6,45.3 38.6,43.3 40.5,43.3 40.5,42.2 38.6,42.2 38.6,40.5 37.5,40.5 37.5,42.2 
		35.6,42.2 	"/>
	<polygon points="40.5,7.1 38.6,7.1 38.6,5.2 37.5,5.2 37.5,7.1 35.6,7.1 35.6,8.2 37.5,8.2 37.5,10.1 38.6,10.1 38.6,8.2 40.5,8.2 
			"/>
</g>
</svg>
