<?xml version="1.0" encoding="utf-8"?>
<!-- Generator: Adobe Illustrator 18.1.1, SVG Export Plug-In . SVG Version: 6.00 Build 0)  -->
<!DOCTYPE svg PUBLIC "-//W3C//DTD SVG 1.1//EN" "http://www.w3.org/Graphics/SVG/1.1/DTD/svg11.dtd">
<svg version="1.1" id="Слой_1" xmlns="http://www.w3.org/2000/svg" xmlns:xlink="http://www.w3.org/1999/xlink" x="0px" y="0px"
	 viewBox="0 0 50 50" enable-background="new 0 0 50 50" xml:space="preserve">
<path d="M42.2,21.1H39v-6.6c0-3.7-1.4-6.8-3.8-9.1S29.5,1.5,26,1.5c-3.7,0-6.8,1.4-9.1,3.8s-3.8,5.6-3.8,9.1V21H9.8
	c-1.8,0-3.5,1.5-3.4,3.4V45c0,1.8,1.5,3.4,3.4,3.4H42c1.8,0,3.4-1.5,3.4-3.4V24.5C45.6,22.6,44,21.1,42.2,21.1z M28.7,40.5
	c0.1,0.3-0.3,0.7-0.7,0.7h-2l0,0h-2c-0.4,0-0.7-0.3-0.7-0.7l0.8-6.2c-0.8-0.6-1.4-1.5-1.4-2.7c0-1.7,1.4-3.2,3.2-3.2
	c1.8,0,3.2,1.4,3.2,3.2c0,1.1-0.6,2.1-1.4,2.7L28.7,40.5z M32.6,21.6H19.4l0,0h-0.1h0.1V14c0-1.8,0.7-3.5,2-4.8c1.1-1.1,2.8-2,4.6-2
	c1.8,0,3.5,0.7,4.6,2c1.1,1.1,2,2.8,2,4.6C32.6,13.9,32.6,21.6,32.6,21.6z"/>
</svg>
