<?xml version="1.0" encoding="utf-8"?>
<!-- Generator: Adobe Illustrator 18.1.1, SVG Export Plug-In . SVG Version: 6.00 Build 0)  -->
<!DOCTYPE svg PUBLIC "-//W3C//DTD SVG 1.1//EN" "http://www.w3.org/Graphics/SVG/1.1/DTD/svg11.dtd">
<svg version="1.1" id="Слой_1" xmlns="http://www.w3.org/2000/svg" xmlns:xlink="http://www.w3.org/1999/xlink" x="0px" y="0px"
	 viewBox="0 0 50 50" enable-background="new 0 0 50 50" xml:space="preserve">
<path fill="#1E88E5" d="M46.2,24.2L28,3.1c-0.7-0.8-1.5-1.2-2.5-1.2c-0.1,0-0.1,0-0.2,0h-0.3c-1.1,0-2.2,0.5-2.9,1.4L3.6,24.4
	c-1.3,1.5-1.1,3.8,0.3,5.2c1,0.9,2.5,1,3.6,1c0.2,0,0.4,0,0.7,0v12.7c0,2,1.6,3.6,3.6,3.6h26c2,0,3.6-1.6,3.6-3.6V30.4
	c0.2,0,0.4,0,0.5,0c4.5,0,5.1-2.6,5.1-3.7C47.3,25.8,46.9,24.8,46.2,24.2z M42.3,26.9c-0.4,0-0.9,0-1.3,0c-0.4,0-0.8,0-1,0
	c-1,0-1.8,0.8-1.8,1.8v14.6c0,0,0,0.1-0.1,0.1h-5.5V28.7H17.5v14.6H12c0,0-0.1,0-0.1-0.1V28.6c0-1-0.8-1.8-1.8-1.8
	c-0.3,0-0.7,0-1.1,0c-0.4,0-0.9,0.1-1.4,0.1c-1,0-1.3-0.1-1.3-0.1v-0.1L24.7,5.5l0.1-0.1c0,0,0,0,0.1,0l0,0c0.1,0,0.2,0,0.3,0
	l18.4,21.2c0,0,0,0.1,0.1,0.2C43.5,26.8,43.1,26.9,42.3,26.9z"/>
</svg>
