<?xml version="1.0" encoding="utf-8"?>
<!-- Generator: Adobe Illustrator 18.1.1, SVG Export Plug-In . SVG Version: 6.00 Build 0)  -->
<!DOCTYPE svg PUBLIC "-//W3C//DTD SVG 1.1//EN" "http://www.w3.org/Graphics/SVG/1.1/DTD/svg11.dtd">
<svg version="1.1" id="Слой_1" xmlns="http://www.w3.org/2000/svg" xmlns:xlink="http://www.w3.org/1999/xlink" x="0px" y="0px"
	 viewBox="0 0 50 50" enable-background="new 0 0 50 50" xml:space="preserve">
<path fill="#FFFFFF" d="M46.7,24.2L28,2.6c-0.7-0.8-1.6-1.2-2.6-1.2c-0.1,0-0.1,0-0.2,0h-0.3c-1.1,0-2.2,0.6-2.9,1.5L3.1,24.4
	C1.8,26,2,28.3,3.5,29.7c1,0.9,2.6,1,3.7,1c0.2,0,0.4,0,0.7,0v13c0,2,1.7,3.7,3.7,3.7h26.6c2,0,3.7-1.7,3.7-3.7V30.6
	c0.2,0,0.4,0,0.6,0c4.6,0,5.2-2.7,5.2-3.8C47.8,25.9,47.3,24.8,46.7,24.2z M42.6,27c-0.4,0-0.9,0-1.3,0c-0.4,0-0.8,0-1,0
	c-1,0-1.8,0.8-1.8,1.8v14.9c0,0,0,0.1-0.1,0.1h-5.6v-15H17.4v14.9h-5.6c0,0-0.1,0-0.1-0.1V28.7c0-1-0.8-1.8-1.8-1.8
	c-0.3,0-0.7,0-1.1,0S7.8,27,7.3,27c-1,0-1.3-0.1-1.3-0.1v-0.1L24.7,5.1L24.8,5c0,0,0,0,0.1,0l0,0c0.1,0,0.2,0,0.3,0L44,26.6
	c0,0,0,0.1,0.1,0.2C43.9,26.9,43.5,27,42.6,27z"/>
</svg>
