<?xml version="1.0" encoding="utf-8"?>
<!-- Generator: Adobe Illustrator 18.1.1, SVG Export Plug-In . SVG Version: 6.00 Build 0)  -->
<!DOCTYPE svg PUBLIC "-//W3C//DTD SVG 1.1//EN" "http://www.w3.org/Graphics/SVG/1.1/DTD/svg11.dtd">
<svg version="1.1" id="grey_x5F_lock" xmlns="http://www.w3.org/2000/svg" xmlns:xlink="http://www.w3.org/1999/xlink" x="0px"
	 y="0px" viewBox="0 0 50 50" enable-background="new 0 0 50 50" xml:space="preserve">
<path fill="#CCD2D6" d="M33.2,4.1c-7.2,0-13,5.8-13,13c0,1.3,0.2,2.4,0.5,3.5L3.2,37.7v5h1.6v1.6l8.7-0.2l15.3-14.8
	c1.4,0.5,2.8,0.7,4.3,0.7c7.2,0,13-5.8,13-13C46.2,9.9,40.4,4.1,33.2,4.1z M7.3,40.8l-0.8-2.1L21,23.9l0.6,2.9L7.3,40.8z M36,17.8
	c-1.9,0-3.4-1.5-3.4-3.4s1.5-3.4,3.4-3.4c1.9,0,3.4,1.5,3.4,3.4C39.3,16.4,37.8,17.8,36,17.8z"/>
</svg>
