<?xml version="1.0" encoding="utf-8"?>
<!-- Generator: Adobe Illustrator 18.1.1, SVG Export Plug-In . SVG Version: 6.00 Build 0)  -->
<!DOCTYPE svg PUBLIC "-//W3C//DTD SVG 1.1//EN" "http://www.w3.org/Graphics/SVG/1.1/DTD/svg11.dtd">
<svg version="1.1" id="grey_x5F_lock" xmlns="http://www.w3.org/2000/svg" xmlns:xlink="http://www.w3.org/1999/xlink" x="0px"
	 y="0px" viewBox="0 0 50 50" enable-background="new 0 0 50 50" xml:space="preserve">
<path fill="#CCD2D6" d="M42.8,21L42.8,21H32.7v1.3H19.3v-0.6l0.3,0.6h-0.3v-7.7c0-1.7,0.8-3.3,2-4.6c1-1,2.8-1.9,4.6-1.9
	s3.4,0.7,4.7,1.9c1,1,2.1,2.7,2.1,4.4v1.3l5.7-1.3c-0.1-3.2-1.6-6.1-3.7-8.3c-2.3-2.3-5.3-3.6-8.7-3.6c-3.4,0-6.3,1.3-8.5,3.6
	c-2.1,2.4-3.4,5.4-3.4,8.8v6h-3.4c-1.7,0-3.3,1.9-3.3,3.4v19.4c0,1.7,1.6,3.7,3.3,3.7h30.5c1.7,0,3.3-1.9,3.3-3.7V24.4
	C44.7,23.2,43.7,22.3,42.8,21z M28.6,40.1c0.1,0.3-0.3,1-0.7,1H26l0,0h-1.9c-0.4,0-0.7-0.7-0.7-1l0.8-6c-0.8-0.6-1.3-1.6-1.3-2.7
	c0-1.6,1.3-3,3-3c1.7,0,3,1.3,3,3c0,1-0.6,2.1-1.3,2.7L28.6,40.1z"/>
</svg>
