<?xml version="1.0" encoding="utf-8"?>
<!-- Generator: Adobe Illustrator 18.1.1, SVG Export Plug-In . SVG Version: 6.00 Build 0)  -->
<!DOCTYPE svg PUBLIC "-//W3C//DTD SVG 1.1//EN" "http://www.w3.org/Graphics/SVG/1.1/DTD/svg11.dtd">
<svg version="1.1" id="Слой_1" xmlns="http://www.w3.org/2000/svg" xmlns:xlink="http://www.w3.org/1999/xlink" x="0px" y="0px"
	 viewBox="0 0 50 50" enable-background="new 0 0 50 50" xml:space="preserve">
<path d="M43.6,20.8L43.6,20.8H33v1.4H19v-0.6l0.3,0.6H19v-8.1c0-1.8,0.8-3.5,2.1-4.8c1.1-1.1,2.9-2,4.8-2
	s3.6,0.7,4.9,2c1.1,1.1,2.2,2.8,2.2,4.6v1.4l6-1.4c-0.1-3.4-1.7-6.4-3.9-8.7c-2.4-2.4-5.6-3.8-9.1-3.8c-3.6,0-6.6,1.4-8.9,3.8
	c-2.2,2.5-3.6,5.7-3.6,9.2v6.3H9.9c-1.8,0-3.5,2-3.5,3.6v20.4c0,1.8,1.7,3.9,3.5,3.9h32c1.8,0,3.5-2,3.5-3.9V24.4
	C45.6,23.1,44.6,22.2,43.6,20.8z M28.7,40.8c0.1,0.3-0.3,1-0.7,1h-2l0,0h-2c-0.4,0-0.7-0.7-0.7-1l0.8-6.3c-0.8-0.6-1.4-1.7-1.4-2.8
	c0-1.7,1.4-3.2,3.2-3.2s3.2,1.4,3.2,3.2c0,1.1-0.6,2.2-1.4,2.8L28.7,40.8z"/>
</svg>
