<?xml version="1.0" encoding="utf-8"?>
<!-- Generator: Adobe Illustrator 17.0.0, SVG Export Plug-In . SVG Version: 6.00 Build 0)  -->
<!DOCTYPE svg PUBLIC "-//W3C//DTD SVG 1.1 Tiny//EN" "http://www.w3.org/Graphics/SVG/1.1/DTD/svg11-tiny.dtd">
<svg version="1.1" baseProfile="tiny" id="Слой_1"
	 xmlns="http://www.w3.org/2000/svg" xmlns:xlink="http://www.w3.org/1999/xlink" x="0px" y="0px" width="24px" height="25px"
	 viewBox="0 0 24 25" xml:space="preserve">
<g>
	<path fill-rule="evenodd" d="M14,4.624V2c0-1.105-0.895-2-2-2s-2,0.895-2,2v2.624C8.809,5.404,8,6.839,8,8.5
		s0.809,3.096,2,3.876V23c0,1.105,0.895,2,2,2s2-0.895,2-2V12.376c1.191-0.78,2-2.214,2-3.876S15.191,5.404,14,4.624z M11,2
		c0-0.552,0.448-1,1-1s1,0.448,1,1v2.159C12.679,4.065,12.347,4,12,4s-0.679,0.065-1,0.159V2z M13,22.5c0,0.552-0.448,1-1,1
		s-1-0.448-1-1v-9.659C11.321,12.935,11.653,13,12,13s0.679-0.065,1-0.159V22.5z M12,12c-1.657,0-3-1.567-3-3.5
		C9,6.567,10.343,5,12,5s3,1.567,3,3.5C15,10.433,13.657,12,12,12z M22,12.624V2c0-1.105-0.895-2-2-2s-2,0.895-2,2v10.624
		c-1.191,0.78-2,2.214-2,3.876s0.809,3.096,2,3.876V23c0,1.105,0.895,2,2,2s2-0.895,2-2v-2.624c1.191-0.78,2-2.214,2-3.876
		S23.191,13.404,22,12.624z M19,2.5c0-0.552,0.448-1,1-1s1,0.448,1,1v9.659C20.679,12.065,20.347,12,20,12s-0.679,0.065-1,0.159V2.5
		z M21,23c0,0.552-0.448,1-1,1s-1-0.448-1-1v-2.159C19.321,20.935,19.653,21,20,21s0.679-0.065,1-0.159V23z M20,20
		c-1.657,0-3-1.567-3-3.5c0-1.933,1.343-3.5,3-3.5s3,1.567,3,3.5C23,18.433,21.657,20,20,20z M6,12.624V2c0-1.105-0.895-2-2-2
		S2,0.895,2,2v10.624c-1.191,0.78-2,2.214-2,3.876s0.809,3.096,2,3.876V23c0,1.105,0.895,2,2,2s2-0.895,2-2v-2.624
		c1.191-0.78,2-2.214,2-3.876S7.191,13.404,6,12.624z M3,2.5c0-0.552,0.448-1,1-1s1,0.448,1,1v9.659C4.679,12.065,4.347,12,4,12
		s-0.679,0.065-1,0.159V2.5z M5,23c0,0.552-0.448,1-1,1s-1-0.448-1-1v-2.159C3.321,20.935,3.653,21,4,21s0.679-0.065,1-0.159V23z
		 M4,20c-1.657,0-3-1.567-3-3.5C1,14.567,2.343,13,4,13s3,1.567,3,3.5C7,18.433,5.657,20,4,20z"/>
</g>
</svg>
