<?xml version="1.0" encoding="utf-8"?>
<!-- Generator: Adobe Illustrator 18.1.1, SVG Export Plug-In . SVG Version: 6.00 Build 0)  -->
<!DOCTYPE svg PUBLIC "-//W3C//DTD SVG 1.1//EN" "http://www.w3.org/Graphics/SVG/1.1/DTD/svg11.dtd">
<svg version="1.1" id="Слой_1" xmlns="http://www.w3.org/2000/svg" xmlns:xlink="http://www.w3.org/1999/xlink" x="0px" y="0px"
	 viewBox="0 0 50 50" enable-background="new 0 0 50 50" xml:space="preserve">
<path fill="#253339" d="M48.8,25.2c-0.1,0-0.2,0-0.3,0h-0.6h-2.7c0,0,0-0.1,0-0.1c0-12-9.8-21.8-21.8-21.8S1.7,13.1,1.7,25.1
	s9.8,21.8,21.8,21.8c0.6,0,1-0.4,1-1s-0.4-1-1-1C12.5,44.8,3.7,36,3.7,25.1S12.5,5.3,23.4,5.3c10.9,0,19.8,8.9,19.8,19.8
	c0,0,0,0.1,0,0.1h-0.3H40h-0.6c-0.1,0-0.2,0-0.3,0c-0.4,0-0.6,0.3-0.6,0.6c0,0.2,0.1,0.4,0.3,0.5l4.6,4.7c0.2,0.2,0.4,0.3,0.6,0.3
	c0.2,0,0.4-0.1,0.6-0.3l4.7-4.7c0.2-0.2,0.3-0.3,0.3-0.5C49.4,25.5,49.1,25.2,48.8,25.2z"/>
<g id="ic_x5F_24h-text">
	<g>
		<path fill="#253339" d="M40.3,42.8h-3.7c-0.5,0-1-0.1-1.3-0.4c-0.4-0.3-0.5-0.7-0.5-1.1c0-0.2,0-0.3,0.1-0.4
			c0.1-0.2,0.1-0.3,0.2-0.4c0.1-0.1,0.2-0.3,0.3-0.4c0.1-0.2,0.2-0.3,0.3-0.4l4.2-5.6c0.2-0.3,0.5-0.6,0.7-0.9
			c0.3-0.2,0.5-0.3,0.8-0.3c1,0,1.5,0.7,1.5,1.7v5.9h0.1c0.4,0,0.8,0.1,1.1,0.2c0.4,0.2,0.5,0.6,0.5,1c0,0.4-0.1,0.7-0.4,0.9
			c-0.3,0.2-0.7,0.3-1.1,0.3h-0.2v1.2c0,0.4-0.1,0.8-0.4,1.1c-0.3,0.3-0.6,0.4-0.9,0.4c-0.4,0-0.7-0.2-0.9-0.4
			c-0.3-0.3-0.4-0.7-0.4-1.1L40.3,42.8L40.3,42.8z M29.9,42.9h3.6c0.4,0,0.8,0.1,1.1,0.3c0.3,0.2,0.5,0.6,0.5,0.9
			c0,0.3-0.1,0.6-0.4,0.9c-0.3,0.3-0.6,0.4-1,0.4h-5.9c-0.4,0-0.8-0.1-1.1-0.4c-0.3-0.3-0.4-0.6-0.4-1c0-0.3,0.1-0.6,0.3-0.9
			c0.2-0.3,0.3-0.6,0.5-0.8c0.6-0.7,1.3-1.3,1.9-1.9c0.4-0.4,0.8-0.8,1.3-1.1c0.4-0.3,0.7-0.6,1.1-0.9c0.3-0.3,0.5-0.6,0.6-0.9
			c0.1-0.3,0.2-0.6,0.2-0.9c0-0.3-0.1-0.5-0.2-0.8c-0.2-0.2-0.3-0.4-0.6-0.5c-0.3-0.2-0.5-0.2-0.8-0.2c-0.6,0-1.1,0.3-1.4,0.8
			c-0.1,0.1-0.2,0.5-0.3,0.6c-0.1,0.3-0.3,0.7-0.5,0.9C28.3,37.8,28,38,27.6,38c-0.3,0-0.6-0.1-0.9-0.4c-0.3-0.3-0.4-0.6-0.4-0.9
			c0-0.5,0.1-0.9,0.3-1.3c0.2-0.5,0.5-0.8,0.8-1.2c0.4-0.4,0.9-0.7,1.3-0.9c0.6-0.3,1.2-0.3,1.9-0.3c0.8,0,1.5,0.1,2.2,0.4
			c0.4,0.2,0.8,0.5,1.1,0.8s0.6,0.7,0.7,1.1s0.3,0.9,0.3,1.3c0,0.7-0.2,1.3-0.5,1.9c-0.3,0.5-0.6,1-1.1,1.3c-0.6,0.5-1.1,1-1.7,1.4
			C31.1,41.8,30.4,42.4,29.9,42.9C29.9,42.9,29.9,42.9,29.9,42.9L29.9,42.9z M37.7,40.5h2.6V37L37.7,40.5L37.7,40.5z"/>
	</g>
</g>
<path fill="#253339" d="M31.8,11.2c-0.7-0.4-1.5-0.2-1.9,0.5l-6.5,10.8c-0.9,0-1.7,0.5-2.2,1.3h-8.4c-0.8,0-1.4,0.6-1.4,1.4
	c0,0.8,0.6,1.4,1.4,1.4h8.5c0.5,0.7,1.3,1.2,2.2,1.2c1.4,0,2.6-1.2,2.6-2.6c0-0.4-0.1-0.8-0.3-1.2l6.5-10.8
	C32.6,12.5,32.4,11.6,31.8,11.2z"/>
</svg>
