<?xml version="1.0" encoding="utf-8"?>
<!-- Generator: Adobe Illustrator 18.1.1, SVG Export Plug-In . SVG Version: 6.00 Build 0)  -->
<!DOCTYPE svg PUBLIC "-//W3C//DTD SVG 1.1//EN" "http://www.w3.org/Graphics/SVG/1.1/DTD/svg11.dtd">
<svg version="1.1" id="Слой_1" xmlns="http://www.w3.org/2000/svg" xmlns:xlink="http://www.w3.org/1999/xlink" x="0px" y="0px"
	 viewBox="0 0 50 50" enable-background="new 0 0 50 50" xml:space="preserve">
<g>
	<linearGradient id="SVGID_1_" gradientUnits="userSpaceOnUse" x1="1.418" y1="25" x2="47.5818" y2="25">
		<stop  offset="0" style="stop-color:#36A0FE"/>
		<stop  offset="1" style="stop-color:#1D7DD2"/>
	</linearGradient>
	<path fill="url(#SVGID_1_)" d="M47,24.1c-0.1,0-0.2,0-0.3,0h-0.5h-2.6C43,12.9,33.8,3.9,22.5,3.9C10.9,3.9,1.4,13.4,1.4,25
		c0,11.6,9.5,21.1,21.1,21.1v-2C12,44.1,3.4,35.5,3.4,25C3.4,14.5,12,5.9,22.5,5.9c10.2,0,18.6,8.1,19,18.2h-0.2h-2.8h-0.5
		c-0.1,0-0.2,0-0.3,0c-0.3,0-0.6,0.2-0.6,0.6c0,0.2,0.1,0.3,0.2,0.5l4.4,4.5c0.1,0.1,0.3,0.2,0.5,0.2c0.2,0,0.4-0.1,0.5-0.2l4.5-4.5
		c0.1-0.1,0.2-0.3,0.2-0.5C47.6,24.4,47.3,24.1,47,24.1z"/>
	<g id="ic_x5F_24h-text">
		
			<linearGradient id="SVGID_2_" gradientUnits="userSpaceOnUse" x1="-1421.1" y1="-440.55" x2="-1142.1" y2="-440.55" gradientTransform="matrix(6.297229e-002 0 0 -6.297229e-002 114.7859 10.995)">
			<stop  offset="0" style="stop-color:#36A0FE"/>
			<stop  offset="1" style="stop-color:#1D7DD2"/>
		</linearGradient>
		<path fill="url(#SVGID_2_)" d="M38.8,42.2h-3.6c-0.4,0-0.9-0.1-1.3-0.4s-0.4-0.7-0.4-1.1c0-0.1,0-0.2,0.1-0.4s0.1-0.2,0.2-0.3
			c0.1-0.1,0.1-0.2,0.2-0.3c0.1-0.1,0.2-0.2,0.3-0.4l4.1-5.5c0.2-0.3,0.4-0.6,0.7-0.8c0.2-0.2,0.5-0.3,0.8-0.3c1,0,1.4,0.6,1.4,1.6
			v5.7h0.1c0.3,0,0.7,0.1,1.1,0.2c0.4,0.2,0.5,0.5,0.5,0.9c0,0.3-0.1,0.7-0.4,0.9c-0.3,0.2-0.7,0.2-1,0.2h-0.2v1.2
			c0,0.4-0.1,0.8-0.3,1.1c-0.2,0.2-0.5,0.4-0.9,0.4s-0.6-0.1-0.9-0.4c-0.2-0.3-0.3-0.7-0.3-1L38.8,42.2L38.8,42.2z M28.7,42.3h3.5
			c0.4,0,0.8,0.1,1.1,0.3c0.3,0.2,0.4,0.5,0.4,0.9c0,0.3-0.1,0.6-0.3,0.8c-0.2,0.2-0.6,0.3-0.9,0.3h-5.7c-0.4,0-0.8-0.1-1.1-0.4
			c-0.2-0.2-0.4-0.6-0.4-0.9c0-0.3,0.1-0.6,0.2-0.8c0.1-0.3,0.3-0.5,0.5-0.8c0.6-0.6,1.2-1.2,1.9-1.8c0.3-0.3,0.8-0.7,1.2-1
			c0.3-0.2,0.7-0.5,1-0.9c0.2-0.2,0.4-0.5,0.6-0.8c0.1-0.2,0.2-0.5,0.2-0.8c0-0.2-0.1-0.5-0.2-0.7c-0.1-0.2-0.3-0.4-0.5-0.5
			c-0.2-0.1-0.5-0.2-0.7-0.2c-0.6,0-1,0.2-1.4,0.8c-0.1,0.1-0.2,0.4-0.2,0.6c-0.1,0.3-0.2,0.6-0.4,0.9c-0.2,0.2-0.5,0.4-0.9,0.4
			c-0.3,0-0.6-0.1-0.8-0.3c-0.2-0.2-0.3-0.5-0.3-0.9c0-0.4,0.1-0.8,0.2-1.2c0.2-0.4,0.4-0.8,0.8-1.1s0.8-0.6,1.3-0.8
			c0.6-0.2,1.2-0.3,1.8-0.3c0.7,0,1.5,0.1,2.1,0.4c0.4,0.2,0.7,0.4,1,0.7s0.5,0.7,0.7,1.1s0.2,0.8,0.2,1.3c0,0.7-0.1,1.3-0.5,1.9
			c-0.3,0.4-0.6,0.9-1,1.3c-0.5,0.5-1.1,0.9-1.7,1.4C29.9,41.2,29.2,41.7,28.7,42.3C28.8,42.2,28.8,42.2,28.7,42.3L28.7,42.3z
			 M36.3,39.9h2.5v-3.4L36.3,39.9L36.3,39.9z"/>
	</g>
	<linearGradient id="SVGID_3_" gradientUnits="userSpaceOnUse" x1="10.8816" y1="19.4597" x2="31.2297" y2="19.4597">
		<stop  offset="0" style="stop-color:#36A0FE"/>
		<stop  offset="1" style="stop-color:#1D7DD2"/>
	</linearGradient>
	<path fill="url(#SVGID_3_)" d="M30.6,11.6c-0.6-0.4-1.4-0.2-1.8,0.4l-6.3,10.4c-0.9,0-1.7,0.5-2.1,1.2h-8.1c-0.7,0-1.3,0.6-1.3,1.3
		s0.6,1.3,1.3,1.3h8.2c0.5,0.7,1.2,1.1,2.1,1.1c1.4,0,2.5-1.1,2.5-2.5c0-0.4-0.1-0.8-0.3-1.1L31,13.4C31.4,12.8,31.2,12,30.6,11.6z"
		/>
</g>
</svg>
