<?xml version="1.0" encoding="utf-8"?>
<!-- Generator: Adobe Illustrator 18.1.1, SVG Export Plug-In . SVG Version: 6.00 Build 0)  -->
<!DOCTYPE svg PUBLIC "-//W3C//DTD SVG 1.1//EN" "http://www.w3.org/Graphics/SVG/1.1/DTD/svg11.dtd">
<svg version="1.1" id="Слой_1" xmlns="http://www.w3.org/2000/svg" xmlns:xlink="http://www.w3.org/1999/xlink" x="0px" y="0px"
	 viewBox="0 0 50 50" enable-background="new 0 0 50 50" xml:space="preserve">
<g>
	<g>
		
			<linearGradient id="SVGID_1_" gradientUnits="userSpaceOnUse" x1="-1496.3271" y1="-257.3496" x2="-1177.3398" y2="-257.3496" gradientTransform="matrix(6.297229e-002 0 0 -6.297229e-002 109.1637 8.1839)">
			<stop  offset="0" style="stop-color:#36A0FE"/>
			<stop  offset="1" style="stop-color:#1D7DD2"/>
		</linearGradient>
		<path fill="url(#SVGID_1_)" d="M17.1,34.4c-0.6,0-1.2-0.3-1.6-0.8c-0.4-0.5-0.6-1.1-0.6-1.8c0.8-5.6,0.8-9.4,0-15.1
			c-0.1-0.6,0.1-1.2,0.5-1.7c0.5-0.6,1.2-0.9,2-0.8c6.1,1,9,1,15.1,0c0.1,0,0.2,0,0.3,0c0.6,0,1.3,0.3,1.7,0.9
			c0.4,0.5,0.6,1.1,0.4,1.7c-1,5.9-1,9.1,0,15c0.1,0.6-0.1,1.2-0.5,1.7c-0.5,0.6-1.3,0.9-2,0.8c-3.2-0.6-5.4-0.8-7.5-0.8
			c-2.2,0-4.3,0.2-7.5,0.8C17.4,34.4,17.3,34.4,17.1,34.4z M25,31.6c2.3,0,4.6,0.3,7.8,0.9c0,0,0.2-0.1,0.2-0.2c-1-6.1-1-9.6,0-15.7
			c0-0.1-0.1-0.2-0.2-0.2c-3.1,0.5-5.5,0.7-7.8,0.7c-2.3,0-4.7-0.2-7.8-0.7c0,0-0.1,0-0.2,0.1c0,0.1-0.1,0.1-0.1,0.1
			c0.8,5.8,0.8,9.8,0,15.6c0,0.1,0.1,0.2,0.2,0.3C20.4,31.8,22.8,31.6,25,31.6z"/>
	</g>
	
		<linearGradient id="SVGID_2_" gradientUnits="userSpaceOnUse" x1="-1350.583" y1="-256.89" x2="-1323.2382" y2="-256.89" gradientTransform="matrix(6.297229e-002 0 0 -6.297229e-002 109.1637 8.1839)">
		<stop  offset="0" style="stop-color:#36A0FE"/>
		<stop  offset="1" style="stop-color:#1D7DD2"/>
	</linearGradient>
	<path fill="url(#SVGID_2_)" d="M25,22L25,22c0.5,0,0.8,0.4,0.8,0.8v2.9c0,0.5-0.4,0.8-0.8,0.8l0,0c-0.5,0-0.9-0.4-0.9-0.8v-3
		C24.1,22.4,24.5,22,25,22L25,22z"/>
	<g id="ic_x5F_panel-wave">
		<g>
			<g>
				
					<linearGradient id="SVGID_3_" gradientUnits="userSpaceOnUse" x1="-1715.7015" y1="-266.9896" x2="-1529.9645" y2="-266.9896" gradientTransform="matrix(6.297229e-002 0 0 -6.297229e-002 109.1637 8.1839)">
					<stop  offset="0" style="stop-color:#36A0FE"/>
					<stop  offset="1" style="stop-color:#1D7DD2"/>
				</linearGradient>
				<path fill="url(#SVGID_3_)" d="M11.4,44.9C5,40.4,1.1,33,1.1,25.1c0-8,4-15.5,10.6-20l1.1,1.7c-6.1,4.1-9.7,11-9.7,18.4
					c0,7.2,3.5,14,9.5,18.2L11.4,44.9z"/>
			</g>
			<g>
				
					<linearGradient id="SVGID_4_" gradientUnits="userSpaceOnUse" x1="-1631.3003" y1="-271.8629" x2="-1531.4609" y2="-271.8629" gradientTransform="matrix(6.297229e-002 0 0 -6.297229e-002 109.1637 8.1839)">
					<stop  offset="0" style="stop-color:#36A0FE"/>
					<stop  offset="1" style="stop-color:#1D7DD2"/>
				</linearGradient>
				<path fill="url(#SVGID_4_)" d="M11.2,37.1c-3.1-3.6-4.8-7.8-4.8-12c0-4.1,1.5-8,4.4-11.6l1.5,1.3c-2.6,3.1-4,6.7-4,10.3
					c0,3.7,1.5,7.4,4.3,10.7L11.2,37.1z"/>
			</g>
			<g>
				
					<linearGradient id="SVGID_5_" gradientUnits="userSpaceOnUse" x1="-1143.7579" y1="-267.3502" x2="-957.3385" y2="-267.3502" gradientTransform="matrix(6.297229e-002 0 0 -6.297229e-002 109.1637 8.1839)">
					<stop  offset="0" style="stop-color:#36A0FE"/>
					<stop  offset="1" style="stop-color:#1D7DD2"/>
				</linearGradient>
				<path fill="url(#SVGID_5_)" d="M38.5,44.9l-1.1-1.6c6-4.2,9.5-11,9.5-18.2c0-7.4-3.6-14.2-9.7-18.3l1.1-1.7
					c6.7,4.5,10.6,11.9,10.6,20C48.9,33,45,40.4,38.5,44.9z"/>
			</g>
			<g>
				
					<linearGradient id="SVGID_6_" gradientUnits="userSpaceOnUse" x1="-1141.5713" y1="-271.8629" x2="-1041.7474" y2="-271.8629" gradientTransform="matrix(6.297229e-002 0 0 -6.297229e-002 109.1637 8.1839)">
					<stop  offset="0" style="stop-color:#36A0FE"/>
					<stop  offset="1" style="stop-color:#1D7DD2"/>
				</linearGradient>
				<path fill="url(#SVGID_6_)" d="M38.8,37.1l-1.5-1.3c2.8-3.3,4.3-7,4.3-10.7c0-3.6-1.4-7.1-4-10.3l1.5-1.3
					C42,17,43.6,21,43.6,25.1C43.6,29.3,41.9,33.4,38.8,37.1z"/>
			</g>
		</g>
	</g>
</g>
</svg>
