<?xml version="1.0" encoding="utf-8"?>
<!-- Generator: Adobe Illustrator 18.1.1, SVG Export Plug-In . SVG Version: 6.00 Build 0)  -->
<!DOCTYPE svg PUBLIC "-//W3C//DTD SVG 1.1//EN" "http://www.w3.org/Graphics/SVG/1.1/DTD/svg11.dtd">
<svg version="1.1" id="Слой_1" xmlns="http://www.w3.org/2000/svg" xmlns:xlink="http://www.w3.org/1999/xlink" x="0px" y="0px"
	 viewBox="0 0 50 50" enable-background="new 0 0 50 50" xml:space="preserve">
<g>
	<g id="ic_x5F_house">
		<g>
			
				<linearGradient id="SVGID_1_" gradientUnits="userSpaceOnUse" x1="-1704.722" y1="-334.0039" x2="-938.566" y2="-334.0039" gradientTransform="matrix(6.297229e-002 0 0 -6.297229e-002 108.2267 3.9673)">
				<stop  offset="0" style="stop-color:#36A0FE"/>
				<stop  offset="1" style="stop-color:#1D7DD2"/>
			</linearGradient>
			<path fill="url(#SVGID_1_)" d="M39.7,48.8H10.3c-1.7,0-3.1-1.4-3.1-3.1V31.4H4c-0.8,0-1.5-0.3-2-0.7c-0.6-0.5-1-1.3-1.1-2.1
				c-0.1-0.8,0.2-1.7,0.8-2.3L7,20.1c0-0.1,0-0.2,0-0.2v-9.4c0-1.7,1.4-3.1,3.1-3.1c1.7,0,3.1,1.4,3.1,3.1v2.5l9.1-10.6
				c0.5-0.7,1.4-1.2,2.5-1.2h0.4c0.9,0,1.8,0.4,2.4,1.1l20.7,23.8c0.6,0.6,0.9,1.3,0.9,2.2c0,1.7-1.4,3.1-3.1,3.1h-3.2v14.3
				C42.8,47.4,41.5,48.8,39.7,48.8z M10.1,9.3C9.5,9.3,9,9.8,9,10.5v9.4c0,0.2,0,0.2,0,0.3l0.1,0.5l-5.9,7c-0.2,0.2-0.3,0.5-0.3,0.8
				c0,0.3,0.2,0.6,0.4,0.7c0.2,0.2,0.4,0.3,0.7,0.3h5.2v16.3c0,0.6,0.5,1.1,1.1,1.1h29.4c0.6,0,1.1-0.5,1.1-1.1V29.4H46
				c0.6,0,1.1-0.5,1.1-1.1c0-0.3-0.1-0.6-0.3-0.8L26,3.6c-0.2-0.3-0.5-0.4-0.8-0.4h-0.4c-0.4,0-0.7,0.1-0.9,0.4L11.2,18.3v-7.9
				C11.2,9.8,10.7,9.3,10.1,9.3z"/>
		</g>
	</g>
	<g id="ic_x5F_house-elem-1">
		<g>
			<linearGradient id="SVGID_2_" gradientUnits="userSpaceOnUse" x1="8.6381" y1="32.259" x2="18.9781" y2="32.259">
				<stop  offset="0" style="stop-color:#36A0FE"/>
				<stop  offset="1" style="stop-color:#1D7DD2"/>
			</linearGradient>
			<path fill="url(#SVGID_2_)" d="M14.4,22.7c-0.1-0.1-0.3-0.2-0.5-0.2c-0.2,0.1-0.4,0.1-0.5,0.2l-4.4,4.4c-0.1,0.1-0.2,0.2-0.2,0.4
				c0,0.3,0.2,0.6,0.6,0.6c0.1,0,0.2,0,0.3,0h0.5c0.9,0,1.6,0,2.2,0c-0.6,2.2,0,4.2,0.5,6.3c0.6,2.3,1.2,4.5,0.1,6.8l1.8,0.8
				c1.4-3,0.6-5.7,0-8.2c-0.6-2.1-1-3.9-0.4-5.7c0.3,0,1.1,0,3.2,0h0.5c0.1,0,0.2,0,0.3,0c0.3,0,0.6-0.2,0.6-0.6
				c0-0.1-0.1-0.3-0.2-0.4L14.4,22.7z"/>
			<linearGradient id="SVGID_3_" gradientUnits="userSpaceOnUse" x1="19.8094" y1="32.259" x2="30.1431" y2="32.259">
				<stop  offset="0" style="stop-color:#36A0FE"/>
				<stop  offset="1" style="stop-color:#1D7DD2"/>
			</linearGradient>
			<path fill="url(#SVGID_3_)" d="M25.6,22.7c-0.1-0.1-0.3-0.2-0.5-0.2c-0.2,0.1-0.4,0.1-0.5,0.2l-4.4,4.4c-0.1,0.1-0.2,0.2-0.2,0.4
				c0,0.3,0.2,0.6,0.6,0.6c0.1,0,0.2,0,0.3,0h0.5c0.9,0,1.6,0,2.2,0c-0.6,2.2,0,4.2,0.5,6.3c0.6,2.3,1.2,4.5,0.1,6.8l1.8,0.8
				c1.4-3,0.6-5.7,0-8.2c-0.6-2.1-1-3.9-0.4-5.7c0.3,0,1.1,0,3.2,0h0.5c0.1,0,0.2,0,0.3,0c0.3,0,0.6-0.2,0.6-0.6
				c0-0.1-0.1-0.3-0.2-0.4L25.6,22.7z"/>
			<linearGradient id="SVGID_4_" gradientUnits="userSpaceOnUse" x1="30.9743" y1="32.2595" x2="41.3144" y2="32.2595">
				<stop  offset="0" style="stop-color:#36A0FE"/>
				<stop  offset="1" style="stop-color:#1D7DD2"/>
			</linearGradient>
			<path fill="url(#SVGID_4_)" d="M41.1,27.1l-4.3-4.4c-0.1-0.1-0.3-0.2-0.5-0.2c-0.2,0.1-0.4,0.1-0.5,0.2l-4.4,4.4
				c-0.1,0.1-0.2,0.2-0.2,0.4c0,0.3,0.2,0.6,0.6,0.6c0.1,0,0.2,0,0.3,0h0.5c0.9,0,1.6,0,2.2,0c-0.6,2.2,0,4.2,0.5,6.3
				c0.6,2.3,1.2,4.5,0.1,6.8l1.8,0.8c1.4-3,0.6-5.7,0-8.2c-0.6-2.1-1-3.9-0.4-5.7c0.3,0,1.1,0,3.2,0h0.5c0.1,0,0.2,0,0.3,0
				c0.3,0,0.6-0.2,0.6-0.6C41.3,27.4,41.2,27.2,41.1,27.1z"/>
		</g>
	</g>
</g>
</svg>
