<?xml version="1.0" encoding="utf-8"?>
<!-- Generator: Adobe Illustrator 18.1.1, SVG Export Plug-In . SVG Version: 6.00 Build 0)  -->
<!DOCTYPE svg PUBLIC "-//W3C//DTD SVG 1.1//EN" "http://www.w3.org/Graphics/SVG/1.1/DTD/svg11.dtd">
<svg version="1.1" id="AC_x5F_FAILURE" xmlns="http://www.w3.org/2000/svg" xmlns:xlink="http://www.w3.org/1999/xlink" x="0px"
	 y="0px" viewBox="0 0 50 50" enable-background="new 0 0 50 50" xml:space="preserve">
<g>
	<path fill="#253339" d="M21.7,23.3H11.5c-0.4,0-0.7-0.3-0.7-0.7s0.3-0.7,0.7-0.7h10.2c0.4,0,0.7,0.3,0.7,0.7S22.1,23.3,21.7,23.3z
		 M21.7,19.6H11.5c-0.4,0-0.7-0.3-0.7-0.7s0.3-0.7,0.7-0.7h10.2c0.4,0,0.7,0.3,0.7,0.7S22.1,19.6,21.7,19.6z M21.7,15.9H11.5
		c-0.4,0-0.7-0.3-0.7-0.7c0-0.4,0.3-0.7,0.7-0.7h10.2c0.4,0,0.7,0.3,0.7,0.7C22.4,15.6,22.1,15.9,21.7,15.9z"/>
</g>
<path fill="#253339" d="M47.5,45.7L39,37.2v-7.8c0-3.8,2.2-3.4,3-3.4h3.6c0.8,0,1.4-0.7,1.4-1.5S46.4,23,45.6,23H42
	c-3.6,0-6,2.4-6,6.4v4.9l-9-9c0.6-1.1,1-2.4,1-3.9V10.2C28,9.4,27.2,9,26.4,9H23V4.6c0-1.2-0.8-2.1-2-2.1c-1.2,0-2,1-2,2.1V9h-5V4.6
	c0-1.2-0.8-2.1-2-2.1s-2,1-2,2.1v3.7L4.4,2.6c-0.5-0.5-1.3-0.5-1.7,0c-0.5,0.5-0.5,1.3,0,1.7L7.2,9H6.8C6,9,5,9.4,5,10.2v11.2
	c0,5.2,4,8.3,10,8.6v10c0,2.7,2.9,7,7.1,7h9.7c2.3,0,6-1.1,6.9-6.3l7,6.8c0.2,0.2,0.6,0.3,0.9,0.3c0.3,0,0.6-0.1,0.9-0.4
	C47.9,47,47.9,46.2,47.5,45.7z M25,12v9.4c0,0.6-0.1,1.1-0.2,1.7L13.7,12H25z M8,21.4V12h2.2l13.2,13.2c-1.4,1.3-3.7,2-7,2
	C10.9,27.2,8,25.3,8,21.4z M36,38c0,5-2.2,6-4.1,6h-9.7c-2.6,0-4.1-2.9-4.1-4V30c3-0.2,5.7-1.2,7.4-2.7L36,37.8V38z"/>
</svg>
