<?xml version="1.0" encoding="utf-8"?>
<!-- Generator: Adobe Illustrator 18.1.1, SVG Export Plug-In . SVG Version: 6.00 Build 0)  -->
<!DOCTYPE svg PUBLIC "-//W3C//DTD SVG 1.1//EN" "http://www.w3.org/Graphics/SVG/1.1/DTD/svg11.dtd">
<svg version="1.1" id="Слой_1" xmlns="http://www.w3.org/2000/svg" xmlns:xlink="http://www.w3.org/1999/xlink" x="0px" y="0px"
	 viewBox="0 0 50 50" enable-background="new 0 0 50 50" xml:space="preserve">
<g>
	<path d="M16.9,35.4c-0.6,0-1.2-0.3-1.7-0.8c-0.4-0.5-0.7-1.2-0.6-1.8c0.8-5.8,0.8-9.8,0-15.6
		c-0.1-0.6,0.1-1.2,0.5-1.7c0.5-0.6,1.3-0.9,2-0.8c6.3,1,9.3,1,15.6,0c0.1,0,0.2,0,0.3,0c0.7,0,1.3,0.3,1.8,0.9
		c0.4,0.5,0.6,1.1,0.4,1.7c-1,6.1-1,9.4,0,15.5c0.1,0.6-0.1,1.2-0.5,1.7c-0.5,0.6-1.3,1-2,0.8c-3.3-0.6-5.6-0.9-7.8-0.9
		c-2.2,0-4.5,0.3-7.8,0.9C17.1,35.3,17,35.4,16.9,35.4z M16.9,16.7c0,0-0.1,0-0.2,0.1c0,0.1-0.1,0.1-0.1,0.1c0.9,6,0.9,10.1,0,16.1
		c0,0,0,0.1,0.1,0.2c0.1,0.1,0.1,0.1,0.2,0.1c3.4-0.6,5.8-0.9,8.1-0.9c2.3,0,4.7,0.3,8.1,0.9c0,0,0.2-0.2,0.2-0.3
		c-1.1-6.3-1.1-9.9,0-16.2c0-0.1-0.1-0.2-0.2-0.2c-3.2,0.5-5.7,0.7-8.1,0.7C22.6,17.4,20.1,17.2,16.9,16.7z"/>
</g>
<g>
	<path d="M25,22.6L25,22.6c0.5,0,0.9,0.4,0.9,0.9v3.1c0,0.5-0.4,0.9-0.9,0.9l0,0c-0.5,0-0.9-0.4-0.9-0.9v-3.1
		C24.1,23,24.5,22.6,25,22.6L25,22.6z"/>
</g>
<g id="ic_x5F_panel-wave">
	<g>
		<g>
			<path d="M11.6,46.4c-0.2,0-0.4-0.1-0.6-0.2C4.3,41.5,0.3,33.9,0.3,25.7c0-8.3,4.1-16,10.9-20.7
				c0.5-0.3,1.1-0.2,1.4,0.3c0.3,0.5,0.2,1.1-0.3,1.4c-6.3,4.3-10,11.4-10,19c0,7.5,3.7,14.5,9.8,18.8c0.5,0.3,0.6,0.9,0.2,1.4
				C12.2,46.2,11.9,46.4,11.6,46.4z"/>
		</g>
		<g>
			<path d="M11.5,38.4c-0.3,0-0.6-0.1-0.8-0.3c-3.2-3.8-4.9-8-4.9-12.3c0-4.2,1.6-8.3,4.6-11.9
				c0.4-0.4,1-0.5,1.4-0.1c0.4,0.4,0.5,1,0.1,1.4C9.3,18.3,7.8,22,7.8,25.7c0,3.8,1.5,7.7,4.4,11c0.4,0.4,0.3,1-0.1,1.4
				C12,38.4,11.8,38.4,11.5,38.4z"/>
		</g>
		<g>
			<path d="M38.4,46.4c-0.3,0-0.6-0.1-0.8-0.4c-0.3-0.5-0.2-1.1,0.2-1.4c6.2-4.3,9.8-11.3,9.8-18.8
				c0-7.6-3.8-14.7-10.1-19c-0.5-0.3-0.6-0.9-0.3-1.4c0.3-0.5,0.9-0.6,1.4-0.3c6.9,4.6,11,12.3,11,20.6c0,8.1-4,15.8-10.7,20.5
				C38.8,46.3,38.6,46.4,38.4,46.4z"/>
		</g>
		<g>
			<path d="M38.5,38.4c-0.2,0-0.5-0.1-0.7-0.2c-0.4-0.4-0.5-1-0.1-1.4c2.9-3.4,4.4-7.2,4.4-11
				c0-3.7-1.4-7.4-4.1-10.7c-0.4-0.4-0.3-1.1,0.1-1.4c0.4-0.4,1.1-0.3,1.4,0.1c3,3.6,4.6,7.7,4.6,11.9c0,4.3-1.7,8.6-4.9,12.3
				C39,38.3,38.8,38.4,38.5,38.4z"/>
		</g>
	</g>
</g>
</svg>
