<?xml version="1.0" encoding="utf-8"?>
<!-- Generator: Adobe Illustrator 18.1.1, SVG Export Plug-In . SVG Version: 6.00 Build 0)  -->
<!DOCTYPE svg PUBLIC "-//W3C//DTD SVG 1.1//EN" "http://www.w3.org/Graphics/SVG/1.1/DTD/svg11.dtd">
<svg version="1.1" id="Слой_1" xmlns="http://www.w3.org/2000/svg" xmlns:xlink="http://www.w3.org/1999/xlink" x="0px" y="0px"
	 viewBox="0 0 50 50" enable-background="new 0 0 50 50" xml:space="preserve">
<g id="ic_x5F_house">
	<g>
		<path fill="#253339" d="M40.2,49.6H9.8c-1.8,0-3.2-1.4-3.2-3.2V31.7H3.3c-0.8,0-1.5-0.3-2.1-0.8c-0.6-0.5-1-1.3-1.1-2.2
			c-0.1-0.9,0.2-1.7,0.8-2.3L6.4,20c0-0.1,0-0.2,0-0.2V10c0-1.8,1.4-3.2,3.2-3.2c1.8,0,3.2,1.4,3.2,3.2v2.7l9.5-11
			c0.5-0.8,1.5-1.2,2.5-1.2h0.4c1,0,1.8,0.4,2.4,1.1L49,26.3c0.6,0.6,0.9,1.4,0.9,2.2c0,1.8-1.4,3.2-3.2,3.2h-3.3v14.8
			C43.4,48.2,42,49.6,40.2,49.6z M9.6,8.8c-0.7,0-1.2,0.5-1.2,1.2v9.7c0,0.2,0,0.2,0,0.3c0.1,0.3,0,0.6-0.2,0.9l-5.8,6.8
			c-0.2,0.2-0.3,0.5-0.3,0.8c0,0.3,0.2,0.6,0.4,0.8c0.3,0.2,0.6,0.3,0.8,0.3h4.3c0.6,0,1,0.4,1,1v15.8c0,0.7,0.5,1.2,1.2,1.2h30.4
			c0.7,0,1.2-0.5,1.2-1.2V30.7c0-0.6,0.4-1,1-1h4.3c0.7,0,1.2-0.5,1.2-1.2c0-0.3-0.1-0.6-0.4-0.9L26.1,2.9c-0.2-0.3-0.5-0.4-0.9-0.4
			h-0.4c-0.4,0-0.8,0.1-1,0.5L12.5,16c-0.3,0.3-0.7,0.4-1.1,0.3c-0.4-0.1-0.7-0.5-0.7-0.9V10C10.8,9.4,10.3,8.8,9.6,8.8z"/>
	</g>
</g>
<g>
	<path fill="#253339" d="M14.1,21.6c-0.2-0.2-0.4-0.3-0.6-0.3c-0.2,0.1-0.4,0.1-0.6,0.3l-4.6,4.6c-0.2,0.1-0.3,0.3-0.3,0.5
		c0,0.4,0.3,0.6,0.6,0.6c0.1,0,0.2,0,0.3,0h0.6c1.2,0,2,0,2.7,0c-1.1,2.6-0.5,5.1,0.2,7.5c0.6,2.4,1.2,4.7,0.1,7.1
		c-0.2,0.5,0,1.1,0.5,1.3c0.1,0.1,0.3,0.1,0.4,0.1c0.4,0,0.7-0.2,0.9-0.6c1.4-3.1,0.7-5.9,0-8.4c-0.7-2.5-1.2-4.6,0-6.8
		c0-0.1,0-0.1,0.1-0.2c0.5,0,1.4,0,2.9,0h0.6c0.1,0,0.2,0,0.3,0c0.4,0,0.6-0.3,0.6-0.6c0-0.2-0.2-0.4-0.3-0.5L14.1,21.6z"/>
	<path fill="#253339" d="M25.6,21.6c-0.2-0.2-0.4-0.3-0.6-0.3c-0.2,0.1-0.4,0.1-0.6,0.3l-4.6,4.6c-0.2,0.1-0.3,0.3-0.3,0.5
		c0,0.4,0.3,0.6,0.6,0.6c0.1,0,0.2,0,0.3,0h0.6c1.2,0,2,0,2.7,0c-1.1,2.6-0.5,5.1,0.2,7.5c0.6,2.4,1.2,4.7,0.1,7.1
		c-0.2,0.5,0,1.1,0.5,1.3c0.1,0.1,0.3,0.1,0.4,0.1c0.4,0,0.7-0.2,0.9-0.6c1.4-3.1,0.7-5.9,0-8.4c-0.7-2.5-1.2-4.6,0-6.8
		c0-0.1,0-0.1,0.1-0.2c0.5,0,1.4,0,2.9,0h0.6c0.1,0,0.2,0,0.3,0c0.4,0,0.6-0.3,0.6-0.6c0-0.2-0.2-0.4-0.3-0.5L25.6,21.6z"/>
	<path fill="#253339" d="M41.6,26.1l-4.5-4.6c-0.2-0.2-0.4-0.3-0.6-0.3c-0.2,0.1-0.4,0.1-0.6,0.3l-4.6,4.6c-0.2,0.1-0.3,0.3-0.3,0.5
		c0,0.4,0.3,0.6,0.6,0.6c0.1,0,0.2,0,0.3,0h0.6c1.2,0,2,0,2.7,0c-1.1,2.6-0.5,5.1,0.2,7.5c0.6,2.4,1.2,4.7,0.1,7.1
		c-0.2,0.5,0,1.1,0.5,1.3c0.1,0.1,0.3,0.1,0.4,0.1c0.4,0,0.7-0.2,0.9-0.6c1.4-3.1,0.7-5.9,0-8.4c-0.7-2.5-1.2-4.6,0-6.8
		c0-0.1,0-0.1,0.1-0.2c0.5,0,1.4,0,2.9,0H41c0.1,0,0.2,0,0.3,0c0.4,0,0.6-0.3,0.6-0.6C41.9,26.4,41.7,26.2,41.6,26.1z"/>
</g>
</svg>
