<?xml version="1.0" encoding="utf-8"?>
<!-- Generator: Adobe Illustrator 17.0.0, SVG Export Plug-In . SVG Version: 6.00 Build 0)  -->
<!DOCTYPE svg PUBLIC "-//W3C//DTD SVG 1.1 Tiny//EN" "http://www.w3.org/Graphics/SVG/1.1/DTD/svg11-tiny.dtd">
<svg version="1.1" baseProfile="tiny" id="Слой_1" xmlns="http://www.w3.org/2000/svg" xmlns:xlink="http://www.w3.org/1999/xlink" x="0px" y="0px" viewBox="0 0 35 16" xml:space="preserve">
<path d="M26.931,9c-0.493,3.945-3.852,7-7.931,7s-7.438-3.055-7.931-7H2.821l4.685,4.318
	l-0.678,0.735L0,8l6.828-6.053l0.678,0.735L2.821,7h8.248C11.562,3.055,14.921,0,19,0s7.438,3.055,7.931,7H35v2H26.931z M19,1
	c-3.866,0-7,3.134-7,7s3.134,7,7,7s7-3.134,7-7S22.866,1,19,1z M19,12c-2.209,0-4-1.791-4-4s1.791-4,4-4s4,1.791,4,4
	S21.209,12,19,12z"/>
</svg>
