<?xml version="1.0" encoding="utf-8"?>
<!-- Generator: Adobe Illustrator 18.1.1, SVG Export Plug-In . SVG Version: 6.00 Build 0)  -->
<!DOCTYPE svg PUBLIC "-//W3C//DTD SVG 1.1//EN" "http://www.w3.org/Graphics/SVG/1.1/DTD/svg11.dtd">
<svg version="1.1" id="BBA_x5F_OFFLINE" xmlns="http://www.w3.org/2000/svg" xmlns:xlink="http://www.w3.org/1999/xlink" x="0px"
	 y="0px" viewBox="0 0 50 50" enable-background="new 0 0 50 50" xml:space="preserve">
<g>
	<linearGradient id="SVGID_1_" gradientUnits="userSpaceOnUse" x1="30.4" y1="41.95" x2="47.175" y2="41.95">
		<stop  offset="0" style="stop-color:#36A0FE"/>
		<stop  offset="1" style="stop-color:#1D7DD2"/>
	</linearGradient>
	<path fill="url(#SVGID_1_)" d="M46.8,41.1c-0.5-0.5-1.3-0.5-1.8,0l-2.4,2.5v-6.5c0-0.7-0.6-1.3-1.3-1.3h-9.6
		c-0.7,0-1.3,0.6-1.3,1.3c0,0.7,0.6,1.3,1.3,1.3H40v5.2l-2.4-2.4c-0.5-0.5-1.3-0.5-1.8,0s-0.5,1.3,0,1.8l4.7,4.7
		c0.2,0.3,0.6,0.4,0.9,0.4c0.3,0,0.6-0.2,0.8-0.6l4.6-4.6C47.3,42.4,47.3,41.6,46.8,41.1z"/>
	<linearGradient id="SVGID_2_" gradientUnits="userSpaceOnUse" x1="19.25" y1="37.325" x2="30.35" y2="37.325">
		<stop  offset="0" style="stop-color:#36A0FE"/>
		<stop  offset="1" style="stop-color:#1D7DD2"/>
	</linearGradient>
	<path fill="url(#SVGID_2_)" d="M29.9,32.2c-0.6-0.6-1.6-0.6-2.2,0l-2.9,2.9l-2.9-2.9c-0.6-0.6-1.6-0.6-2.2,0
		c-0.6,0.6-0.6,1.6,0,2.2l2.9,2.9l-2.9,2.9c-0.6,0.6-0.6,1.6,0,2.2c0.6,0.6,1.6,0.6,2.2,0l2.9-2.9l2.9,2.9c0.3,0.3,0.7,0.5,1.1,0.5
		c0.4,0,0.8-0.1,1.1-0.4c0.6-0.6,0.6-1.6,0-2.2L27,37.4l2.9-3C30.5,33.8,30.5,32.8,29.9,32.2z"/>
	<linearGradient id="SVGID_3_" gradientUnits="userSpaceOnUse" x1="1.7" y1="20.4" x2="20" y2="20.4">
		<stop  offset="0" style="stop-color:#36A0FE"/>
		<stop  offset="1" style="stop-color:#1D7DD2"/>
	</linearGradient>
	<path fill="url(#SVGID_3_)" d="M18,35.9h-6v-2.1h1.9c0.4,0,0.7-0.3,0.7-0.7v-1.3h2.1c1.8,0,3.3-1.5,3.3-3.3V14.8
		c0-1.8-1.5-3.3-3.3-3.3h-0.1V4.6c0-1.3-1-2.3-2.3-2.3H7.4c-1.3,0-2.3,1-2.3,2.3v6.9H5c-1.8,0-3.3,1.5-3.3,3.3v13.7
		c0,1.8,1.5,3.3,3.3,3.3h2.1v1.3c0,0.4,0.3,0.7,0.7,0.7h1.6v3.4c0,0.3,0.2,0.7,0.4,0.9c0.2,0.3,0.6,0.4,0.9,0.4h7.2
		c0.7,0,1.4-0.6,1.4-1.3S18.7,35.9,18,35.9z M6.7,4.6c0-0.4,0.3-0.7,0.6-0.7h0.4V8c0,0.4,0.3,0.7,0.7,0.7c0.5,0,0.8-0.3,0.9-0.7V3.9
		h0.8v4c0,0.5,0.4,0.8,0.8,0.8c0.4,0,0.7-0.3,0.8-0.7V3.9h0.8v4c0,0.5,0.4,0.8,0.8,0.8c0.4,0,0.7-0.3,0.8-0.7V3.9h0.2
		c0.4,0,0.7,0.3,0.7,0.7v6.9H6.7V4.6z M9.3,13.1h3v4.1L11,20.6h-0.4l-1.3-3.4V13.1z M3.3,28.5V14.8c0-0.9,0.8-1.7,1.7-1.7h0.9h1.8
		v4.3c0,0.1,0.1,0.2,0.1,0.3l1.5,3.8c0.2,0.4,0.6,0.7,1,0.7h1.1c0.4,0,0.8-0.3,0.9-0.7l1.5-3.8c0.1-0.1,0.1-0.2,0.1-0.3v-4.3h1.9
		h0.9c0.9,0,1.7,0.8,1.7,1.7v13.7c0,0.9-0.8,1.7-1.7,1.7H5C4.1,30.2,3.3,29.4,3.3,28.5z"/>
</g>
</svg>
