<?xml version="1.0" encoding="utf-8"?>
<!-- Generator: Adobe Illustrator 18.1.1, SVG Export Plug-In . SVG Version: 6.00 Build 0)  -->
<!DOCTYPE svg PUBLIC "-//W3C//DTD SVG 1.1//EN" "http://www.w3.org/Graphics/SVG/1.1/DTD/svg11.dtd">
<svg version="1.1" id="BBA_x5F_OFFLINE" xmlns="http://www.w3.org/2000/svg" xmlns:xlink="http://www.w3.org/1999/xlink" x="0px"
	 y="0px" viewBox="0 0 50 50" enable-background="new 0 0 50 50" xml:space="preserve">
<g>
	<path fill="#253339" d="M41.4,48.1L41.4,48.1c-0.3,0-0.7-0.1-0.9-0.4L35.8,43c-0.5-0.5-0.5-1.3,0-1.8s1.3-0.5,1.8,0l2.4,2.4v-5.2
		h-8.3c-0.7,0-1.3-0.6-1.3-1.3s0.6-1.3,1.3-1.3h9.6c0.7,0,1.3,0.6,1.3,1.3v6.5l2.4-2.5c0.5-0.5,1.3-0.5,1.8,0s0.5,1.3,0,1.8
		l-4.6,4.6C42,47.9,41.7,48.1,41.4,48.1z"/>
</g>
<g>
	<path fill="#253339" d="M28.8,42.9c-0.4,0-0.8-0.2-1.1-0.5l-2.9-2.9l-2.9,2.9c-0.6,0.6-1.6,0.6-2.2,0s-0.6-1.6,0-2.2l2.9-2.9
		l-2.9-2.9c-0.6-0.6-0.6-1.6,0-2.2c0.6-0.6,1.6-0.6,2.2,0l2.9,2.9l2.9-2.9c0.6-0.6,1.6-0.6,2.2,0c0.6,0.6,0.6,1.6,0,2.2l-2.9,3
		l2.9,2.9c0.6,0.6,0.6,1.6,0,2.2C29.6,42.8,29.2,42.9,28.8,42.9z"/>
</g>
<path fill="#253339" d="M13.9,33.8c0.4,0,0.7-0.3,0.7-0.7v-1.3h2.1c1.8,0,3.3-1.5,3.3-3.3V14.8c0-1.8-1.5-3.3-3.3-3.3h-0.1V4.6
	c0-1.3-1-2.3-2.3-2.3H7.4c-1.3,0-2.3,1-2.3,2.3v6.9H5c-1.8,0-3.3,1.5-3.3,3.3v13.7c0,1.8,1.5,3.3,3.3,3.3h2.1v1.3
	c0,0.4,0.3,0.7,0.7,0.7h1.6v3.4c0,0.3,0.2,0.7,0.4,0.9c0.2,0.3,0.6,0.4,0.9,0.4h7.2c0.7,0,1.4-0.6,1.4-1.3s-0.6-1.3-1.3-1.3h-6v-2.1
	H13.9z M6.7,4.6c0-0.4,0.3-0.7,0.6-0.7h0.4V8c0,0.4,0.3,0.7,0.7,0.7c0.5,0,0.8-0.3,0.9-0.7V3.9h0.8v4c0,0.5,0.4,0.8,0.8,0.8
	c0.4,0,0.7-0.3,0.8-0.7V3.9h0.8v4c0,0.5,0.4,0.8,0.8,0.8c0.4,0,0.7-0.3,0.8-0.7V3.9h0.2c0.4,0,0.7,0.3,0.7,0.7v6.9H6.7V4.6z
	 M12.3,13.1v4.1L11,20.6h-0.4l-1.3-3.4v-4.1H12.3z M5,30.2c-0.9,0-1.7-0.8-1.7-1.7V14.8c0-0.9,0.8-1.7,1.7-1.7h0.9h1.8v4.3
	c0,0.1,0.1,0.2,0.1,0.3l1.5,3.8c0.2,0.4,0.6,0.7,1,0.7h1.1c0.4,0,0.8-0.3,0.9-0.7l1.5-3.8c0.1-0.1,0.1-0.2,0.1-0.3v-4.3h1.9h0.9
	c0.9,0,1.7,0.8,1.7,1.7v13.7c0,0.9-0.8,1.7-1.7,1.7H5z"/>
</svg>
