<?xml version="1.0" encoding="utf-8"?>
<!-- Generator: Adobe Illustrator 18.1.1, SVG Export Plug-In . SVG Version: 6.00 Build 0)  -->
<!DOCTYPE svg PUBLIC "-//W3C//DTD SVG 1.1//EN" "http://www.w3.org/Graphics/SVG/1.1/DTD/svg11.dtd">
<svg version="1.1" id="COLD_x5F_ALERT" xmlns="http://www.w3.org/2000/svg" xmlns:xlink="http://www.w3.org/1999/xlink" x="0px"
	 y="0px" viewBox="0 0 50 50" enable-background="new 0 0 50 50" xml:space="preserve">
<linearGradient id="SVGID_1_" gradientUnits="userSpaceOnUse" x1="9.4976" y1="34.65" x2="22.7" y2="34.65">
	<stop  offset="0" style="stop-color:#36A0FE"/>
	<stop  offset="1" style="stop-color:#1D7DD2"/>
</linearGradient>
<path fill="url(#SVGID_1_)" d="M17.5,31.7v-5.8c0-0.8-0.6-1.4-1.4-1.4c-0.8,0-1.4,0.6-1.4,1.4v5.8c-3,0.6-5.3,3.3-5.2,6.5
	c0,3.6,2.9,6.6,6.6,6.6c3.6,0,6.6-2.9,6.6-6.6C22.7,35.1,20.5,32.4,17.5,31.7z"/>
<linearGradient id="SVGID_2_" gradientUnits="userSpaceOnUse" x1="4.3" y1="25.65" x2="27.8" y2="25.65">
	<stop  offset="0" style="stop-color:#36A0FE"/>
	<stop  offset="1" style="stop-color:#1D7DD2"/>
</linearGradient>
<path fill="url(#SVGID_2_)" d="M22,28.1V7.2c0-3.2-2.7-5.9-6-5.9s-5.9,2.6-5.9,5.9v20.9c-3.6,2.1-5.8,6-5.8,10.2
	C4.3,44.7,9.6,50,16.1,50c6.4,0,11.7-5.3,11.7-11.7C27.8,34,25.6,30.2,22,28.1z M16.1,47.4c-5,0-9.1-4.1-9.1-9.1
	c0-3.5,1.9-6.7,5.2-8.2c0.4-0.2,0.7-0.7,0.7-1.2V7.2c0-1.7,1.4-3.2,3.2-3.2c1.8,0,3.2,1.4,3.3,3.2v1.3h-2.9c-0.4,0-0.7,0.3-0.7,0.7
	c0,0.4,0.3,0.7,0.7,0.7h2.9v2.6h-2.9c-0.4,0-0.7,0.3-0.7,0.7c0,0.4,0.3,0.7,0.7,0.7h2.9v2.6h-2.9c-0.4,0-0.7,0.3-0.7,0.7
	c0,0.4,0.3,0.7,0.7,0.7h2.9v11c0,0.5,0.2,1,0.7,1.2c3.1,1.6,5.1,4.7,5.1,8.2C25.2,43.3,21.1,47.4,16.1,47.4z"/>
<g>
	<linearGradient id="SVGID_3_" gradientUnits="userSpaceOnUse" x1="30.6866" y1="13.65" x2="46.15" y2="13.65">
		<stop  offset="0" style="stop-color:#36A0FE"/>
		<stop  offset="1" style="stop-color:#1D7DD2"/>
	</linearGradient>
	<path fill="url(#SVGID_3_)" d="M37.4,25c0.3,0.2,0.6,0.4,1,0.4c0.4,0,0.8-0.2,1-0.4l6.3-6.3c0.6-0.6,0.6-1.4,0-2
		c-0.6-0.6-1.4-0.6-2,0l-3.9,3.9V3.3c0-0.8-0.6-1.4-1.4-1.4c-0.8,0-1.4,0.6-1.4,1.4v17.3l-3.9-3.9c-0.5-0.5-1.4-0.6-2,0
		c-0.5,0.5-0.6,1.4,0,2L37.4,25z"/>
	<linearGradient id="SVGID_4_" gradientUnits="userSpaceOnUse" x1="30.7" y1="28.6" x2="46.1" y2="28.6">
		<stop  offset="0" style="stop-color:#36A0FE"/>
		<stop  offset="1" style="stop-color:#1D7DD2"/>
	</linearGradient>
	<path fill="url(#SVGID_4_)" d="M44.7,27.2H32.1c-0.8,0-1.4,0.6-1.4,1.4c0,0.8,0.6,1.4,1.4,1.4h12.7c0.7,0,1.3-0.6,1.3-1.4
		C46.1,27.8,45.5,27.2,44.7,27.2z"/>
</g>
</svg>
