<?xml version="1.0" encoding="utf-8"?>
<!-- Generator: Adobe Illustrator 18.1.1, SVG Export Plug-In . SVG Version: 6.00 Build 0)  -->
<!DOCTYPE svg PUBLIC "-//W3C//DTD SVG 1.1//EN" "http://www.w3.org/Graphics/SVG/1.1/DTD/svg11.dtd">
<svg version="1.1" id="Слой_1" xmlns="http://www.w3.org/2000/svg" xmlns:xlink="http://www.w3.org/1999/xlink" x="0px" y="0px"
	 viewBox="0 0 50 50" enable-background="new 0 0 50 50" xml:space="preserve">
<g>
	<g id="ic_x5F_lock">
		<g>
			
				<linearGradient id="SVGID_1_" gradientUnits="userSpaceOnUse" x1="-1629.9756" y1="286.3373" x2="-1157.5868" y2="286.3373" gradientTransform="matrix(6.297229e-002 0 0 6.297229e-002 112.4433 0.8187)">
				<stop  offset="0" style="stop-color:#36A0FE"/>
				<stop  offset="1" style="stop-color:#1D7DD2"/>
			</linearGradient>
			<path fill="url(#SVGID_1_)" d="M36.1,36.5H13.2c-1.9,0-3.4-1.5-3.4-3.4V18.5c0-0.8,0.3-1.7,0.9-2.3c0.7-0.7,1.6-1.1,2.5-1.1h1.3
				v-3.7c0-2.7,1.1-5.3,3-7.2s4.5-3,7.2-3s5.3,1.1,7.2,3s3,4.5,3,7.2v3.7h1.3c1.9,0,3.4,1.5,3.4,3.4v14.6C39.6,35,38,36.5,36.1,36.5
				z M13.2,17.1c-0.4,0-0.8,0.2-1,0.5c-0.3,0.3-0.4,0.6-0.4,0.9v14.6c0,0.8,0.6,1.4,1.4,1.4h22.9c0.8,0,1.4-0.6,1.4-1.4V18.5
				c0-0.8-0.6-1.4-1.4-1.4h-3.3v-5.7c0-2.2-0.9-4.2-2.4-5.8c-1.5-1.5-3.6-2.4-5.8-2.4s-4.2,0.9-5.8,2.4c-1.5,1.5-2.4,3.6-2.4,5.8
				v5.7H13.2z"/>
		</g>
		<g>
			
				<linearGradient id="SVGID_2_" gradientUnits="userSpaceOnUse" x1="-1484.7991" y1="168.0313" x2="-1302.7139" y2="168.0313" gradientTransform="matrix(6.297229e-002 0 0 6.297229e-002 112.4433 0.8187)">
				<stop  offset="0" style="stop-color:#36A0FE"/>
				<stop  offset="1" style="stop-color:#1D7DD2"/>
			</linearGradient>
			<path fill="url(#SVGID_2_)" d="M19,17.5v-6.4c0-1.5,0.6-3,1.7-4.1s2.5-1.7,4.1-1.7c1.5,0,3,0.6,4.1,1.7s1.7,2.5,1.7,4.1v6.4H19z
				 M21,15.4h7.4V11c0-1-0.4-1.9-1.1-2.6C25.9,7,23.4,7,22,8.4c-0.7,0.7-1.1,1.6-1.1,2.6v4.4H21z"/>
		</g>
	</g>
	<g id="ic_x5F_lock-elem-2">
		
			<linearGradient id="SVGID_3_" gradientUnits="userSpaceOnUse" x1="-1430.3" y1="397.4973" x2="-1356.9" y2="397.4973" gradientTransform="matrix(6.297229e-002 0 0 6.297229e-002 112.4433 0.8187)">
			<stop  offset="0" style="stop-color:#36A0FE"/>
			<stop  offset="1" style="stop-color:#1D7DD2"/>
		</linearGradient>
		<path fill="url(#SVGID_3_)" d="M24.7,21.3c1.3,0,2.3,1,2.3,2.3c0,0.8-0.4,1.5-1,1.9l0.6,4.4c0.1,0.2-0.2,0.5-0.5,0.5h-1.4h-0.1
			h-1.4c-0.3,0-0.5-0.2-0.5-0.5l0.6-4.4c-0.6-0.4-1-1.1-1-1.9C22.4,22.3,23.4,21.3,24.7,21.3L24.7,21.3z"/>
	</g>
	<g id="ic_x5F_lock-elem-1">
		
			<linearGradient id="SVGID_4_" gradientUnits="userSpaceOnUse" x1="-1770.2001" y1="673.0153" x2="-1621.0001" y2="673.0153" gradientTransform="matrix(6.297229e-002 0 0 6.297229e-002 112.4433 0.8187)">
			<stop  offset="0" style="stop-color:#36A0FE"/>
			<stop  offset="1" style="stop-color:#1D7DD2"/>
		</linearGradient>
		<path fill="url(#SVGID_4_)" d="M5.6,45.2c-0.2,0.4-0.5,0.9-0.8,1.4c-0.1,0.2-0.3,0.5-0.6,0.8c-0.2,0.2-0.5,0.3-0.8,0.3
			s-0.6-0.1-0.9-0.4c-0.2-0.2-0.3-0.5-0.3-0.8c0-0.2,0.1-0.4,0.1-0.6c0.5-0.7,1-1.3,1.6-1.9c-0.3-0.1-0.6-0.1-1-0.2
			c-0.5-0.1-1-0.3-1.5-0.5l0,0l0,0c-0.2-0.1-0.3-0.2-0.4-0.4c0-0.2,0-0.4,0-0.6c0-0.3,0.1-0.6,0.4-0.8c0.2-0.2,0.5-0.3,0.8-0.3
			c0.2,0,0.5,0.1,0.7,0.1c0.3,0.1,0.6,0.3,1,0.4c0.2,0.1,0.5,0.2,0.7,0.4c-0.1-0.3-0.1-0.6-0.1-0.9c-0.1-0.4-0.1-0.8-0.1-1.2
			c0-0.3,0.1-0.6,0.3-0.9c0.2-0.2,0.5-0.4,0.9-0.4c0.3,0,0.6,0.1,0.9,0.4c0.2,0.2,0.3,0.6,0.3,0.9c0,0.2,0,0.3-0.1,0.5
			c-0.1,0.3-0.1,0.6-0.1,0.9c-0.1,0.2-0.1,0.4-0.1,0.6c0.2-0.1,0.5-0.2,0.7-0.4c0.3-0.1,0.7-0.3,1-0.5c0.4,0,0.7-0.1,0.9-0.1
			c0.3,0,0.6,0.1,0.8,0.3s0.4,0.5,0.4,0.8c0,0.2-0.1,0.4-0.2,0.6C10,42.9,9.9,43,9.7,43.1c-0.8,0.3-1.6,0.5-2.4,0.7
			c0.1,0.1,0.2,0.2,0.3,0.3c0.1,0.1,0.4,0.4,0.5,0.5c0.1,0.2,0.3,0.3,0.4,0.5c0.1,0.1,0.3,0.3,0.4,0.5C9,45.8,9,46,9,46.2
			c0,0.3-0.1,0.6-0.3,0.8c-0.3,0.2-0.6,0.3-0.9,0.3c-0.5,0-0.9-0.4-1.1-0.7C6.3,46.4,5.9,45.8,5.6,45.2L5.6,45.2z"/>
		
			<linearGradient id="SVGID_5_" gradientUnits="userSpaceOnUse" x1="-1566.3" y1="674.6033" x2="-1417.1001" y2="674.6033" gradientTransform="matrix(6.297229e-002 0 0 6.297229e-002 112.4433 0.8187)">
			<stop  offset="0" style="stop-color:#36A0FE"/>
			<stop  offset="1" style="stop-color:#1D7DD2"/>
		</linearGradient>
		<path fill="url(#SVGID_5_)" d="M18.5,45.2c-0.2,0.4-0.5,0.9-0.8,1.4c-0.1,0.2-0.3,0.5-0.6,0.8c-0.2,0.2-0.5,0.3-0.8,0.3
			s-0.6-0.1-0.9-0.4c-0.2-0.2-0.3-0.5-0.3-0.8c0-0.2,0.1-0.4,0.1-0.6c0.5-0.6,1-1.3,1.6-1.9c-0.3-0.1-0.6-0.1-1-0.2
			c-0.5-0.1-1-0.3-1.5-0.5l0,0l0,0c-0.2-0.1-0.3-0.2-0.4-0.4c-0.1-0.2-0.1-0.3-0.1-0.5c0-0.3,0.1-0.6,0.4-0.8
			c0.2-0.2,0.5-0.3,0.8-0.3c0.2,0,0.5,0.1,0.7,0.2c0.3,0.1,0.6,0.3,1,0.4c0.2,0.1,0.5,0.2,0.7,0.4c-0.1-0.3-0.1-0.6-0.1-0.9
			c-0.1-0.4-0.1-0.8-0.1-1.2c0-0.3,0.1-0.6,0.3-0.9s0.5-0.4,0.9-0.4s0.6,0.1,0.9,0.4c0.2,0.2,0.3,0.6,0.3,0.9c0,0.2,0,0.3-0.1,0.5
			c-0.1,0.3-0.1,0.6-0.1,0.9c-0.1,0.2-0.1,0.4-0.1,0.6c0.2-0.1,0.5-0.2,0.7-0.4c0.3-0.1,0.7-0.3,1-0.5c0.2-0.1,0.5-0.1,0.7-0.1
			c0.3,0,0.6,0.1,0.8,0.3c0.2,0.2,0.4,0.5,0.4,0.8c0,0.2-0.1,0.4-0.2,0.6c-0.1,0.2-0.2,0.3-0.4,0.4c-0.8,0.3-1.6,0.5-2.4,0.7
			c0.1,0.1,0.2,0.2,0.3,0.3c0.1,0.1,0.4,0.4,0.5,0.5c0.1,0.2,0.3,0.3,0.4,0.5c0.1,0.1,0.3,0.3,0.4,0.5s0.1,0.4,0.1,0.6
			c0,0.3-0.1,0.6-0.3,0.8s-0.5,0.3-0.9,0.3c-0.5,0-0.9-0.4-1.1-0.7C19.2,46.4,18.9,45.8,18.5,45.2L18.5,45.2z"/>
		
			<linearGradient id="SVGID_6_" gradientUnits="userSpaceOnUse" x1="-1360.9" y1="674.6033" x2="-1211.7" y2="674.6033" gradientTransform="matrix(6.297229e-002 0 0 6.297229e-002 112.4433 0.8187)">
			<stop  offset="0" style="stop-color:#36A0FE"/>
			<stop  offset="1" style="stop-color:#1D7DD2"/>
		</linearGradient>
		<path fill="url(#SVGID_6_)" d="M31.5,45.2c-0.2,0.4-0.5,0.9-0.8,1.4c-0.1,0.2-0.3,0.5-0.6,0.8c-0.2,0.2-0.5,0.3-0.8,0.3
			s-0.6-0.1-0.9-0.4c-0.2-0.2-0.3-0.5-0.3-0.8c0-0.2,0.1-0.4,0.1-0.6c0.5-0.6,1-1.3,1.6-1.9c-0.3-0.1-0.6-0.1-1-0.2
			c-0.5-0.1-1-0.3-1.5-0.5l0,0l0,0c-0.2-0.1-0.3-0.2-0.4-0.4s-0.1-0.3-0.1-0.5c0-0.3,0.1-0.6,0.4-0.8c0.2-0.2,0.5-0.3,0.8-0.3
			c0.2,0,0.5,0.1,0.7,0.2c0.3,0.1,0.6,0.3,1,0.4c0.2,0.1,0.5,0.2,0.7,0.4c-0.1-0.3-0.1-0.6-0.1-0.9c-0.1-0.4-0.1-0.8-0.1-1.2
			c0-0.3,0.1-0.6,0.3-0.9c0.2-0.2,0.5-0.4,0.9-0.4s0.6,0.1,0.9,0.4c0.2,0.2,0.3,0.6,0.3,0.9c0,0.2,0,0.3-0.1,0.5
			c-0.1,0.3-0.1,0.6-0.1,0.9c-0.1,0.2-0.1,0.4-0.1,0.6c0.2-0.1,0.5-0.2,0.7-0.4c0.3-0.1,0.7-0.3,1-0.5c0.2-0.1,0.5-0.1,0.7-0.1
			c0.3,0,0.6,0.1,0.8,0.3s0.4,0.5,0.4,0.8c0,0.2-0.1,0.4-0.2,0.6c-0.1,0.2-0.2,0.3-0.4,0.4c-0.8,0.3-1.6,0.5-2.4,0.7
			c0.1,0.1,0.2,0.2,0.3,0.3s0.4,0.4,0.5,0.5c0.1,0.2,0.3,0.3,0.4,0.5c0.1,0.1,0.3,0.3,0.4,0.5c0.1,0.2,0.1,0.4,0.1,0.6
			c0,0.3-0.1,0.6-0.3,0.8s-0.5,0.3-0.9,0.3c-0.5,0-0.9-0.4-1.1-0.7C32.1,46.4,31.8,45.8,31.5,45.2L31.5,45.2z"/>
		
			<linearGradient id="SVGID_7_" gradientUnits="userSpaceOnUse" x1="-1156.2001" y1="674.6033" x2="-1006.9999" y2="674.6033" gradientTransform="matrix(6.297229e-002 0 0 6.297229e-002 112.4433 0.8187)">
			<stop  offset="0" style="stop-color:#36A0FE"/>
			<stop  offset="1" style="stop-color:#1D7DD2"/>
		</linearGradient>
		<path fill="url(#SVGID_7_)" d="M44.4,45.2c-0.2,0.4-0.5,0.9-0.8,1.4c-0.1,0.2-0.3,0.5-0.6,0.8c-0.2,0.2-0.5,0.3-0.8,0.3
			s-0.6-0.1-0.9-0.4c-0.2-0.2-0.3-0.5-0.3-0.8c0-0.2,0.1-0.4,0.1-0.6c0.5-0.6,1-1.3,1.6-1.9c-0.3-0.1-0.6-0.1-1-0.2
			c-0.5-0.1-1-0.3-1.5-0.5l0,0l0,0c-0.2-0.1-0.3-0.2-0.4-0.4c-0.1-0.2-0.1-0.3-0.1-0.5c0-0.3,0.1-0.6,0.4-0.8
			c0.2-0.2,0.5-0.3,0.8-0.3c0.2,0,0.5,0.1,0.7,0.2c0.3,0.1,0.6,0.3,1,0.4c0.2,0.1,0.5,0.2,0.7,0.4c-0.1-0.3-0.1-0.6-0.1-0.9
			c-0.1-0.4-0.1-0.8-0.1-1.2c0-0.3,0.1-0.6,0.3-0.9s0.5-0.4,0.9-0.4s0.6,0.1,0.9,0.4c0.2,0.2,0.3,0.6,0.3,0.9c0,0.2,0,0.3-0.1,0.5
			c-0.1,0.3-0.1,0.6-0.1,0.9c-0.1,0.2-0.1,0.4-0.1,0.6c0.2-0.1,0.5-0.2,0.7-0.4c0.3-0.1,0.7-0.3,1-0.5c0.2-0.1,0.5-0.1,0.7-0.1
			c0.3,0,0.6,0.1,0.8,0.3S49,42,49,42.3c0,0.2-0.1,0.4-0.2,0.6c-0.1,0.2-0.2,0.3-0.4,0.4c-0.8,0.3-1.6,0.5-2.4,0.7
			c0.1,0.1,0.2,0.2,0.3,0.3s0.4,0.4,0.5,0.5c0.1,0.2,0.3,0.3,0.4,0.5c0.1,0.1,0.3,0.3,0.4,0.5c0.1,0.2,0.1,0.4,0.1,0.6
			c0,0.3-0.1,0.6-0.3,0.8c-0.2,0.1-0.5,0.2-0.9,0.2c-0.5,0-0.9-0.4-1.1-0.7C45.1,46.4,44.7,45.8,44.4,45.2L44.4,45.2z"/>
	</g>
</g>
</svg>
