<?xml version="1.0" encoding="utf-8"?>
<!-- Generator: Adobe Illustrator 18.1.1, SVG Export Plug-In . SVG Version: 6.00 Build 0)  -->
<!DOCTYPE svg PUBLIC "-//W3C//DTD SVG 1.1//EN" "http://www.w3.org/Graphics/SVG/1.1/DTD/svg11.dtd">
<svg version="1.1" id="Слой_1" xmlns="http://www.w3.org/2000/svg" xmlns:xlink="http://www.w3.org/1999/xlink" x="0px" y="0px"
	 viewBox="0 0 50 50" enable-background="new 0 0 50 50" xml:space="preserve">
<g id="ic_x5F_lock">
	<g>
		<path fill="#253339" d="M36.9,37.8H13.1c-1.9,0-3.5-1.6-3.5-3.5V19.2c0-0.8,0.3-1.7,1-2.4c0.7-0.7,1.6-1.1,2.5-1.1h1.3v-3.8
			c0-2.8,1.1-5.4,3.1-7.4c2-2,4.6-3.1,7.4-3.1c2.8,0,5.4,1.1,7.4,3.1c2,2,3.1,4.6,3.1,7.4v3.8h1.3c1.9,0,3.5,1.6,3.5,3.5v15.1
			C40.3,36.3,38.8,37.8,36.9,37.8z M13.1,17.7c-0.4,0-0.8,0.2-1.1,0.5c-0.3,0.3-0.4,0.6-0.4,1l0,15.1c0,0.8,0.7,1.5,1.5,1.5h23.7
			c0.8,0,1.5-0.7,1.5-1.5V19.2c0-0.8-0.7-1.5-1.5-1.5h-2.3c-0.6,0-1-0.4-1-1v-4.8c0-2.3-0.9-4.4-2.5-6c-1.6-1.6-3.7-2.5-6-2.5
			c-2.3,0-4.4,0.9-6,2.5c-1.6,1.6-2.5,3.7-2.5,6v4.8c0,0.6-0.4,1-1,1H13.1z"/>
	</g>
	<g>
		<path fill="#253339" d="M29.9,18.1h-9.8c-0.6,0-1-0.4-1-1c0-0.1,0-0.2,0.1-0.3v-5.2c0-1.6,0.6-3.1,1.7-4.2
			c1.1-1.1,2.6-1.7,4.2-1.7c1.6,0,3.1,0.6,4.2,1.7c1.1,1.1,1.7,2.6,1.7,4.2v5.5C30.9,17.6,30.4,18.1,29.9,18.1z M21.1,16.1h7.8v-4.5
			c0-1-0.4-2-1.1-2.8C27,8.1,26,7.7,25,7.7s-2,0.4-2.8,1.1c-0.7,0.7-1.1,1.7-1.1,2.8V16.1z"/>
	</g>
</g>
<g id="ic_x5F_lock-elem-2">
	<path fill="#253339" d="M25,22.1c1.3,0,2.4,1.1,2.4,2.4c0,0.8-0.4,1.5-1,2L27,31c0.1,0.3-0.3,0.5-0.5,0.5h-1.4h-0.1h-1.4
		c-0.3,0-0.6-0.3-0.5-0.5l0.6-4.6c-0.6-0.5-1-1.2-1-2C22.6,23.2,23.7,22.1,25,22.1L25,22.1z"/>
</g>
<g id="ic_x5F_lock-elem-1">
	<path fill="#253339" d="M5,46.8c-0.3,0.5-0.5,1-0.8,1.4C4,48.5,3.8,48.8,3.5,49c-0.3,0.2-0.5,0.4-0.8,0.4c-0.4,0-0.7-0.1-0.9-0.4
		c-0.2-0.2-0.4-0.5-0.4-0.8c0-0.2,0.1-0.5,0.2-0.7c0.6-0.7,1.1-1.3,1.7-1.9c-0.4-0.1-0.7-0.2-1-0.2c-0.6-0.2-1.1-0.3-1.6-0.5l0,0
		l0,0c-0.2-0.1-0.3-0.3-0.4-0.5c-0.1-0.2-0.2-0.4-0.2-0.6c0-0.4,0.2-0.7,0.4-0.9c0.3-0.2,0.5-0.4,0.9-0.4c0.3,0,0.5,0.1,0.8,0.2
		c0.4,0.2,0.7,0.3,1,0.5c0.3,0.2,0.5,0.3,0.8,0.4c-0.1-0.3-0.1-0.6-0.1-1c-0.1-0.4-0.1-0.9-0.1-1.3c0-0.4,0.1-0.7,0.4-0.9
		C4.3,40.2,4.7,40,5,40c0.4,0,0.7,0.2,0.9,0.4c0.3,0.3,0.4,0.6,0.4,1c0,0.2,0,0.4-0.1,0.6c-0.1,0.3-0.1,0.6-0.1,1
		c-0.1,0.2-0.1,0.5-0.1,0.7c0.3-0.1,0.5-0.3,0.8-0.4c0.4-0.2,0.7-0.4,1.1-0.5c0.2-0.1,0.5-0.2,0.7-0.2c0.4,0,0.6,0.1,0.9,0.4
		c0.3,0.3,0.4,0.6,0.4,0.9c0,0.2-0.1,0.4-0.2,0.6c-0.1,0.2-0.3,0.4-0.5,0.5c-0.8,0.3-1.6,0.6-2.5,0.7c0.1,0.1,0.2,0.2,0.3,0.3
		c0.2,0.2,0.4,0.4,0.5,0.6c0.2,0.2,0.3,0.4,0.5,0.6c0.2,0.2,0.3,0.4,0.5,0.6c0.1,0.2,0.2,0.4,0.2,0.7c0,0.3-0.1,0.6-0.4,0.9
		c-0.3,0.2-0.6,0.3-1,0.3c-0.5,0-0.9-0.4-1.2-0.8C5.7,48.1,5.3,47.4,5,46.8L5,46.8z"/>
	<path fill="#253339" d="M18.3,46.8c-0.3,0.5-0.5,1-0.8,1.4c-0.2,0.3-0.4,0.6-0.6,0.8c-0.3,0.2-0.5,0.4-0.8,0.4
		c-0.4,0-0.7-0.1-0.9-0.4c-0.2-0.2-0.4-0.5-0.4-0.8c0-0.2,0.1-0.5,0.2-0.7c0.5-0.7,1.1-1.3,1.6-1.9c-0.4-0.1-0.7-0.2-1-0.2
		c-0.6-0.2-1.1-0.3-1.6-0.5l0,0l0,0c-0.2-0.1-0.3-0.3-0.4-0.5c-0.1-0.2-0.2-0.4-0.2-0.6c0-0.4,0.2-0.7,0.4-0.9
		c0.3-0.2,0.5-0.4,0.9-0.4c0.3,0,0.6,0.1,0.8,0.2c0.4,0.2,0.7,0.3,1,0.5c0.3,0.2,0.5,0.3,0.8,0.4c-0.1-0.3-0.1-0.6-0.1-1
		c-0.1-0.4-0.1-0.9-0.1-1.3c0-0.4,0.1-0.7,0.4-0.9c0.3-0.3,0.6-0.4,0.9-0.4c0.4,0,0.7,0.2,0.9,0.4s0.4,0.6,0.4,1
		c0,0.2,0,0.4-0.1,0.6c-0.1,0.3-0.1,0.6-0.1,1c-0.1,0.2-0.1,0.5-0.1,0.7c0.3-0.1,0.5-0.3,0.8-0.4c0.4-0.2,0.7-0.4,1.1-0.5
		c0.2-0.1,0.5-0.2,0.7-0.2c0.4,0,0.6,0.1,0.9,0.4c0.3,0.3,0.4,0.6,0.4,0.9c0,0.2-0.1,0.4-0.2,0.6c-0.1,0.2-0.3,0.4-0.5,0.5
		c-0.8,0.3-1.6,0.6-2.5,0.7c0.1,0.1,0.2,0.2,0.3,0.3c0.2,0.2,0.4,0.4,0.5,0.6c0.2,0.2,0.3,0.4,0.5,0.6c0.2,0.2,0.3,0.4,0.5,0.6
		c0.1,0.2,0.2,0.4,0.2,0.7c0,0.3-0.1,0.6-0.4,0.9s-0.6,0.4-0.9,0.4c-0.5,0-0.9-0.4-1.2-0.8C19,48.1,18.6,47.4,18.3,46.8L18.3,46.8z"
		/>
	<path fill="#253339" d="M31.7,46.8c-0.3,0.5-0.5,1-0.8,1.4c-0.2,0.3-0.4,0.6-0.6,0.8c-0.3,0.2-0.5,0.4-0.8,0.4
		c-0.4,0-0.7-0.1-0.9-0.4c-0.2-0.2-0.4-0.5-0.4-0.8c0-0.2,0.1-0.5,0.2-0.7c0.5-0.7,1.1-1.3,1.6-1.9c-0.4-0.1-0.7-0.2-1-0.2
		c-0.6-0.2-1.1-0.3-1.6-0.5l0,0l0,0c-0.2-0.1-0.3-0.3-0.4-0.5c-0.1-0.2-0.2-0.4-0.2-0.6c0-0.4,0.2-0.7,0.4-0.9s0.5-0.4,0.9-0.4
		c0.3,0,0.6,0.1,0.8,0.2c0.4,0.2,0.7,0.3,1,0.5c0.3,0.2,0.5,0.3,0.8,0.4c-0.1-0.3-0.1-0.6-0.1-1c-0.1-0.4-0.1-0.9-0.1-1.3
		c0-0.4,0.1-0.7,0.4-0.9c0.3-0.3,0.6-0.4,0.9-0.4s0.7,0.2,0.9,0.4c0.3,0.3,0.4,0.6,0.4,1c0,0.2,0,0.4-0.1,0.6
		c-0.1,0.3-0.1,0.6-0.1,1c-0.1,0.2-0.1,0.5-0.1,0.7c0.3-0.1,0.5-0.3,0.8-0.4c0.4-0.2,0.7-0.4,1.1-0.5c0.2-0.1,0.5-0.2,0.7-0.2
		c0.4,0,0.6,0.1,0.9,0.4c0.3,0.3,0.4,0.6,0.4,0.9c0,0.2-0.1,0.4-0.2,0.6c-0.1,0.2-0.3,0.4-0.5,0.5c-0.8,0.3-1.6,0.6-2.5,0.7
		c0.1,0.1,0.2,0.2,0.3,0.3c0.2,0.2,0.4,0.4,0.5,0.6c0.2,0.2,0.3,0.4,0.5,0.6c0.2,0.2,0.3,0.4,0.5,0.6c0.1,0.2,0.2,0.4,0.2,0.7
		c0,0.3-0.1,0.6-0.4,0.9s-0.6,0.4-0.9,0.4c-0.5,0-0.9-0.4-1.2-0.8C32.3,48.1,32,47.4,31.7,46.8L31.7,46.8z"/>
	<path fill="#253339" d="M45,46.8c-0.3,0.5-0.5,1-0.8,1.4c-0.2,0.3-0.4,0.6-0.6,0.8c-0.3,0.2-0.5,0.4-0.8,0.4
		c-0.4,0-0.7-0.1-0.9-0.4c-0.2-0.2-0.4-0.5-0.4-0.8c0-0.2,0.1-0.5,0.2-0.7c0.5-0.7,1.1-1.3,1.6-1.9c-0.4-0.1-0.7-0.2-1-0.2
		c-0.6-0.2-1.1-0.3-1.6-0.5l0,0l0,0c-0.2-0.1-0.3-0.3-0.4-0.5c-0.1-0.2-0.2-0.4-0.2-0.6c0-0.4,0.2-0.7,0.4-0.9s0.5-0.4,0.9-0.4
		c0.3,0,0.6,0.1,0.8,0.2c0.4,0.2,0.7,0.3,1,0.5c0.3,0.2,0.5,0.3,0.8,0.4c-0.1-0.3-0.1-0.6-0.1-1c-0.1-0.4-0.1-0.9-0.1-1.3
		c0-0.4,0.1-0.7,0.4-0.9c0.3-0.3,0.6-0.4,0.9-0.4s0.7,0.2,0.9,0.4c0.3,0.3,0.4,0.6,0.4,1c0,0.2,0,0.4-0.1,0.6
		c-0.1,0.3-0.1,0.6-0.1,1c-0.1,0.2-0.1,0.5-0.1,0.7c0.3-0.1,0.5-0.3,0.8-0.4c0.4-0.2,0.7-0.4,1.1-0.5c0.2-0.1,0.5-0.2,0.7-0.2
		c0.4,0,0.6,0.1,0.9,0.4c0.3,0.3,0.4,0.6,0.4,0.9c0,0.2-0.1,0.4-0.2,0.6c-0.1,0.2-0.3,0.4-0.5,0.5c-0.8,0.3-1.6,0.6-2.5,0.7
		c0.1,0.1,0.2,0.2,0.3,0.3c0.2,0.2,0.4,0.4,0.5,0.6c0.2,0.2,0.3,0.4,0.5,0.6c0.2,0.2,0.3,0.4,0.5,0.6c0.1,0.2,0.2,0.4,0.2,0.7
		c0,0.3-0.1,0.6-0.4,0.9c-0.3,0.1-0.6,0.2-0.9,0.2c-0.5,0-0.9-0.4-1.2-0.8C45.7,48.1,45.3,47.4,45,46.8L45,46.8z"/>
</g>
</svg>
