<?xml version="1.0" encoding="utf-8"?>
<!-- Generator: Adobe Illustrator 18.1.1, SVG Export Plug-In . SVG Version: 6.00 Build 0)  -->
<!DOCTYPE svg PUBLIC "-//W3C//DTD SVG 1.1//EN" "http://www.w3.org/Graphics/SVG/1.1/DTD/svg11.dtd">
<svg version="1.1" id="GENERAL" xmlns="http://www.w3.org/2000/svg" xmlns:xlink="http://www.w3.org/1999/xlink" x="0px" y="0px"
	 viewBox="0 0 50 50" enable-background="new 0 0 50 50" xml:space="preserve">
<g>
	<path fill="#253339" d="M45.1,19c-0.4-1-1-2-1.6-3c-0.8-1.3-1.8-2.6-3-3.8c-1-1.1-2-2-3.5-2.6c-0.9-0.4-1.7-1.1-2-1.8
		c-0.1-0.2-0.1-0.4-0.1-0.6c-0.1-0.5-0.1-1.2-0.9-2l-0.6-1c-0.6-0.6-1.4-0.9-2.2-0.9c-0.9,0-1.7,0.4-2.3,1l-3.1,3.1
		c-1.3,1.3-1.3,3.3-0.1,4.5l0.8,0.8c0.6,0.6,1.5,1,2.4,0.9c0.5,0.4,1,0.8,1.6,1.3c0.3,0.4,0.7,0.8,1,1.2c0.2,0.4,0.3,0.6,0.3,0.9
		c0,0.5-0.4,0.8-1,1.4c-0.2,0.1-0.4,0.3-0.6,0.5l-3.8,3.8l-2.1-2c-1.4-1.4-1.4-1.4-1.2-2.3c0-0.4,0.1-1,0.2-1.7
		c0.1-0.7,0.1-1.4,0-2.1c0-0.4-0.1-0.7-0.2-1.1c-0.7-2.6-2.1-4.6-4.2-5.9c-1.1-0.7-2.4-1.1-4.2-1.4C13.8,6.1,13.1,6,12.3,6h-0.2
		C12,6,12,6,12,6c-0.3,0.1-1.2,0.1-1.6,0.9c-0.2,0.3-0.3,0.9,0.2,1.6c0.4,0.6,1.2,1.4,2.2,2.4c0.7,0.7,1.5,1.5,2,2.1
		c0.8,0.9,0.5,2,0.2,2.8c-0.7,1.6-2.5,2.9-3.9,2.9c-0.5,0-1-0.2-1.4-0.5c-0.6-0.6-1.4-1.3-2.1-2c-0.9-1-1.8-1.8-2.4-2.2
		c-0.3-0.3-0.7-0.4-1-0.4s-1.3,0.2-1.4,1.7c0,0.1,0,0.1,0,0.1c0,0.8,0.1,1.7,0.2,2.6c0.3,1.9,0.7,3.1,1.4,4.1
		c1.2,2.1,3.3,3.6,5.9,4.2c0.4,0.1,0.7,0.2,1.1,0.2c0.7,0.1,1.4,0.1,2.1,0c0.7,0,1.2-0.1,1.6-0.2c0.3-0.1,0.6-0.1,0.7-0.1
		c0.2,0,0.5,0.2,1.6,1.3l1.2,1.2c-0.1,0.1-0.2,0.1-0.3,0.2L8.1,39.1c-0.6,0.5-0.9,1.3-0.9,2.1s0.3,1.5,0.9,2.1l2.9,2.9
		c0.5,0.6,1.3,0.9,2.1,0.9c0.8,0,1.5-0.3,2.1-0.9l10.1-10.1c0.1-0.1,0.2-0.2,0.3-0.3l5.2,5.2l3.5,5c0.5,0.7,1.3,1.1,2.2,1.1
		s1.8-0.3,2.3-0.9l4.1-4.1c0.6-0.7,1-1.7,0.9-2.6c-0.1-0.8-0.5-1.5-1.1-1.9l-5-3.5L31.5,28l4-4c0.2-0.2,0.3-0.4,0.5-0.6
		c0.5-0.6,0.7-0.8,1.4-0.9c0.1-0.1,0.3,0,0.4,0c2.8,1.2,3.1,5.3,3.1,6.5c0.1,0.6,0.1,1.4,0.8,2.1c0.1,0.1,0.1,0.1,0.1,0.1l1.2,1.1
		c0.1,0,0.1,0.1,0.2,0.1c0.2,0.1,0.5,0.2,0.7,0.2c1.2,0,1.7-1.4,1.8-1.9C46.9,26.7,46.7,22.6,45.1,19z M18.8,26.2
		c-1.3-1.3-1.9-1.9-3-1.9c-0.3,0-0.6,0-1,0.1c-0.4,0.1-0.9,0.1-1.5,0.2c-0.6,0.1-1.2,0.1-1.7,0c-0.3,0-0.5,0-0.8-0.1
		c-1.4-0.4-3.5-1.2-4.7-3.3c-0.5-0.9-0.8-1.9-1.1-3.5c-0.1-0.6-0.2-1.2-0.2-1.7c0.4,0.4,1,1,1.6,1.5c0.8,0.8,1.5,1.5,2.2,2.1
		c0.8,0.7,1.7,1,2.7,1c2.3,0,4.6-1.7,5.7-4c0.8-1.7,0.6-3.5-0.5-4.8c-0.6-0.7-1.4-1.5-2.1-2.2c-0.6-0.5-1.2-1.1-1.6-1.6
		c0.5,0,1.1,0,1.7,0.2c1.6,0.2,2.6,0.6,3.5,1.1c2.1,1.2,2.9,3.2,3.3,4.7c0,0.3,0.1,0.5,0.1,0.8c0.1,0.5,0.1,1.1,0,1.7
		c0,0.7-0.1,1.1-0.2,1.5c-0.3,1.8,0,2.2,1.8,4l2.1,2l-2.2,2.2c-0.7,0.8-1.5,1-2.2,1.3c-0.1,0.1-0.3,0.1-0.4,0.2L18.8,26.2z
		 M30.4,29.3l6.1,6.1c0,0.1,0.1,0.1,0.2,0.2l5.1,3.6c0.1,0.1,0.2,0.3,0.2,0.5c0,0.3-0.1,0.7-0.4,1l-4.1,4.1
		c-0.2,0.3-0.6,0.4-0.9,0.4c-0.2,0-0.5-0.1-0.6-0.3l-3.6-5.1c-0.1-0.1-0.1-0.1-0.2-0.2L26.6,34c0-0.1,0.1-0.2,0.1-0.3
		c0.3-0.8,0.6-1.5,1.3-2.2L30.4,29.3z M43.8,30.2c0,0.1-0.1,0.2-0.1,0.3L43,29.9c-0.1-0.1-0.2-0.3-0.2-0.8c0-4-1.6-7.1-4.3-8.2
		c-0.4-0.2-0.9-0.3-1.4-0.2c-1.4,0.2-2,0.8-2.6,1.5c-0.2,0.1-0.3,0.3-0.5,0.5L29.7,27c-0.1,0-0.2,0.1-0.3,0.2l-2.9,2.9
		c-1,1.1-1.4,2-1.7,2.9c-0.1,0.3-0.2,0.5-0.3,0.8c-0.1,0.1-0.1,0.3-0.1,0.4c-0.1,0.2-0.2,0.3-0.4,0.5L13.8,45
		c-0.4,0.4-1.1,0.4-1.5,0l-2.9-2.9c-0.2-0.2-0.3-0.5-0.3-0.8s0.1-0.6,0.3-0.8l10.1-10.1c0.3-0.3,0.6-0.5,1-0.6c0,0,0,0,0,0
		c0.2-0.1,0.5-0.2,0.8-0.3c0.9-0.3,1.9-0.7,2.9-1.7l2.9-2.9c0.1-0.1,0.2-0.2,0.2-0.3l4.1-4.1c0.2-0.2,0.3-0.4,0.5-0.5
		c0.7-0.6,1.6-1.4,1.6-2.8c0-0.7-0.2-1.3-0.6-2c-0.3-0.6-0.8-1-1.3-1.5c-0.8-0.8-1.5-1.3-2.2-1.7c-0.1-0.1-0.3-0.2-0.5-0.2
		c-0.1,0-0.1,0-0.2,0.1c-0.4,0.1-0.8,0-1.1-0.3l-0.8-0.8c-0.4-0.5-0.4-1.3,0.1-1.8L30,5.8c0.5-0.5,1.3-0.6,1.8-0.1l0.8,0.8
		c0.2,0.2,0.3,0.4,0.3,0.8c0,0.4,0,0.7,0.2,1.2c0.5,1.4,1.9,2.4,3,2.9c1.2,0.5,1.9,1.2,2.9,2.2c1.2,1.1,2.1,2.3,2.8,3.5
		c0.6,1,1.1,1.9,1.5,2.8C44.7,23.1,44.9,26.7,43.8,30.2z"/>
	<path fill="#253339" d="M38.4,41.6c0.7-0.6,0.7-1.7,0-2.4c-0.6-0.7-1.7-0.7-2.4,0c-0.6,0.7-0.6,1.8,0,2.4
		C36.6,42.3,37.7,42.3,38.4,41.6z"/>
</g>
</svg>
