<?xml version="1.0" encoding="utf-8"?>
<!-- Generator: Adobe Illustrator 18.1.1, SVG Export Plug-In . SVG Version: 6.00 Build 0)  -->
<!DOCTYPE svg PUBLIC "-//W3C//DTD SVG 1.1//EN" "http://www.w3.org/Graphics/SVG/1.1/DTD/svg11.dtd">
<svg version="1.1" id="Слой_1" xmlns="http://www.w3.org/2000/svg" xmlns:xlink="http://www.w3.org/1999/xlink" x="0px" y="0px"
	 viewBox="0 0 50 50" enable-background="new 0 0 50 50" xml:space="preserve">
<linearGradient id="SVGID_1_" gradientUnits="userSpaceOnUse" x1="1.5913" y1="25.5" x2="48.4082" y2="25.5">
	<stop  offset="0" style="stop-color:#36A0FE"/>
	<stop  offset="1" style="stop-color:#1D7DD2"/>
</linearGradient>
<path fill="url(#SVGID_1_)" d="M44,10h-3.1C37.2,5.3,31.5,2.3,25,2.3c-6.4,0-12.2,3-15.9,7.7H6c-2.4,0-4.4,2-4.4,4.4v29.9
	c0,2.4,2,4.4,4.4,4.4h38c2.4,0,4.4-2,4.4-4.4V14.4C48.4,12,46.4,10,44,10z M25,5.7c4.3,0,8.2,1.6,11.2,4.3H13.8
	C16.8,7.4,20.7,5.7,25,5.7z M46.4,44.3c0,1.3-1.1,2.4-2.4,2.4H6c-1.3,0-2.4-1.1-2.4-2.4V14.4C3.6,13.1,4.7,12,6,12h38
	c1.3,0,2.4,1.1,2.4,2.4V44.3z"/>
<g id="ic_x5F_bag-elem-1">
	
		<linearGradient id="SVGID_2_" gradientUnits="userSpaceOnUse" x1="-1441.13" y1="-380.45" x2="-1216.13" y2="-380.45" gradientTransform="matrix(6.297229e-002 0 0 -6.297229e-002 108.6952 3.9673)">
		<stop  offset="0" style="stop-color:#36A0FE"/>
		<stop  offset="1" style="stop-color:#1D7DD2"/>
	</linearGradient>
	<polygon fill="url(#SVGID_2_)" points="22.7,20.8 27.3,20.8 27.3,25.7 32.1,25.7 32.1,30.2 27.3,30.2 27.3,35 22.7,35 22.7,30.2 
		17.9,30.2 17.9,25.7 22.7,25.7 	"/>
	<g>
		
			<linearGradient id="SVGID_3_" gradientUnits="userSpaceOnUse" x1="-1536.7063" y1="-380.4498" x2="-1120.5464" y2="-380.4498" gradientTransform="matrix(6.297229e-002 0 0 -6.297229e-002 108.6952 3.9673)">
			<stop  offset="0" style="stop-color:#36A0FE"/>
			<stop  offset="1" style="stop-color:#1D7DD2"/>
		</linearGradient>
		<path fill="url(#SVGID_3_)" d="M25,41c-7.2,0-13.1-5.9-13.1-13.1c0-7.2,5.9-13.1,13.1-13.1c7.2,0,13.1,5.9,13.1,13.1
			C38.1,35.2,32.3,41,25,41z M25,16.8c-6.1,0-11.1,5-11.1,11.1S18.9,39,25,39s11.1-5,11.1-11.1S31.2,16.8,25,16.8z"/>
	</g>
</g>
</svg>
