<?xml version="1.0" encoding="utf-8"?>
<!-- Generator: Adobe Illustrator 18.1.1, SVG Export Plug-In . SVG Version: 6.00 Build 0)  -->
<!DOCTYPE svg PUBLIC "-//W3C//DTD SVG 1.1//EN" "http://www.w3.org/Graphics/SVG/1.1/DTD/svg11.dtd">
<svg version="1.1" id="Слой_1" xmlns="http://www.w3.org/2000/svg" xmlns:xlink="http://www.w3.org/1999/xlink" x="0px" y="0px"
	 viewBox="0 0 50 50" enable-background="new 0 0 50 50" xml:space="preserve">
<path d="M44.5,8.8h-3.5C37.2,4.2,31.5,1.3,25,1.3S12.7,4.2,8.8,8.8H5.4c-2.7,0-4.8,2.1-4.8,4.8v30.8
	c0,2.7,2.1,4.8,4.8,4.8h39.2c2.7,0,4.8-2.1,4.8-4.8V13.6C49.5,11,47.2,8.8,44.5,8.8z M25,4.7c4.3,0,8.1,1.6,11.2,4.1H13.7
	C16.8,6.3,20.8,4.7,25,4.7z M46.8,44.4c0,1.2-0.9,2.1-2.1,2.1H5.4c-1.2,0-2.1-0.9-2.1-2.1V13.6c0-1.2,0.9-2.1,2.1-2.1h39.2
	c1.2,0,2.1,0.9,2.1,2.1v30.8H46.8z"/>
<g id="ic_x5F_bag-elem-1">
	<g>
		<polygon points="22.6,20.3 27.4,20.3 27.4,25.2 32.3,25.2 32.3,30 27.4,30 27.4,34.9 22.6,34.9 22.6,30 17.7,30
			17.7,25.2 22.6,25.2 		"/>
	</g>
	<g>
		<path d="M25,41.4c-7.6,0-13.8-6.2-13.8-13.8S17.4,13.8,25,13.8S38.8,20,38.8,27.6S32.6,41.4,25,41.4z M25,16.4
			c-6.1,0-11.2,5-11.2,11.2s5,11.2,11.2,11.2s11.2-5,11.2-11.2S31.1,16.4,25,16.4z"/>
	</g>
</g>
</svg>
