<?xml version="1.0" encoding="utf-8"?>
<!-- Generator: Adobe Illustrator 18.1.1, SVG Export Plug-In . SVG Version: 6.00 Build 0)  -->
<!DOCTYPE svg PUBLIC "-//W3C//DTD SVG 1.1//EN" "http://www.w3.org/Graphics/SVG/1.1/DTD/svg11.dtd">
<svg version="1.1" id="Слой_1" xmlns="http://www.w3.org/2000/svg" xmlns:xlink="http://www.w3.org/1999/xlink" x="0px" y="0px"
	 viewBox="0 0 50 50" enable-background="new 0 0 50 50" xml:space="preserve">
<linearGradient id="SVGID_1_" gradientUnits="userSpaceOnUse" x1="0.8764" y1="25.0002" x2="49.123" y2="25.0002">
	<stop  offset="0" style="stop-color:#36A0FE"/>
	<stop  offset="1" style="stop-color:#1D7DD2"/>
</linearGradient>
<path fill="url(#SVGID_1_)" d="M48.2,26.1L27.6,2.3c-0.6-0.7-1.4-1.1-2.4-1.1h-0.4c-1,0-1.9,0.4-2.5,1.2l-9.1,10.6v-2.5
	c0-1.7-1.4-3.1-3.1-3.1C8.3,7.3,7,8.7,7,10.5v9.4c0,0.1,0,0.1,0,0.2l-5.3,6.2c-0.6,0.6-0.9,1.4-0.8,2.3c0.1,0.8,0.4,1.6,1.1,2.1
	c0.6,0.5,1.3,0.7,2,0.7h3.2v14.3c0,1.7,1.4,3.1,3.1,3.1h29.4c1.7,0,3.1-1.4,3.1-3.1V31.4H46c1.7,0,3.1-1.4,3.1-3.1
	C49.1,27.5,48.8,26.7,48.2,26.1z M39.7,46.8H10.3c-0.6,0-1.1-0.5-1.1-1.1V33.9c0.2,0.1,0.4,0.3,0.6,0.4c0.8,0.5,1.6,1.2,2.7,1.2
	c1,0,1.9-0.6,2.7-1.2c0.5-0.4,1.1-0.8,1.5-0.8c0.4,0,1,0.4,1.5,0.8c0.8,0.5,1.6,1.2,2.7,1.2c1,0,1.9-0.6,2.7-1.2
	c0.5-0.4,1.1-0.8,1.5-0.8c0.4,0,1,0.4,1.5,0.8c0.8,0.5,1.6,1.2,2.7,1.2c1,0,1.9-0.6,2.7-1.2c0.5-0.4,1.1-0.8,1.5-0.8
	c0.4,0,1,0.4,1.5,0.8c0.8,0.5,1.6,1.2,2.7,1.2c1,0,1.9-0.6,2.7-1.2c0.2-0.1,0.4-0.3,0.6-0.4v11.8C40.8,46.3,40.3,46.8,39.7,46.8z
	 M46,29.4h-5.2v2.3c-0.7,0.2-1.2,0.6-1.8,1c-0.5,0.4-1.1,0.8-1.5,0.8c-0.4,0-1-0.4-1.5-0.8c-0.8-0.5-1.6-1.2-2.7-1.2
	c-1,0-1.9,0.6-2.7,1.2c-0.5,0.4-1.1,0.8-1.5,0.8c-0.4,0-1-0.4-1.5-0.8c-0.8-0.5-1.6-1.2-2.7-1.2c-1,0-1.9,0.6-2.7,1.2
	c-0.5,0.4-1.1,0.8-1.5,0.8c-0.4,0-1-0.4-1.5-0.8c-0.8-0.5-1.6-1.2-2.7-1.2c-1,0-1.9,0.6-2.7,1.2c-0.5,0.4-1.1,0.8-1.5,0.8
	c-0.4,0-1-0.4-1.5-0.8c-0.5-0.4-1.1-0.8-1.8-1v-2.3H4c-0.3,0-0.5-0.1-0.7-0.3C3,29,2.9,28.7,2.9,28.4c0-0.3,0.1-0.6,0.3-0.8l5.9-6.9
	L9,20.2c0-0.1,0-0.1,0-0.3v-9.4c0-0.6,0.5-1.1,1.1-1.1s1.1,0.5,1.1,1.1v7.9L23.9,3.6c0.2-0.3,0.5-0.4,0.9-0.4h0.4
	c0.3,0,0.6,0.1,0.8,0.4l20.8,23.9c0.2,0.2,0.3,0.5,0.3,0.8C47.1,29,46.6,29.4,46,29.4z"/>
<g id="ic_x5F_homeflood-elem-1">
	
		<linearGradient id="SVGID_2_" gradientUnits="userSpaceOnUse" x1="-1345.801" y1="-267.4447" x2="-1193.7853" y2="-267.4447" gradientTransform="matrix(6.297229e-002 0 0 -6.297229e-002 104.9471 2.5617)">
		<stop  offset="0" style="stop-color:#36A0FE"/>
		<stop  offset="1" style="stop-color:#1D7DD2"/>
	</linearGradient>
	<path fill="url(#SVGID_2_)" d="M24,13.6c-2.9,3.7-5.5,8.6-2.4,11.7c1.7,1.7,5,1.6,6.6,0.1c3.4-3.1,0.7-8.2-2.2-12
		C24.7,11.8,25.3,11.8,24,13.6L24,13.6z"/>
</g>
</svg>
