<?xml version="1.0" encoding="utf-8"?>
<!-- Generator: Adobe Illustrator 18.1.1, SVG Export Plug-In . SVG Version: 6.00 Build 0)  -->
<!DOCTYPE svg PUBLIC "-//W3C//DTD SVG 1.1//EN" "http://www.w3.org/Graphics/SVG/1.1/DTD/svg11.dtd">
<svg version="1.1" id="Слой_1" xmlns="http://www.w3.org/2000/svg" xmlns:xlink="http://www.w3.org/1999/xlink" x="0px" y="0px"
	 viewBox="0 0 50 50" enable-background="new 0 0 50 50" xml:space="preserve">
<g>
	<g id="ic_x5F_fire-triangle">
		<g>
			
				<linearGradient id="SVGID_1_" gradientUnits="userSpaceOnUse" x1="-1696.1227" y1="-341.4439" x2="-947.1573" y2="-341.4439" gradientTransform="matrix(6.297229e-002 0 0 -6.297229e-002 108.2267 3.4987)">
				<stop  offset="0" style="stop-color:#36A0FE"/>
				<stop  offset="1" style="stop-color:#1D7DD2"/>
			</linearGradient>
			<path fill="url(#SVGID_1_)" d="M45,46.8H5c-2,0-3.6-1.9-3.6-4.1c0-0.8,0.2-1.7,0.6-2.3L21.9,5.4C22.6,4,23.7,3.2,25,3.2
				c1.2,0,2.4,0.8,3.2,2.2L48,40.3c0.4,0.7,0.6,1.5,0.6,2.3C48.6,44.9,47,46.8,45,46.8z M25,5.2c-0.5,0-1,0.4-1.4,1.1l-19.8,35
				c-0.2,0.4-0.4,0.9-0.4,1.3c0,1.2,0.7,2.1,1.6,2.1H45c0.8,0,1.6-1,1.6-2.1c0-0.5-0.1-0.9-0.3-1.3l-19.8-35C26,5.6,25.5,5.2,25,5.2
				z"/>
		</g>
	</g>
	<g id="ic_x5F_fire-elem-1">
		
			<linearGradient id="SVGID_2_" gradientUnits="userSpaceOnUse" x1="-1483.8401" y1="-401.49" x2="-1159.5756" y2="-401.49" gradientTransform="matrix(6.297229e-002 0 0 -6.297229e-002 108.2267 3.4987)">
			<stop  offset="0" style="stop-color:#36A0FE"/>
			<stop  offset="1" style="stop-color:#1D7DD2"/>
		</linearGradient>
		<path fill="url(#SVGID_2_)" d="M26.1,16.5c-3.6,6.5,2,14.8,2.4,5.4c3.1,2,3.8,4.7,3.6,7.7c-0.2,3.5-0.7,5.5,3,2
			c0.3,4-0.8,6.6-2.9,8.1c-1.4,1-3,1.4-4.6,1.5c1.9-0.5,3.2-1.8,3.3-4.1c-0.5,0.9-1.2,1.2-1.9,1.1c0.6-2.3,1.1-3.2,0.1-5.4
			c0.1,0.9-1.4,3.5-1.6,0.8c-0.1-1.7,0.6-3.1-2.4-4.7c1.6,3.3-1.2,7.5-1.2,2.7c-1.6,1-1.9,2.1-1.9,3.4c0,0.6,0.1,1.3,0.2,2.1
			c-0.3,1.2-1.3-0.1-1.8-0.6c-0.1,2,0.4,3.3,1.4,4c-4.1-1-7.1-3.5-7.2-8.3c0.9,1.9,2.3,2.4,3.8,2.3c-1.2-4.6-2.1-6.2-0.3-10.6
			c-0.1,0.6,0.3,1.7,0.8,2.6c1.6,2.9,2.3,1.4,2.3-0.8C21.7,22.3,19.9,19.4,26.1,16.5L26.1,16.5z"/>
	</g>
</g>
</svg>
