<?xml version="1.0" encoding="utf-8"?>
<!-- Generator: Adobe Illustrator 18.1.1, SVG Export Plug-In . SVG Version: 6.00 Build 0)  -->
<!DOCTYPE svg PUBLIC "-//W3C//DTD SVG 1.1//EN" "http://www.w3.org/Graphics/SVG/1.1/DTD/svg11.dtd">
<svg version="1.1" id="freezer_x5F_alert" xmlns="http://www.w3.org/2000/svg" xmlns:xlink="http://www.w3.org/1999/xlink" x="0px"
	 y="0px" viewBox="0 0 50 50" enable-background="new 0 0 50 50" xml:space="preserve">
<linearGradient id="SVGID_1_" gradientUnits="userSpaceOnUse" x1="6.2" y1="35.2" x2="19.2" y2="35.2">
	<stop  offset="0" style="stop-color:#36A0FE"/>
	<stop  offset="1" style="stop-color:#1D7DD2"/>
</linearGradient>
<path fill="url(#SVGID_1_)" d="M14.1,31.2v-3.4c0-0.8-0.6-1.4-1.4-1.4s-1.4,0.6-1.4,1.4v3.4c-2.9,0.6-5.1,3.2-5.1,6.3
	c0,3.6,2.9,6.5,6.5,6.5c3.6,0,6.5-2.9,6.5-6.5C19.2,34.4,17,31.8,14.1,31.2z"/>
<linearGradient id="SVGID_2_" gradientUnits="userSpaceOnUse" x1="1.2" y1="25.1" x2="24.1014" y2="25.1">
	<stop  offset="0" style="stop-color:#36A0FE"/>
	<stop  offset="1" style="stop-color:#1D7DD2"/>
</linearGradient>
<path fill="url(#SVGID_2_)" d="M18.4,27.5V7.1c0-3.2-2.5-5.8-5.7-5.8S6.9,3.9,6.9,7.1v20.4c-3.5,2-5.7,5.8-5.7,9.9
	c0,6.4,5.2,11.5,11.5,11.5s11.5-5.1,11.4-11.5C24.1,33.3,21.9,29.6,18.4,27.5z M12.7,46.5c-4.9,0-8.9-4-8.9-8.9c0-3.4,1.9-6.5,5-8
	c0.4-0.3,0.7-0.7,0.7-1.2V7.2C9.5,5.4,11,4,12.7,4s3.1,1.4,3.2,3.1v1.5h-2.8c-0.3,0-0.6,0.3-0.6,0.6s0.2,0.6,0.6,0.6h2.8v2.7h-2.8
	c-0.3,0-0.6,0.2-0.6,0.6c0,0.3,0.2,0.6,0.6,0.6h2.8v2.6h-2.8c-0.3,0-0.6,0.2-0.6,0.6c0,0.3,0.2,0.6,0.6,0.6h2.8v10.9
	c0,0.5,0.3,1,0.7,1.2c3.1,1.5,5,4.6,5,8C21.6,42.5,17.6,46.5,12.7,46.5z"/>
<linearGradient id="SVGID_3_" gradientUnits="userSpaceOnUse" x1="22.0992" y1="15.1" x2="47.8008" y2="15.1">
	<stop  offset="0" style="stop-color:#36A0FE"/>
	<stop  offset="1" style="stop-color:#1D7DD2"/>
</linearGradient>
<path fill="url(#SVGID_3_)" d="M42.1,12.6l3.7,1.5c0.2,0.1,0.3,0.1,0.5,0.1c0.6,0,1.1-0.3,1.4-0.8c0.3-0.7-0.1-1.5-0.8-1.8l-1.8-0.7
	l1.4-0.8c0.7-0.4,0.9-1.2,0.5-1.9s-1.2-0.9-1.9-0.5l-1.4,0.8L44,6.6c0.1-0.8-0.4-1.5-1.2-1.6s-1.5,0.4-1.6,1.1l-0.6,4.2l-4.3,2.4
	V7.6l3.2-2.5c0.6-0.4,0.7-1.3,0.2-1.9c-0.4-0.6-1.3-0.7-1.9-0.2l-1.5,1.2V2.6c0-0.8-0.6-1.4-1.4-1.4c-0.8,0-1.4,0.6-1.4,1.4v1.7
	L32,3.1c-0.6-0.5-1.4-0.4-1.9,0.2c-0.5,0.6-0.4,1.4,0.2,1.9l3.2,2.5v4.9l-4.2-2.4l-0.6-4.1c-0.1-0.8-0.8-1.3-1.6-1.2
	c-0.8,0.1-1.3,0.8-1.2,1.6l0.3,1.9l-1.4-0.8c-0.7-0.4-1.5-0.2-1.9,0.5c-0.4,0.7-0.2,1.5,0.5,1.9l1.4,0.8L23,11.5
	c-0.7,0.3-1.1,1.1-0.8,1.8c0.2,0.6,0.8,0.9,1.3,0.9c0.2,0,0.4,0,0.5-0.1l3.8-1.5l4.4,2.5l-4.5,2.6L24,16.1c-0.7-0.3-1.5,0.1-1.8,0.8
	c-0.3,0.7,0.1,1.5,0.8,1.8l1.7,0.7l-1.3,0.7c-0.7,0.4-0.9,1.2-0.5,1.9c0.3,0.5,0.7,0.7,1.2,0.7c0.2,0,0.5,0,0.7-0.1l1.3-0.8
	l-0.2,1.8c-0.1,0.8,0.4,1.5,1.2,1.6c0.1,0,0.1,0,0.2,0c0.6,0,1.2-0.5,1.3-1.2l0.6-3.9l4.3-2.5v5l-3.2,2.5c-0.6,0.4-0.7,1.3-0.2,1.9
	c0.3,0.3,0.7,0.5,1.1,0.5c0.3,0,0.6-0.1,0.7-0.3l1.6-1.3v1.7c0,0.8,0.6,1.4,1.4,1.4c0.8,0,1.4-0.6,1.4-1.4v-1.5l1.4,1.1
	c0.6,0.5,1.4,0.4,1.9-0.2s0.4-1.4-0.2-1.9l-3.1-2.4v-5.2l4.3,2.5l0.6,4.1c0.1,0.7,0.7,1.2,1.4,1.2c0.1,0,0.1,0,0.2,0
	c0.8-0.1,1.3-0.8,1.2-1.6l-0.3-1.9l1.4,0.8c0.2,0.1,0.5,0.2,0.7,0.2c0.4,0,0.9-0.2,1.2-0.7c0.4-0.7,0.2-1.5-0.5-1.9l-1.4-0.8
	l1.7-0.7c0.7-0.3,1.1-1.1,0.8-1.8c-0.3-0.7-1.1-1.1-1.8-0.8L42,17.5l-4.2-2.4L42.1,12.6z"/>
</svg>
