<?xml version="1.0" encoding="utf-8"?>
<!-- Generator: Adobe Illustrator 18.1.1, SVG Export Plug-In . SVG Version: 6.00 Build 0)  -->
<!DOCTYPE svg PUBLIC "-//W3C//DTD SVG 1.1//EN" "http://www.w3.org/Graphics/SVG/1.1/DTD/svg11.dtd">
<svg version="1.1" id="Слой_1" xmlns="http://www.w3.org/2000/svg" xmlns:xlink="http://www.w3.org/1999/xlink" x="0px" y="0px"
	 viewBox="0 0 50 50" enable-background="new 0 0 50 50" xml:space="preserve">
<g id="ic_x5F_fire-triangle">
	<g>
		<path d="M45.7,47.8H4.3c-2,0-3.6-1.9-3.6-4.3c0-0.8,0.2-1.7,0.7-2.4L21.8,5.1c0.7-1.4,1.9-2.2,3.2-2.2
			c1.3,0,2.4,0.8,3.2,2.2l20.5,36.1c0.4,0.7,0.6,1.5,0.6,2.4C49.3,45.9,47.7,47.8,45.7,47.8z M25,4.9c-0.5,0-1,0.4-1.4,1.2L3,42.2
			c-0.2,0.4-0.4,0.9-0.4,1.4c0,1.2,0.8,2.3,1.6,2.3h41.4c0.9,0,1.6-1,1.6-2.3c0-0.5-0.1-1-0.4-1.4L26.5,6.1C26,5.3,25.5,4.9,25,4.9z
			"/>
	</g>
</g>
<path d="M36.5,32c0-0.4-0.3-0.7-0.6-0.9c-0.4-0.1-0.8-0.1-1,0.2c-0.8,0.7-1.3,1.2-1.6,1.4c0-0.5,0.1-1.1,0.1-1.7
	l0.1-0.9c0.2-2.5-0.1-6.2-4.2-8.8c-0.3-0.2-0.7-0.2-1,0c-0.3,0.2-0.5,0.5-0.5,0.8c-0.1,2.2-0.5,3.1-0.6,3.4
	c-0.2-0.2-0.4-0.5-0.7-1.3c-0.6-1.7-0.7-4.5,0.7-7.1c0.2-0.4,0.1-0.8-0.1-1.2c-0.3-0.3-0.8-0.4-1.1-0.2c-5.7,2.6-5.5,5.6-5.4,8.3
	c0,0.7,0.1,1.4,0,2.1c0,0.5,0,0.8-0.1,1.1c-0.1-0.2-0.3-0.4-0.4-0.7c-0.6-1.1-0.8-1.9-0.8-2.1c0-0.5-0.3-0.9-0.8-1.1
	c-0.5-0.1-1,0.1-1.2,0.6C15.5,28,16,30.1,17,33.6c0,0.2,0.1,0.3,0.1,0.5c-0.7-0.2-1.3-0.8-1.7-1.7c-0.2-0.4-0.7-0.6-1.1-0.5
	c-0.5,0.1-0.8,0.5-0.8,1c0.1,4.9,3,8.3,8.2,9.5c0.5,0.1,0.9-0.1,1.1-0.5c0.2-0.4,0.1-0.9-0.3-1.2c-0.4-0.3-0.7-0.7-0.9-1.3
	c0.1,0,0.1,0,0.2,0h0c0.3,0,1.1-0.1,1.4-1.2c0-0.1,0-0.3,0-0.5c-0.2-0.9-0.2-1.5-0.2-2c0-0.5,0.1-0.9,0.3-1.3
	c0.1,0.3,0.2,0.5,0.4,0.7c0.3,0.3,0.6,0.4,0.9,0.4c0.4,0,0.9-0.2,1.4-0.9c0.3-0.5,0.5-1.2,0.7-1.9c0,0.2,0,0.4,0,0.6
	c0,0.4,0,0.7,0,1.1c0.1,1.4,0.6,2.1,1.5,2.1c0.2,0,0.4,0,0.6-0.2c-0.1,0.4-0.2,0.9-0.3,1.4c-0.1,0.3-0.2,0.6-0.3,0.9
	c-0.1,0.3,0,0.6,0.1,0.8c0.2,0.2,0.4,0.4,0.7,0.4c0.1,0,0.2,0,0.3,0c-0.4,0.5-1.1,0.8-1.9,1.1c-0.5,0.1-0.8,0.6-0.7,1.1
	c0.1,0.5,0.5,0.8,1,0.8c0,0,0,0,0.1,0c2.1-0.1,3.9-0.7,5.3-1.7C35.7,39.4,36.8,36.3,36.5,32z"/>
</svg>
