<?xml version="1.0" encoding="utf-8"?>
<!-- Generator: Adobe Illustrator 18.1.1, SVG Export Plug-In . SVG Version: 6.00 Build 0)  -->
<!DOCTYPE svg PUBLIC "-//W3C//DTD SVG 1.1//EN" "http://www.w3.org/Graphics/SVG/1.1/DTD/svg11.dtd">
<svg version="1.1" id="Слой_1" xmlns="http://www.w3.org/2000/svg" xmlns:xlink="http://www.w3.org/1999/xlink" x="0px" y="0px"
	 viewBox="0 0 50 50" enable-background="new 0 0 50 50" xml:space="preserve">
<g id="ic_x5F_fire-triangle">
	<g>
		<path fill="#253339" d="M45.6,47.6H4.4c-2,0-3.6-1.9-3.6-4.2c0-0.8,0.2-1.6,0.7-2.3L21.8,5.8c0.8-1.4,1.9-2.2,3.2-2.2
			c1.3,0,2.4,0.8,3.2,2.2l20.4,35.3c0.4,0.7,0.6,1.5,0.6,2.3C49.2,45.7,47.6,47.6,45.6,47.6z M25,5.6c-0.5,0-1,0.4-1.4,1.2L3.1,42.1
			c-0.3,0.4-0.4,0.9-0.4,1.3c0,1.2,0.7,2.2,1.6,2.2h41.2c0.9,0,1.6-1,1.6-2.2c0-0.4-0.1-0.9-0.4-1.3L26.5,6.8C26,6,25.5,5.6,25,5.6z
			"/>
	</g>
</g>
<path fill="#253339" d="M35,33.2c-0.4-3-1.9-5.4-3.4-7.7c-1.7-2.7-3.2-5-2.5-7.9c0.1-0.4,0-0.8-0.4-1c-0.3-0.2-0.7-0.3-1.1-0.1
	c-4.9,2.5-10.7,8-12.3,13.6c-0.8,2.9-0.5,5.6,1,8.1c1.4,2.3,3.7,3.9,6.7,4.8c0.1,0,0.2,0,0.3,0c0.6,0,1-0.4,1-1
	c0-0.2-0.1-0.4-0.2-0.6c-0.4-0.9-0.9-1.9-1.4-2.9c-1.4-4.2-0.8-8.2,1.4-11.2C24,30,24,33,26.3,34.5c0.3,0.2,0.7,0.2,1,0
	c0.3-0.2,0.5-0.5,0.5-0.9c0-0.1,0-0.2,0-0.3c0.1,0.3,0.3,0.6,0.5,0.8c1.6,2.8,1.4,4.8-0.7,7.2c-0.3,0.3-0.3,0.9-0.1,1.2
	c0.2,0.3,0.5,0.4,0.8,0.4c0.1,0,0.2,0,0.4-0.1c4.1-1.6,6.3-5.1,6.3-9.6C35,33.3,35,33.2,35,33.2z"/>
</svg>
