<?xml version="1.0" encoding="utf-8"?>
<!-- Generator: Adobe Illustrator 18.1.1, SVG Export Plug-In . SVG Version: 6.00 Build 0)  -->
<!DOCTYPE svg PUBLIC "-//W3C//DTD SVG 1.1//EN" "http://www.w3.org/Graphics/SVG/1.1/DTD/svg11.dtd">
<svg version="1.1" id="Слой_1" xmlns="http://www.w3.org/2000/svg" xmlns:xlink="http://www.w3.org/1999/xlink" x="0px" y="0px"
	 viewBox="0 0 50 50" enable-background="new 0 0 50 50" xml:space="preserve">
<g>
	<g id="ic_x5F_fire-triangle">
		<g>
			
				<linearGradient id="SVGID_1_" gradientUnits="userSpaceOnUse" x1="-1701.9576" y1="-356.3239" x2="-956.1946" y2="-356.3239" gradientTransform="matrix(6.297229e-002 0 0 -6.297229e-002 108.6952 2.5617)">
				<stop  offset="0" style="stop-color:#36A0FE"/>
				<stop  offset="1" style="stop-color:#1D7DD2"/>
			</linearGradient>
			<path fill="url(#SVGID_1_)" d="M44.9,46.3H5.1c-2,0-3.6-1.8-3.6-4c0-0.8,0.2-1.6,0.6-2.3L21.9,5.8c0.7-1.3,1.9-2.1,3.1-2.1
				c1.2,0,2.4,0.8,3.1,2.1L47.9,40c0.4,0.7,0.6,1.5,0.6,2.3C48.5,44.5,46.9,46.3,44.9,46.3z M25,5.7c-0.5,0-1,0.4-1.4,1.1L3.9,41
				c-0.2,0.4-0.4,0.8-0.4,1.3c0,1.1,0.7,2,1.6,2h39.8c0.9,0,1.6-0.9,1.6-2c0-0.4-0.1-0.9-0.3-1.3L26.4,6.8C26,6.1,25.5,5.7,25,5.7z"
				/>
		</g>
	</g>
	<g id="ic_x5F_fire-elem-1">
		
			<linearGradient id="SVGID_2_" gradientUnits="userSpaceOnUse" x1="-1468.0161" y1="-418.87" x2="-1190.7646" y2="-418.87" gradientTransform="matrix(6.297229e-002 0 0 -6.297229e-002 108.6952 2.5617)">
			<stop  offset="0" style="stop-color:#36A0FE"/>
			<stop  offset="1" style="stop-color:#1D7DD2"/>
		</linearGradient>
		<path fill="url(#SVGID_2_)" d="M23.4,40.8c-2.9-0.9-4.8-2.4-6-4.2C12.9,29.1,22,20.1,28,17c-1.4,5.8,5,9.3,5.7,15.4
			c0.1,3.9-1.9,7-5.5,8.4c2.3-2.7,2.5-5.1,0.8-8.1c-0.6-1-1.1-2.1-1.5-3.2c-0.6,0.9-0.8,2-0.7,3.2c-2.6-1.6-1.5-6.4-1.2-8.9
			c-4.3,3.5-5.2,8.9-3.5,14C22.5,38.9,23,39.9,23.4,40.8L23.4,40.8z"/>
	</g>
</g>
</svg>
