<?xml version="1.0" encoding="utf-8"?>
<!-- Generator: Adobe Illustrator 18.1.1, SVG Export Plug-In . SVG Version: 6.00 Build 0)  -->
<!DOCTYPE svg PUBLIC "-//W3C//DTD SVG 1.1//EN" "http://www.w3.org/Graphics/SVG/1.1/DTD/svg11.dtd">
<svg version="1.1" id="gprs_x5F_offline" xmlns="http://www.w3.org/2000/svg" xmlns:xlink="http://www.w3.org/1999/xlink" x="0px"
	 y="0px" viewBox="0 0 50 50" enable-background="new 0 0 50 50" xml:space="preserve">
<g>
	<path fill="#253339" d="M7.4,32.2c-0.5-0.3-1.1-0.1-1.3,0.4C5.8,33,6,33.6,6.4,33.9c3.8,2.2,7.3,5.7,9.5,9.5
		c0.2,0.3,0.5,0.5,0.8,0.5c0.2,0,0.3,0,0.5-0.1c0.5-0.3,0.6-0.9,0.4-1.3C15.3,38.3,11.5,34.5,7.4,32.2z"/>
	<path fill="#253339" d="M1.6,33.2c-0.5-0.2-1.1,0.1-1.2,0.6C0.2,34.3,0.5,34.9,1,35c5.8,2.1,11.6,7.9,13.8,13.8
		c0.1,0.4,0.5,0.6,0.9,0.6c0.1,0,0.2,0,0.3-0.1c0.5-0.2,0.8-0.7,0.6-1.2C14.2,41.7,8.1,35.6,1.6,33.2z"/>
	<path fill="#253339" d="M11.9,31.1c-0.4-0.3-1-0.2-1.3,0.2c-0.3,0.4-0.2,1,0.2,1.3c2.4,1.7,4.6,3.9,6.3,6.3
		c0.2,0.3,0.5,0.4,0.8,0.4c0.2,0,0.4-0.1,0.6-0.2c0.4-0.3,0.5-0.9,0.2-1.3C16.8,35.3,14.5,33,11.9,31.1z"/>
	<path fill="#253339" d="M31.8,27.4l3.7-3.7l1.2,2.9c0.1,0.2,0.2,0.3,0.3,0.5l4.7,4.7c0.4,0.4,1,0.7,1.6,0.7c0.6,0,1.2-0.2,1.6-0.7
		l4-4c0.4-0.4,0.7-1,0.7-1.6c0-0.6-0.2-1.2-0.7-1.6l-4.7-4.7c-0.1-0.1-0.3-0.2-0.4-0.3L41,18.2l3.8-3.8c0.6-0.6,0.9-1.4,0.9-2.3
		c0-0.9-0.3-1.7-0.9-2.3L40,5c-0.6-0.6-1.4-0.9-2.3-0.9S36,4.4,35.4,5l-3.8,3.8l-1.3-2.9c-0.1-0.2-0.2-0.3-0.3-0.4l-4.7-4.7
		c-0.4-0.4-1-0.7-1.6-0.7c-0.6,0-1.2,0.2-1.6,0.7l-4,4c-0.4,0.4-0.7,1-0.7,1.6c0,0.6,0.2,1.2,0.7,1.6l4.7,4.7
		c0.1,0.1,0.3,0.3,0.5,0.3l2.9,1.2l-3.6,3.6L6.9,1.7C6.4,1.2,5.5,1.2,5,1.7S4.5,3,5,3.6l15.7,16.2l-1.5,1.5
		c-0.6,0.6-0.9,1.4-0.9,2.3c0,0.2,0,0.4,0.1,0.6c-0.2,0-0.4,0-0.6,0c-2.1,0-4.2,0.8-5.7,2.3c-0.6,0.6-0.6,1.6,0,2.2l9.2,9.2
		c0.3,0.3,0.7,0.5,1.1,0.5c0.4,0,0.8-0.2,1.1-0.5c1.7-1.7,2.5-4,2.3-6.3c0.2,0,0.4,0.1,0.6,0.1c0.9,0,1.7-0.3,2.3-0.9l1.4-1.4
		l17,17.5c0.3,0.3,0.6,0.4,1,0.4c0.3,0,0.7-0.1,0.9-0.4c0.5-0.5,0.5-1.4,0-1.9L31.8,27.4z M46.2,26.1L43.4,29l-3.9-3.9l-0.9-2.1
		l1.7-1.7l2.1,1L46.2,26.1z M20.8,6.4l2.9-2.9l3.9,3.9l1,2.1l-1.7,1.7l-2.1-0.9L20.8,6.4z M37.6,7.2c0,0,0.1,0,0.1,0
		c0,0,0.1,0,0.1,0l4.8,4.8c0,0,0,0.1,0,0.1c0,0,0,0.1,0,0.1L29.6,25.2l-4.9-5.1L37.6,7.2z M22.1,34.3l-6.6-6.6
		c0.7-0.3,1.4-0.5,2.2-0.5c1.3,0,2.6,0.5,3.5,1.4C22.7,30.2,23,32.5,22.1,34.3z M26.3,28.4c-0.1,0.1-0.1,0.1-0.2,0l-4.8-4.8
		c0,0,0-0.1,0-0.1c0,0,0-0.1,0-0.1l1.5-1.5l4.9,5.1L26.3,28.4z"/>
</g>
</svg>
