<?xml version="1.0" encoding="utf-8"?>
<!-- Generator: Adobe Illustrator 18.1.1, SVG Export Plug-In . SVG Version: 6.00 Build 0)  -->
<!DOCTYPE svg PUBLIC "-//W3C//DTD SVG 1.1//EN" "http://www.w3.org/Graphics/SVG/1.1/DTD/svg11.dtd">
<svg version="1.1" id="HEAT" xmlns="http://www.w3.org/2000/svg" xmlns:xlink="http://www.w3.org/1999/xlink" x="0px" y="0px"
	 viewBox="0 0 50 50" enable-background="new 0 0 50 50" xml:space="preserve">
<path fill="#253339" d="M16.9,30.7V7.9c0-0.7-0.6-1.3-1.3-1.3c-0.7,0-1.3,0.6-1.3,1.3v22.8c-2.8,0.6-4.9,3-4.8,6
	c0,3.3,2.7,6.1,6.1,6.1c3.3,0,6.1-2.7,6.1-6.1C21.7,33.8,19.7,31.3,16.9,30.7z"/>
<path fill="#253339" d="M21,27.3V8c0-3-2.3-5.5-5.4-5.5c-3.1,0-5.5,2.5-5.5,5.5v19.3c-3.3,1.9-5.4,5.5-5.4,9.4
	c0,6,4.9,10.9,10.9,10.9s10.8-4.9,10.8-10.9C26.4,32.8,24.4,29.2,21,27.3z M15.6,45.2c-4.6,0-8.4-3.8-8.4-8.4c0-3.3,1.8-6.2,4.7-7.6
	c0.4-0.2,0.7-0.6,0.7-1.1V8c0-1.7,1.3-3,3-3c1.6,0,3,1.3,3,3v1.1h-0.4c-0.4,0-0.7,0.3-0.7,0.7c0,0.4,0.3,0.7,0.7,0.7h0.4v2.3h-0.4
	c-0.4,0-0.7,0.3-0.7,0.7s0.3,0.7,0.7,0.7h0.4v2.3h-0.4c-0.4,0-0.7,0.3-0.7,0.7c0,0.4,0.3,0.7,0.7,0.7h0.4v10.2
	c0,0.5,0.3,0.9,0.7,1.1c2.9,1.5,4.7,4.4,4.7,7.6C24,41.4,20.2,45.2,15.6,45.2z"/>
<g>
	<path fill="#253339" d="M30.4,5.6h11.7c0.7,0,1.3-0.6,1.3-1.3S42.8,3,42.1,3H30.4c-0.7,0-1.3,0.6-1.3,1.3S29.7,5.6,30.4,5.6z"/>
	<path fill="#253339" d="M37.2,7.6c-0.5-0.5-1.4-0.5-1.9,0l-5.8,5.9c-0.5,0.6-0.5,1.4,0,1.9c0.2,0.3,0.6,0.4,0.9,0.4
		c0.4,0,0.7-0.2,0.9-0.4l3.7-3.7v16c0,0.7,0.6,1.3,1.3,1.3s1.3-0.5,1.3-1.2V11.9l3.5,3.5c0.6,0.5,1.4,0.5,1.9,0
		c0.5-0.6,0.5-1.4,0-1.9L37.2,7.6z"/>
</g>
</svg>
