<?xml version="1.0" encoding="utf-8"?>
<!-- Generator: Adobe Illustrator 18.1.1, SVG Export Plug-In . SVG Version: 6.00 Build 0)  -->
<!DOCTYPE svg PUBLIC "-//W3C//DTD SVG 1.1//EN" "http://www.w3.org/Graphics/SVG/1.1/DTD/svg11.dtd">
<svg version="1.1" id="went_x5F_offline" xmlns="http://www.w3.org/2000/svg" xmlns:xlink="http://www.w3.org/1999/xlink" x="0px"
	 y="0px" viewBox="0 0 50 50" enable-background="new 0 0 50 50" xml:space="preserve">
<g>
	
		<linearGradient id="SVGID_1_" gradientUnits="userSpaceOnUse" x1="22.7" y1="16.35" x2="39.3637" y2="16.35" gradientTransform="matrix(1 0 0 -1 0 50)">
		<stop  offset="0" style="stop-color:#36A0FE"/>
		<stop  offset="1" style="stop-color:#1D7DD2"/>
	</linearGradient>
	<path fill="url(#SVGID_1_)" d="M38.8,46.8H23.4c-0.2,0-0.3-0.1-0.5-0.2c-0.1-0.1-0.2-0.3-0.2-0.5v-25c0-0.4,0.3-0.6,0.6-0.6h15.4
		c0.4,0,0.6,0.3,0.6,0.6v25C39.5,46.5,39.2,46.8,38.8,46.8z M24,45.5h14.1V21.8H24V45.5z"/>
</g>
<g>
	
		<linearGradient id="SVGID_2_" gradientUnits="userSpaceOnUse" x1="29.6" y1="25.3" x2="32.6095" y2="25.3" gradientTransform="matrix(1 0 0 -1 0 50)">
		<stop  offset="0" style="stop-color:#36A0FE"/>
		<stop  offset="1" style="stop-color:#1D7DD2"/>
	</linearGradient>
	<path fill="url(#SVGID_2_)" d="M31.1,26.2c-0.8,0-1.5-0.7-1.5-1.5s0.7-1.5,1.5-1.5s1.5,0.7,1.5,1.5C32.7,25.5,32,26.2,31.1,26.2z
		 M31.1,24c-0.4,0-0.7,0.3-0.7,0.7c0,0.4,0.3,0.7,0.7,0.7c0.4,0,0.7-0.3,0.7-0.7C31.8,24.3,31.5,24,31.1,24z"/>
</g>
<g>
	
		<linearGradient id="SVGID_3_" gradientUnits="userSpaceOnUse" x1="25.1" y1="20.3" x2="37.2" y2="20.3" gradientTransform="matrix(1 0 0 -1 0 50)">
		<stop  offset="0" style="stop-color:#36A0FE"/>
		<stop  offset="1" style="stop-color:#1D7DD2"/>
	</linearGradient>
	<path fill="url(#SVGID_3_)" d="M25.3,27.9H37c0.1,0,0.2,0.1,0.2,0.2v3.2c0,0.1-0.1,0.2-0.2,0.2H25.3c-0.1,0-0.2-0.1-0.2-0.2v-3.2
		C25.1,28,25.2,27.9,25.3,27.9L25.3,27.9z"/>
</g>
<g>
	
		<linearGradient id="SVGID_4_" gradientUnits="userSpaceOnUse" x1="25.2" y1="16" x2="37" y2="16" gradientTransform="matrix(1 0 0 -1 0 50)">
		<stop  offset="0" style="stop-color:#36A0FE"/>
		<stop  offset="1" style="stop-color:#1D7DD2"/>
	</linearGradient>
	<path fill="url(#SVGID_4_)" d="M25.9,33.3h2.6v1.4h-2.6c-0.4,0-0.7-0.3-0.7-0.7l0,0C25.2,33.7,25.5,33.3,25.9,33.3L25.9,33.3z
		 M29.2,33.3H33v1.4h-3.8V33.3L29.2,33.3z M33.7,33.3h2.6c0.4,0,0.7,0.3,0.7,0.7l0,0c0,0.4-0.3,0.7-0.7,0.7h-2.6V33.3L33.7,33.3z"/>
</g>
<g>
	
		<linearGradient id="SVGID_5_" gradientUnits="userSpaceOnUse" x1="25.35" y1="38.4" x2="36.05" y2="38.4" gradientTransform="matrix(1 0 0 -1 0 50)">
		<stop  offset="0" style="stop-color:#36A0FE"/>
		<stop  offset="1" style="stop-color:#1D7DD2"/>
	</linearGradient>
	<path fill="url(#SVGID_5_)" d="M34.6,16.9c-0.4,0-0.8-0.1-1.1-0.4l-2.8-2.8l-2.8,2.8c-0.6,0.6-1.6,0.6-2.1,0
		c-0.6-0.6-0.6-1.6,0-2.1l2.8-2.8l-2.8-2.8c-0.6-0.6-0.6-1.6,0-2.1c0.6-0.6,1.6-0.6,2.1,0l2.8,2.8l2.8-2.8c0.6-0.6,1.6-0.6,2.1,0
		c0.6,0.6,0.6,1.6,0,2.1l-2.8,2.8l2.8,2.8c0.6,0.6,0.6,1.6,0,2.1C35.4,16.8,35,16.9,34.6,16.9z"/>
</g>
<g>
	<linearGradient id="SVGID_6_" gradientUnits="userSpaceOnUse" x1="15.2" y1="28.75" x2="47" y2="28.75">
		<stop  offset="0" style="stop-color:#36A0FE"/>
		<stop  offset="1" style="stop-color:#1D7DD2"/>
	</linearGradient>
	<path fill="url(#SVGID_6_)" d="M45.1,20.2h-1.4v-8.5c0-0.7-0.6-1.3-1.3-1.3h-5c-0.7,0-1.3,0.6-1.3,1.3s0.6,1.3,1.3,1.3h3.8v7.2
		H17.1c-1,0-1.9,0.8-1.9,1.9v23.1c0,1,0.8,1.9,1.9,1.9h28c1.1,0,1.9-0.9,1.9-1.9V22.1C47,21.1,46.2,20.2,45.1,20.2z M45,45.2H18.8
		h-1.7V22.1h28L45,45.2z"/>
	<linearGradient id="SVGID_7_" gradientUnits="userSpaceOnUse" x1="2.5" y1="11.95" x2="25.3" y2="11.95">
		<stop  offset="0" style="stop-color:#36A0FE"/>
		<stop  offset="1" style="stop-color:#1D7DD2"/>
	</linearGradient>
	<path fill="url(#SVGID_7_)" d="M16.1,13H24c0.6,0,1.3-0.6,1.3-1.3s-0.6-1.3-1.3-1.3h-7.9V9.3c0-3.8-3.1-6.8-6.8-6.8
		c-3.8,0-6.8,3.1-6.8,6.8v5.3c0,3.8,3.1,6.8,6.8,6.8c3.8,0,6.8-3.1,6.8-6.8V13z M14.3,14.6c0,2.7-2.2,5-5,5c-2.7,0-5-2.2-5-5V9.3
		c0-2.7,2.2-5,5-5s5.1,2.2,5,5V14.6z"/>
	<linearGradient id="SVGID_8_" gradientUnits="userSpaceOnUse" x1="5.5" y1="9.4" x2="13.1" y2="9.4">
		<stop  offset="0" style="stop-color:#36A0FE"/>
		<stop  offset="1" style="stop-color:#1D7DD2"/>
	</linearGradient>
	<path fill="url(#SVGID_8_)" d="M9.3,5.6c-2.1,0-3.8,1.7-3.8,3.8c0,2.1,1.7,3.8,3.8,3.8c2.1,0,3.8-1.7,3.8-3.8
		C13.1,7.3,11.4,5.6,9.3,5.6z M9.4,11.9c-1.4,0-2.5-1.1-2.5-2.5C6.9,8,8,6.9,9.3,6.9c1.4,0,2.5,1.1,2.6,2.5
		C11.9,10.8,10.8,11.9,9.4,11.9z"/>
	<linearGradient id="SVGID_9_" gradientUnits="userSpaceOnUse" x1="8.3" y1="9.4" x2="10.3" y2="9.4">
		<stop  offset="0" style="stop-color:#36A0FE"/>
		<stop  offset="1" style="stop-color:#1D7DD2"/>
	</linearGradient>
	<path fill="url(#SVGID_9_)" d="M9.3,8.4c-0.6,0-1,0.5-1,1c0,0.6,0.5,1,1,1c0.6,0,1-0.4,1-1C10.3,8.8,9.8,8.4,9.3,8.4z"/>
</g>
<g>
	
		<linearGradient id="SVGID_10_" gradientUnits="userSpaceOnUse" x1="5.9" y1="34.7" x2="13" y2="34.7" gradientTransform="matrix(1 0 0 -1 0 50)">
		<stop  offset="0" style="stop-color:#36A0FE"/>
		<stop  offset="1" style="stop-color:#1D7DD2"/>
	</linearGradient>
	<path fill="url(#SVGID_10_)" d="M12.4,15.9H6.5c-0.3,0-0.6-0.3-0.6-0.6s0.3-0.6,0.6-0.6h5.9c0.3,0,0.6,0.3,0.6,0.6
		S12.7,15.9,12.4,15.9z"/>
</g>
<g>
	
		<linearGradient id="SVGID_11_" gradientUnits="userSpaceOnUse" x1="7.7" y1="32.7" x2="11.2" y2="32.7" gradientTransform="matrix(1 0 0 -1 0 50)">
		<stop  offset="0" style="stop-color:#36A0FE"/>
		<stop  offset="1" style="stop-color:#1D7DD2"/>
	</linearGradient>
	<path fill="url(#SVGID_11_)" d="M10.6,17.9H8.3c-0.3,0-0.6-0.3-0.6-0.6c0-0.3,0.3-0.6,0.6-0.6h2.3c0.3,0,0.6,0.3,0.6,0.6
		C11.2,17.6,11,17.9,10.6,17.9z"/>
</g>
</svg>
