<?xml version="1.0" encoding="utf-8"?>
<!-- Generator: Adobe Illustrator 18.1.1, SVG Export Plug-In . SVG Version: 6.00 Build 0)  -->
<!DOCTYPE svg PUBLIC "-//W3C//DTD SVG 1.1//EN" "http://www.w3.org/Graphics/SVG/1.1/DTD/svg11.dtd">
<svg version="1.1" id="went_x5F_offline" xmlns="http://www.w3.org/2000/svg" xmlns:xlink="http://www.w3.org/1999/xlink" x="0px"
	 y="0px" viewBox="0 0 50 50" enable-background="new 0 0 50 50" xml:space="preserve">
<g>
	<path fill="#253339" d="M31.1,26.2c-0.8,0-1.5-0.7-1.5-1.5s0.7-1.5,1.5-1.5s1.5,0.7,1.5,1.5C32.7,25.5,32,26.2,31.1,26.2z M31.1,24
		c-0.4,0-0.7,0.3-0.7,0.7c0,0.4,0.3,0.7,0.7,0.7c0.4,0,0.7-0.3,0.7-0.7C31.8,24.3,31.5,24,31.1,24z"/>
</g>
<g>
	<path fill="#253339" d="M25.3,27.9H37c0.1,0,0.2,0.1,0.2,0.2v3.2c0,0.1-0.1,0.2-0.2,0.2H25.3c-0.1,0-0.2-0.1-0.2-0.2v-3.2
		C25.1,28,25.2,27.9,25.3,27.9L25.3,27.9z"/>
</g>
<g>
	<path fill="#253339" d="M25.9,33.3h2.6v1.4h-2.6c-0.4,0-0.7-0.3-0.7-0.7l0,0C25.2,33.7,25.5,33.3,25.9,33.3L25.9,33.3z M29.2,33.3
		H33v1.4h-3.8V33.3L29.2,33.3z M33.7,33.3h2.6c0.4,0,0.7,0.3,0.7,0.7l0,0c0,0.4-0.3,0.7-0.7,0.7h-2.6V33.3L33.7,33.3z"/>
</g>
<g>
	<path fill="#253339" d="M34.6,16.9c-0.4,0-0.8-0.1-1.1-0.4l-2.8-2.8l-2.8,2.8c-0.6,0.6-1.6,0.6-2.1,0c-0.6-0.6-0.6-1.6,0-2.1
		l2.8-2.8l-2.8-2.8c-0.6-0.6-0.6-1.6,0-2.1c0.6-0.6,1.6-0.6,2.1,0l2.8,2.8l2.8-2.8c0.6-0.6,1.6-0.6,2.1,0c0.6,0.6,0.6,1.6,0,2.1
		l-2.8,2.8l2.8,2.8c0.6,0.6,0.6,1.6,0,2.1C35.4,16.8,35,16.9,34.6,16.9z"/>
</g>
<g>
	<path fill="#253339" d="M45.1,20.2h-1.4v-8.5c0-0.7-0.6-1.3-1.3-1.3h-5c-0.7,0-1.3,0.6-1.3,1.3s0.6,1.3,1.3,1.3h3.8v7.2H17.1
		c-1,0-1.9,0.8-1.9,1.9v23.1c0,1,0.8,1.9,1.9,1.9h28c1.1,0,1.9-0.9,1.9-1.9V22.1C47,21.1,46.2,20.2,45.1,20.2z M22.7,45.2h-3.9h-1.7
		V22.1h5.6V45.2z M38.1,45.2H24V22.1h14.1V45.2z M45,45.2h-5.7V22.1h5.8L45,45.2z"/>
	<path fill="#253339" d="M16.1,13H24c0.6,0,1.3-0.6,1.3-1.3s-0.6-1.3-1.3-1.3h-7.9V9.3c0-3.8-3.1-6.8-6.8-6.8
		c-3.8,0-6.8,3.1-6.8,6.8v5.3c0,3.8,3.1,6.8,6.8,6.8c3.8,0,6.8-3.1,6.8-6.8V13z M14.3,14.6c0,2.7-2.2,5-5,5c-2.7,0-5-2.2-5-5V9.3
		c0-2.7,2.2-5,5-5s5.1,2.2,5,5V14.6z"/>
</g>
<g>
	<path fill="#253339" d="M9.3,13.2c-2.1,0-3.8-1.7-3.8-3.8s1.7-3.8,3.8-3.8s3.8,1.7,3.8,3.8S11.4,13.2,9.3,13.2z M9.3,6.9
		C8,6.9,6.9,8,6.9,9.4s1.1,2.5,2.5,2.5s2.5-1.1,2.5-2.5C11.8,8,10.7,6.9,9.3,6.9z"/>
</g>
<g>
	<path fill="#253339" d="M9.3,8.5c0.5,0,0.9,0.4,0.9,0.9s-0.4,0.9-0.9,0.9S8.4,9.9,8.4,9.4C8.5,8.9,8.9,8.5,9.3,8.5L9.3,8.5z"/>
	<path fill="#231F20" d="M9.3,10.4c-0.5,0-1-0.4-1-1c0-0.5,0.4-1,1-1c0.5,0,1,0.4,1,1S9.9,10.4,9.3,10.4z M9.3,8.7
		C8.9,8.7,8.6,9,8.6,9.4s0.3,0.7,0.7,0.7S10,9.8,10,9.4C10.1,9,9.7,8.7,9.3,8.7z"/>
</g>
<g>
	<path fill="#253339" d="M12.4,15.9H6.5c-0.3,0-0.6-0.3-0.6-0.6s0.3-0.6,0.6-0.6h5.9c0.3,0,0.6,0.3,0.6,0.6S12.7,15.9,12.4,15.9z"/>
</g>
<g>
	<path fill="#253339" d="M10.6,17.9H8.3c-0.3,0-0.6-0.3-0.6-0.6c0-0.3,0.3-0.6,0.6-0.6h2.3c0.3,0,0.6,0.3,0.6,0.6
		C11.2,17.6,11,17.9,10.6,17.9z"/>
</g>
</svg>
