<?xml version="1.0" encoding="utf-8"?>
<!-- Generator: Adobe Illustrator 18.1.1, SVG Export Plug-In . SVG Version: 6.00 Build 0)  -->
<!DOCTYPE svg PUBLIC "-//W3C//DTD SVG 1.1//EN" "http://www.w3.org/Graphics/SVG/1.1/DTD/svg11.dtd">
<svg version="1.1" id="Слой_1" xmlns="http://www.w3.org/2000/svg" xmlns:xlink="http://www.w3.org/1999/xlink" x="0px" y="0px"
	 viewBox="0 0 50 50" enable-background="new 0 0 50 50" xml:space="preserve">
<g id="ic_x5F_foot">
	<g>
		<path fill="#253339" d="M27.5,40.7h-2.8c-1.8,0-3.3-1.5-3.3-3.3v-3.5c0-0.6,0.4-1,1-1h7.5c0.6,0,1,0.4,1,1v3.5
			C30.8,39.1,29.3,40.7,27.5,40.7z M23.4,34.8v2.5c0,0.7,0.6,1.3,1.3,1.3h2.8c0.7,0,1.3-0.6,1.3-1.3v-2.5H23.4z M29.9,30.7h-7.5
			c-0.6,0-1-0.4-1-1c0-2.1-0.7-3.8-1.5-5.5c-0.9-1.9-1.7-3.9-1.4-6.4c0.5-4.2,3.1-7.2,6.3-7.2c2.7,0,5,2.1,6.3,5.9
			c1.1,3.3,0.7,7,0.2,10.5c-0.1,1-0.2,1.9-0.3,2.8C30.8,30.3,30.4,30.7,29.9,30.7z M23.3,28.7H29c0.1-0.7,0.2-1.3,0.2-2
			c0.4-3.3,0.8-6.7-0.1-9.6c-1-2.9-2.6-4.5-4.4-4.5c-1.8,0-3.9,1.9-4.3,5.4c-0.2,1.9,0.5,3.5,1.3,5.4C22.4,24.9,23.1,26.6,23.3,28.7
			z"/>
	</g>
</g>
<g id="ic_x5F_foot-wave">
	<g>
		<g>
			<path fill="#253339" d="M11.7,46.2c-0.2,0-0.4-0.1-0.6-0.2C4.5,41.4,0.6,33.8,0.6,25.7c0-8.1,4-15.8,10.8-20.4
				c0.5-0.3,1.1-0.2,1.4,0.3C13.1,6,12.9,6.7,12.5,7c-6.2,4.3-9.9,11.3-9.9,18.8c0,7.4,3.6,14.4,9.7,18.6c0.5,0.3,0.6,0.9,0.2,1.4
				C12.4,46,12,46.2,11.7,46.2z"/>
		</g>
		<g>
			<path fill="#253339" d="M11.7,38.3c-0.3,0-0.6-0.1-0.8-0.3C7.7,34.2,6,30,6,25.7c0-4.1,1.6-8.2,4.5-11.8c0.3-0.4,1-0.5,1.4-0.1
				s0.5,1,0.1,1.4C9.4,18.4,8,22,8,25.7c0,3.8,1.5,7.6,4.4,10.9c0.4,0.4,0.3,1-0.1,1.4C12.1,38.2,11.9,38.3,11.7,38.3z"/>
		</g>
		<g>
			<path fill="#253339" d="M38.2,46.2c-0.3,0-0.6-0.1-0.8-0.4c-0.3-0.5-0.2-1.1,0.2-1.4c6.1-4.2,9.7-11.2,9.7-18.6
				c0-7.5-3.7-14.5-9.9-18.8C37,6.7,36.9,6,37.2,5.6c0.3-0.5,0.9-0.6,1.4-0.3c6.8,4.6,10.8,12.3,10.8,20.4c0,8.1-4,15.6-10.6,20.3
				C38.6,46.1,38.4,46.2,38.2,46.2z"/>
		</g>
		<g>
			<path fill="#253339" d="M38.3,38.3c-0.2,0-0.5-0.1-0.7-0.2c-0.4-0.4-0.5-1-0.1-1.4c2.9-3.3,4.4-7.1,4.4-10.9
				c0-3.7-1.4-7.2-4-10.6c-0.3-0.4-0.3-1.1,0.1-1.4c0.4-0.3,1.1-0.3,1.4,0.1c2.9,3.6,4.5,7.7,4.5,11.8c0,4.3-1.7,8.5-4.9,12.2
				C38.9,38.2,38.6,38.3,38.3,38.3z"/>
		</g>
	</g>
</g>
</svg>
