<?xml version="1.0" encoding="utf-8"?>
<!-- Generator: Adobe Illustrator 18.1.1, SVG Export Plug-In . SVG Version: 6.00 Build 0)  -->
<!DOCTYPE svg PUBLIC "-//W3C//DTD SVG 1.1//EN" "http://www.w3.org/Graphics/SVG/1.1/DTD/svg11.dtd">
<svg version="1.1" id="Слой_1" xmlns="http://www.w3.org/2000/svg" xmlns:xlink="http://www.w3.org/1999/xlink" x="0px" y="0px"
	 viewBox="0 0 50 50" enable-background="new 0 0 50 50" xml:space="preserve">
<g>
	<g id="ic_x5F_foot">
		
			<linearGradient id="SVGID_1_" gradientUnits="userSpaceOnUse" x1="-1407.9222" y1="-140.0483" x2="-1234.1965" y2="-140.0483" gradientTransform="matrix(6.297229e-002 0 0 -6.297229e-002 108.2267 16.1486)">
			<stop  offset="0" style="stop-color:#36A0FE"/>
			<stop  offset="1" style="stop-color:#1D7DD2"/>
		</linearGradient>
		<path fill="url(#SVGID_1_)" d="M29.7,28.9c-2.4,0-4.9,0-7.3,0c0-4.6-3.3-7.3-2.9-11.4c0.8-6.7,7.5-9,10.3-1.1
			C31.2,20.3,30.1,24.9,29.7,28.9L29.7,28.9z M22.5,32.9h7.2v3.4c0,1.2-1,2.3-2.3,2.3h-2.7c-1.2,0-2.3-1-2.3-2.3V32.9L22.5,32.9z"/>
	</g>
	<g id="ic_x5F_foot-wave">
		<g>
			<g>
				
					<linearGradient id="SVGID_2_" gradientUnits="userSpaceOnUse" x1="-1697.3168" y1="-140.5212" x2="-1513.0607" y2="-140.5212" gradientTransform="matrix(6.297229e-002 0 0 -6.297229e-002 108.2267 16.1486)">
					<stop  offset="0" style="stop-color:#36A0FE"/>
					<stop  offset="1" style="stop-color:#1D7DD2"/>
				</linearGradient>
				<path fill="url(#SVGID_2_)" d="M11.6,44.7C5.2,40.2,1.3,32.9,1.3,25.1c0-7.9,3.9-15.3,10.5-19.8L12.9,7
					c-6,4.1-9.6,10.9-9.6,18.1c0,7.1,3.5,13.9,9.4,18L11.6,44.7z"/>
			</g>
			<g>
				
					<linearGradient id="SVGID_3_" gradientUnits="userSpaceOnUse" x1="-1612.9232" y1="-144.1888" x2="-1513.8826" y2="-144.1888" gradientTransform="matrix(6.297229e-002 0 0 -6.297229e-002 108.2267 16.1486)">
					<stop  offset="0" style="stop-color:#36A0FE"/>
					<stop  offset="1" style="stop-color:#1D7DD2"/>
				</linearGradient>
				<path fill="url(#SVGID_3_)" d="M11.4,36.9C8.3,33.3,6.7,29.2,6.7,25c0-4,1.5-7.9,4.4-11.5l1.6,1.3C10,18,8.7,21.5,8.7,25
					c0,3.7,1.5,7.3,4.2,10.6L11.4,36.9z"/>
			</g>
			<g>
				
					<linearGradient id="SVGID_4_" gradientUnits="userSpaceOnUse" x1="-1130.2115" y1="-140.5212" x2="-945.9633" y2="-140.5212" gradientTransform="matrix(6.297229e-002 0 0 -6.297229e-002 108.2267 16.1486)">
					<stop  offset="0" style="stop-color:#36A0FE"/>
					<stop  offset="1" style="stop-color:#1D7DD2"/>
				</linearGradient>
				<path fill="url(#SVGID_4_)" d="M38.4,44.7L37.2,43c5.9-4.1,9.4-10.8,9.4-18c0-7.2-3.6-14-9.6-18.1l1.1-1.6
					c6.6,4.5,10.5,11.9,10.5,19.8C48.7,32.9,44.8,40.2,38.4,44.7z"/>
			</g>
			<g>
				
					<linearGradient id="SVGID_5_" gradientUnits="userSpaceOnUse" x1="-1128.5833" y1="-144.2392" x2="-1029.5659" y2="-144.2392" gradientTransform="matrix(6.297229e-002 0 0 -6.297229e-002 108.2267 16.1486)">
					<stop  offset="0" style="stop-color:#36A0FE"/>
					<stop  offset="1" style="stop-color:#1D7DD2"/>
				</linearGradient>
				<path fill="url(#SVGID_5_)" d="M38.7,36.9l-1.5-1.3c2.8-3.2,4.2-6.9,4.2-10.6c0-3.6-1.3-7-3.9-10.2l1.6-1.3
					c2.8,3.5,4.4,7.5,4.4,11.5C43.4,29.2,41.8,33.3,38.7,36.9z"/>
			</g>
		</g>
	</g>
</g>
</svg>
