<?xml version="1.0" encoding="utf-8"?>
<!-- Generator: Adobe Illustrator 18.1.1, SVG Export Plug-In . SVG Version: 6.00 Build 0)  -->
<!DOCTYPE svg PUBLIC "-//W3C//DTD SVG 1.1//EN" "http://www.w3.org/Graphics/SVG/1.1/DTD/svg11.dtd">
<svg version="1.1" id="jammed" xmlns="http://www.w3.org/2000/svg" xmlns:xlink="http://www.w3.org/1999/xlink" x="0px" y="0px"
	 viewBox="0 0 50 50" enable-background="new 0 0 50 50" xml:space="preserve">
<g>
	<linearGradient id="SVGID_1_" gradientUnits="userSpaceOnUse" x1="11.3392" y1="28.5" x2="37.6608" y2="28.5">
		<stop  offset="0" style="stop-color:#36A0FE"/>
		<stop  offset="1" style="stop-color:#1D7DD2"/>
	</linearGradient>
	<path fill="url(#SVGID_1_)" d="M26.4,14.7c1-0.6,1.7-1.7,1.7-3c0-2-1.6-3.6-3.6-3.6s-3.6,1.6-3.6,3.6c0,1.3,0.7,2.5,1.8,3.1
		L11.4,46.2c-0.2,0.7,0.1,1.4,0.8,1.6c0.7,0.2,1.4-0.1,1.6-0.8l2.2-6.4l7,4.9v2.1c0,0.7,0.8,1.3,1.5,1.3s1.5-0.6,1.5-1.3v-2
		c0,0,0.1-0.1,0.2-0.1l6.8-4.7l2.2,6.2c0.2,0.7,1,1,1.6,0.8c0.7-0.2,1-1,0.8-1.6L26.4,14.7z M20.1,29.3l2.9,1.8v3.5L19.4,32
		c-0.1,0-0.1-0.1-0.2-0.1L20.1,29.3z M23,28.1l-2.1-1.3L23,21V28.1z M26,31.2l0.1-0.1l2.8-1.7l1,2.6l-4,2.8v-3.6H26z M26,28.3v-7.6
		l2.2,6.3L26,28.3z M16.9,38.1l1.3-3.7l4.8,3.3v4.7L16.9,38.1z M26,42.6v-4.7c0,0,0.1-0.1,0.2-0.1l4.6-3.2l1.4,3.8L26,42.6z"/>
	<linearGradient id="SVGID_2_" gradientUnits="userSpaceOnUse" x1="12.9" y1="11.7459" x2="16.6081" y2="11.7459">
		<stop  offset="0" style="stop-color:#36A0FE"/>
		<stop  offset="1" style="stop-color:#1D7DD2"/>
	</linearGradient>
	<path fill="url(#SVGID_2_)" d="M12.9,11.9c0,1.3,0.3,2.6,1,3.7c0.2,0.4,0.7,0.6,1.1,0.6c0.2,0,0.4-0.1,0.7-0.2
		c0.6-0.4,0.8-1.1,0.5-1.8c-0.4-0.7-0.6-1.5-0.6-2.4s0.3-1.8,0.8-2.5c0.4-0.6,0.2-1.4-0.4-1.8s-1.4-0.2-1.8,0.4
		C13.4,9.1,12.9,10.4,12.9,11.9z"/>
	<linearGradient id="SVGID_3_" gradientUnits="userSpaceOnUse" x1="32.5919" y1="11.8459" x2="36.2" y2="11.8459">
		<stop  offset="0" style="stop-color:#36A0FE"/>
		<stop  offset="1" style="stop-color:#1D7DD2"/>
	</linearGradient>
	<path fill="url(#SVGID_3_)" d="M33.5,11.9c0,0.8-0.2,1.6-0.6,2.4c-0.4,0.6-0.2,1.4,0.5,1.8c0.2,0.1,0.4,0.2,0.7,0.2
		c0.4,0,0.9-0.2,1.1-0.6c0.7-1.1,1-2.4,1-3.7c0-1.4-0.4-2.8-1.2-4c-0.4-0.6-1.2-0.8-1.8-0.4s-0.8,1.2-0.4,1.8
		C33.3,10.1,33.5,10.9,33.5,11.9z"/>
	<linearGradient id="SVGID_4_" gradientUnits="userSpaceOnUse" x1="34.8366" y1="11.3683" x2="40.9" y2="11.3683">
		<stop  offset="0" style="stop-color:#36A0FE"/>
		<stop  offset="1" style="stop-color:#1D7DD2"/>
	</linearGradient>
	<path fill="url(#SVGID_4_)" d="M37,3.1c-0.5-0.5-1.3-0.5-1.8,0.1c-0.5,0.5-0.5,1.3,0.1,1.8c2,1.9,3.1,4.5,3.1,7.2
		c0,2.1-0.6,4.1-1.8,5.8c-0.4,0.6-0.3,1.4,0.3,1.8c0.2,0.2,0.5,0.2,0.7,0.2c0.4,0,0.8-0.2,1-0.5c1.5-2.1,2.3-4.6,2.3-7.3
		C40.9,8.8,39.5,5.5,37,3.1z"/>
	<linearGradient id="SVGID_5_" gradientUnits="userSpaceOnUse" x1="8.3" y1="11.4057" x2="14.2885" y2="11.4057">
		<stop  offset="0" style="stop-color:#36A0FE"/>
		<stop  offset="1" style="stop-color:#1D7DD2"/>
	</linearGradient>
	<path fill="url(#SVGID_5_)" d="M12.3,19.8c0.6-0.4,0.7-1.2,0.3-1.8c-1.2-1.7-1.8-3.7-1.8-5.8c0-2.7,1.1-5.3,3.1-7.2
		c0.5-0.5,0.5-1.3,0.1-1.8c-0.5-0.5-1.3-0.5-1.8-0.1c-2.5,2.3-3.9,5.7-3.9,9.1c0,2.6,0.8,5.1,2.3,7.3c0.3,0.4,0.6,0.5,1,0.5
		C11.8,20,12,19.9,12.3,19.8z"/>
</g>
</svg>
