<?xml version="1.0" encoding="utf-8"?>
<!-- Generator: Adobe Illustrator 18.1.1, SVG Export Plug-In . SVG Version: 6.00 Build 0)  -->
<!DOCTYPE svg PUBLIC "-//W3C//DTD SVG 1.1//EN" "http://www.w3.org/Graphics/SVG/1.1/DTD/svg11.dtd">
<svg version="1.1" id="LOW_x5F_BATTERY" xmlns="http://www.w3.org/2000/svg" xmlns:xlink="http://www.w3.org/1999/xlink" x="0px"
	 y="0px" viewBox="0 0 50 50" enable-background="new 0 0 50 50" xml:space="preserve">
<g>
	<linearGradient id="SVGID_1_" gradientUnits="userSpaceOnUse" x1="0.125" y1="24.6125" x2="49.975" y2="24.6125">
		<stop  offset="0" style="stop-color:#36A0FE"/>
		<stop  offset="1" style="stop-color:#1D7DD2"/>
	</linearGradient>
	<path fill="url(#SVGID_1_)" d="M49.6,47l-7-6.9V9c0-1.7-1.4-3-3-3h-4V4c0-2-1.6-3.6-3.6-3.6H18.5c-2,0-3.6,1.6-3.6,3.6v2h-4
		c-0.8,0-1.4,0.3-2,0.8L2.4,0.3C1.9-0.2,1-0.2,0.5,0.3S0,1.7,0.5,2.2l7.4,7.3v36c0,1.7,1.4,3,3,3h28.6c1.6,0,3-1.3,3.1-2.9v-1.7l5,5
		c0.3,0.3,0.7,0.4,1,0.4c0.4,0,0.7-0.1,1-0.4C50.1,48.4,50.1,47.5,49.6,47z M17.5,4c0-0.5,0.4-0.9,0.9-0.9h13.5
		c0.5,0,0.9,0.4,0.9,0.9v2H17.6h-0.1V4z M15.9,8.8c0.1,0,0.1,0,0.2,0h18.4c0.1,0,0.1,0,0.2,0h4.8c0.1,0,0.2,0.1,0.2,0.2v28.2L11,8.8
		H15.9z M39.7,45.6c0,0.1-0.1,0.2-0.2,0.2H10.9c-0.1,0-0.2-0.1-0.2-0.2V12.3l29,28.8V45.6z"/>
	
		<linearGradient id="SVGID_2_" gradientUnits="userSpaceOnUse" x1="12.3" y1="10.1696" x2="38.0109" y2="10.1696" gradientTransform="matrix(1 0 0 -1 0 50)">
		<stop  offset="0" style="stop-color:#36A0FE"/>
		<stop  offset="1" style="stop-color:#1D7DD2"/>
	</linearGradient>
	<path fill="url(#SVGID_2_)" d="M36.8,44.3L36.8,44.3H13.6c-0.7,0-1.3-0.6-1.3-1.3v-6.4c0-0.4,0.2-0.8,0.5-1s0.7-0.3,1.1-0.2
		L37,41.7c0.6,0.1,1,0.7,1,1.3C38.1,43.7,37.5,44.3,36.8,44.3z"/>
</g>
</svg>
