<?xml version="1.0" encoding="utf-8"?>
<!-- Generator: Adobe Illustrator 18.1.1, SVG Export Plug-In . SVG Version: 6.00 Build 0)  -->
<!DOCTYPE svg PUBLIC "-//W3C//DTD SVG 1.1//EN" "http://www.w3.org/Graphics/SVG/1.1/DTD/svg11.dtd">
<svg version="1.1" id="Слой_1" xmlns="http://www.w3.org/2000/svg" xmlns:xlink="http://www.w3.org/1999/xlink" x="0px" y="0px"
	 viewBox="0 0 50 50" enable-background="new 0 0 50 50" xml:space="preserve">
<g id="ic_x5F_homelock">
	<g>
		<path fill="#253339" d="M32.5,38.1H17.4c-1.2,0-2.1-1-2.1-2.1v-7.5c-0.2,0-0.3,0-0.5,0c-0.6,0-1.5-0.1-2-0.5c-0.9-0.8-1-2.1-0.2-3
			c3.6-4.2,4.8-5.5,5.5-6.4c1-1.1,1.4-1.6,5.2-6c0.4-0.5,1-0.8,1.6-0.8h0.2c0.5,0,1.1,0.2,1.5,0.6l10.8,12.4
			c0.3,0.3,0.6,0.8,0.6,1.4c0,0.8-0.4,2.2-2.9,2.2c-0.1,0-0.2,0-0.3,0V36C34.6,37.2,33.7,38.1,32.5,38.1z M16.3,26.5
			c0.6,0,1,0.4,1,1V36c0,0.1,0.1,0.1,0.1,0.1h15.2c0.1,0,0.1-0.1,0.1-0.1v-8.5c0-0.6,0.4-1,1-1c0.2,0,0.4,0,0.6,0c0.2,0,0.5,0,0.7,0
			c0.8,0,0.9-0.1,0.9-0.1c0,0-0.1-0.1-0.1-0.1L25.1,13.9c0,0,0,0-0.1,0h-0.2c0,0,0,0-0.1,0.1c-3.8,4.4-4.2,4.9-5.2,6
			c-0.8,0.9-1.9,2.2-5.6,6.4c0,0-0.1,0.1,0,0.1c0,0,0.1,0.1,0.7,0.1c0.3,0,0.6,0,0.8,0C15.9,26.5,16.1,26.5,16.3,26.5z"/>
	</g>
</g>
<path fill="#253339" d="M29.4,27h-6.7v-1.8c0-0.6,0.3-1.2,0.7-1.6s1-0.7,1.6-0.7c0.6,0,1.2,0.3,1.6,0.7s0.7,1,0.7,1.6v0.5h1.3v-0.5
	c0-1-0.4-1.8-1-2.5c-0.7-0.6-1.5-1-2.5-1s-1.9,0.4-2.5,1s-1,1.5-1,2.5V27h-0.9c-0.5,0-0.9,0.4-0.9,0.9v5.6c0,0.5,0.4,0.9,0.9,0.9
	h8.8c0.5,0,0.9-0.4,0.9-0.9v-5.6C30.3,27.4,29.9,27,29.4,27z"/>
<g id="ic_x5F_homelock-wave">
	<g>
		<g>
			<path fill="#253339" d="M11.7,45.7c-0.2,0-0.4-0.1-0.6-0.2C4.5,40.9,0.6,33.3,0.6,25.3c0-8.1,4-15.8,10.8-20.4
				c0.5-0.3,1.1-0.2,1.4,0.3c0.3,0.5,0.2,1.1-0.3,1.4c-6.2,4.3-9.9,11.3-9.9,18.8c0,7.4,3.6,14.4,9.7,18.6c0.5,0.3,0.6,0.9,0.2,1.4
				C12.4,45.6,12,45.7,11.7,45.7z"/>
		</g>
		<g>
			<path fill="#253339" d="M11.7,37.9c-0.3,0-0.6-0.1-0.8-0.3C7.7,33.8,6,29.6,6,25.3c0-4.1,1.6-8.2,4.5-11.8c0.3-0.4,1-0.5,1.4-0.1
				s0.5,1,0.1,1.4C9.4,18,8,21.6,8,25.3c0,3.8,1.5,7.6,4.4,10.9c0.4,0.4,0.3,1-0.1,1.4C12.1,37.8,11.9,37.9,11.7,37.9z"/>
		</g>
		<g>
			<path fill="#253339" d="M38.2,45.7c-0.3,0-0.6-0.1-0.8-0.4c-0.3-0.5-0.2-1.1,0.3-1.4c6.1-4.2,9.7-11.2,9.7-18.6
				c0-7.5-3.7-14.5-9.9-18.8c-0.5-0.3-0.6-0.9-0.3-1.4c0.3-0.5,0.9-0.6,1.4-0.3c6.8,4.6,10.8,12.3,10.8,20.4c0,8.1-4,15.6-10.6,20.3
				C38.6,45.7,38.4,45.7,38.2,45.7z"/>
		</g>
		<g>
			<path fill="#253339" d="M38.3,37.9c-0.2,0-0.5-0.1-0.7-0.2c-0.4-0.4-0.5-1-0.1-1.4c2.9-3.3,4.4-7.1,4.4-10.9
				c0-3.7-1.4-7.2-4-10.6c-0.3-0.4-0.3-1.1,0.1-1.4c0.4-0.3,1.1-0.3,1.4,0.1c2.9,3.6,4.5,7.7,4.5,11.8c0,4.3-1.7,8.5-4.9,12.2
				C38.9,37.8,38.6,37.9,38.3,37.9z"/>
		</g>
	</g>
</g>
</svg>
