<?xml version="1.0" encoding="utf-8"?>
<!-- Generator: Adobe Illustrator 18.1.1, SVG Export Plug-In . SVG Version: 6.00 Build 0)  -->
<!DOCTYPE svg PUBLIC "-//W3C//DTD SVG 1.1//EN" "http://www.w3.org/Graphics/SVG/1.1/DTD/svg11.dtd">
<svg version="1.1" id="Слой_1" xmlns="http://www.w3.org/2000/svg" xmlns:xlink="http://www.w3.org/1999/xlink" x="0px" y="0px"
	 viewBox="0 0 50 50" enable-background="new 0 0 50 50" xml:space="preserve">
<g id="ic_x5F_finger">
	<g>
		<path d="M31.4,49.6c-4.4,0-7.6-2-9.7-6.1c-2.2-4.4-4.5-5.8-8.7-8.3l-1-0.6c-1.8-1.1-2.4-3.4-1.3-5.3
			c1.1-1.8,3.4-2.4,5.3-1.3l4.3,2.6v-18c0-2.5,1.9-3.8,3.7-3.8c0,0,0,0,0,0c1.8,0,3.7,1.3,3.7,3.8v4.6c0.4-0.1,0.8-0.2,1.3-0.2
			c1.5,0,2.9,0.9,3.6,2.1c0.5-0.2,1-0.3,1.5-0.3c1.7,0,3.1,1,3.7,2.5c0.5-0.2,1-0.3,1.5-0.3c2.2,0,4,1.8,4,4v13.6
			C43.3,44.8,38.1,49.6,31.4,49.6z M14,29.5c-0.6,0-1.2,0.3-1.6,0.9c-0.5,0.9-0.3,2,0.6,2.6l1,0.6c4.2,2.5,7,4.2,9.5,9.1
			c1.7,3.3,4.3,5,7.9,5c5.5,0,9.9-3.9,9.9-9V25.1c0-1.1-0.9-2.1-2.1-2.1c-0.4,0-0.8,0.1-1.2,0.3v8.3c0,0.5-0.4,1-1,1
			c-0.5,0-1-0.4-1-1v-8.4c0-0.1-0.1-0.2-0.1-0.3c0-1.2-0.9-2.1-2.1-2.1c-0.3,0-0.7,0.1-1,0.3v10.5c0,0.5-0.4,1-1,1c-0.5,0-1-0.4-1-1
			V21c0-0.1,0-0.1,0-0.2c-0.1-1-1-1.8-2-1.8c-0.5,0-0.9,0.2-1.3,0.4v12.2c0,0.5-0.4,1-1,1s-1-0.4-1-1v-19c0-1.4-1.1-1.8-1.7-1.8
			c0,0,0,0,0,0c-0.8,0-1.7,0.5-1.7,1.8v18.7c0,0.1,0,0.1,0,0.2l-0.2,1c-0.1,0.3-0.3,0.6-0.6,0.7c-0.3,0.1-0.6,0.1-0.9,0L15,29.8
			C14.6,29.6,14.3,29.5,14,29.5z"/>
	</g>
</g>
<g id="ic_x5F_finger-elem-1">
	<g>
		<path d="M13.4,14.1c-0.3,0-0.7-0.2-0.8-0.5c-0.7-1.1-1-2.5-1-3.8c0-1.5,0.4-2.9,1.3-4.2c0.3-0.5,0.9-0.6,1.4-0.3
			c0.5,0.3,0.6,0.9,0.3,1.4c-0.6,0.9-0.9,2-0.9,3.1c0,1,0.3,2,0.8,2.8c0.3,0.5,0.1,1.1-0.3,1.4C13.7,14.1,13.5,14.1,13.4,14.1z"/>
	</g>
	<g>
		<path d="M9.4,18.4c-0.3,0-0.6-0.1-0.8-0.4c-1.6-2.3-2.5-5-2.5-7.8c0-3.7,1.5-7.2,4.2-9.7c0.4-0.4,1-0.4,1.4,0
			c0.4,0.4,0.4,1,0,1.4c-2.3,2.1-3.6,5.1-3.6,8.3c0,2.4,0.7,4.7,2.1,6.6c0.3,0.4,0.2,1.1-0.2,1.4C9.8,18.3,9.6,18.4,9.4,18.4z"/>
	</g>
	<g>
		<path d="M34.3,14.1c-0.2,0-0.3,0-0.5-0.1c-0.5-0.3-0.6-0.9-0.3-1.4c0.5-0.8,0.8-1.8,0.8-2.8c0-1.1-0.3-2.1-0.9-3.1
			c-0.3-0.5-0.2-1.1,0.3-1.4C34,5.1,34.7,5.2,35,5.7c0.8,1.2,1.3,2.7,1.3,4.2c0,1.4-0.4,2.7-1,3.8C35,14,34.7,14.1,34.3,14.1z"/>
	</g>
	<g>
		<path d="M38.2,18.4c-0.2,0-0.4-0.1-0.6-0.2c-0.4-0.3-0.5-0.9-0.2-1.4c1.4-1.9,2.1-4.2,2.1-6.6
			c0-3.1-1.3-6.1-3.6-8.3c-0.4-0.4-0.4-1,0-1.4c0.4-0.4,1-0.4,1.4,0c2.7,2.5,4.2,6,4.2,9.7c0,2.8-0.9,5.5-2.5,7.8
			C38.9,18.3,38.6,18.4,38.2,18.4z"/>
	</g>
</g>
</svg>
