<?xml version="1.0" encoding="utf-8"?>
<!-- Generator: Adobe Illustrator 18.1.1, SVG Export Plug-In . SVG Version: 6.00 Build 0)  -->
<!DOCTYPE svg PUBLIC "-//W3C//DTD SVG 1.1//EN" "http://www.w3.org/Graphics/SVG/1.1/DTD/svg11.dtd">
<svg version="1.1" id="Слой_1" xmlns="http://www.w3.org/2000/svg" xmlns:xlink="http://www.w3.org/1999/xlink" x="0px" y="0px"
	 viewBox="0 0 50 50" enable-background="new 0 0 50 50" xml:space="preserve">
<g>
	<g id="ic_x5F_homelock">
		<g>
			
				<linearGradient id="SVGID_1_" gradientUnits="userSpaceOnUse" x1="-1491.9999" y1="-323.5127" x2="-1092.8062" y2="-323.5127" gradientTransform="matrix(6.297229e-002 0 0 -6.297229e-002 106.3526 4.4358)">
				<stop  offset="0" style="stop-color:#36A0FE"/>
				<stop  offset="1" style="stop-color:#1D7DD2"/>
			</linearGradient>
			<path fill="url(#SVGID_1_)" d="M32.3,37.5H17.6c-1.1,0-2.1-0.9-2.1-2.1v-7.2c-0.1,0-0.3,0-0.4,0c-0.6,0-1.4-0.1-2-0.5
				c-0.9-0.8-1-2.1-0.2-2.9c3.4-3.9,4.5-5.2,5.3-6.1c1-1.1,1.3-1.5,5.1-5.9c0.4-0.5,1-0.8,1.6-0.8h0.2c0.5,0,1.1,0.2,1.5,0.7
				l10.4,12c0.3,0.3,0.5,0.8,0.5,1.4c0,0.8-0.4,2.1-2.9,2.1c-0.1,0-0.2,0-0.3,0v7.2C34.4,36.6,33.5,37.5,32.3,37.5z M16.6,26.2h1
				v9.3c0,0,0,0.1,0.1,0.1h14.7c0,0,0.1,0,0.1-0.1v-9.3h1c0.2,0,0.4,0,0.6,0c0.2,0,0.5,0,0.7,0c0.7,0,0.9-0.1,0.9-0.1L35.5,26
				l-10.4-12l-0.2,0l-0.1,0.1c-3.7,4.3-4.1,4.7-5.1,5.9c-0.8,0.9-1.9,2.2-5.3,6.1c0,0,0.1,0.1,0.7,0.1c0.3,0,0.6,0,0.8,0
				C16.2,26.2,16.4,26.2,16.6,26.2z"/>
		</g>
	</g>
	<linearGradient id="SVGID_2_" gradientUnits="userSpaceOnUse" x1="19.8552" y1="27.733" x2="30.1448" y2="27.733">
		<stop  offset="0" style="stop-color:#36A0FE"/>
		<stop  offset="1" style="stop-color:#1D7DD2"/>
	</linearGradient>
	<path fill="url(#SVGID_2_)" d="M29.3,26.7h-6.4V25c0-0.6,0.3-1.1,0.6-1.5s0.9-0.6,1.5-0.6c0.6,0,1.1,0.3,1.5,0.6s0.6,0.9,0.6,1.5
		v0.4h1.3V25c0-0.9-0.3-1.8-1-2.4c-0.6-0.6-1.5-1-2.4-1c-0.9,0-1.8,0.3-2.4,1c-0.6,0.6-1,1.5-1,2.4v1.7h-0.9c-0.5,0-0.9,0.4-0.9,0.9
		V33c0,0.5,0.4,0.9,0.9,0.9h8.5c0.5,0,0.9-0.4,0.9-0.9v-5.4C30.1,27.1,29.7,26.7,29.3,26.7z"/>
	<g id="ic_x5F_homelock-wave">
		<g>
			<g>
				
					<linearGradient id="SVGID_3_" gradientUnits="userSpaceOnUse" x1="-1667.5568" y1="-326.5212" x2="-1483.3007" y2="-326.5212" gradientTransform="matrix(6.297229e-002 0 0 -6.297229e-002 106.3526 4.4358)">
					<stop  offset="0" style="stop-color:#36A0FE"/>
					<stop  offset="1" style="stop-color:#1D7DD2"/>
				</linearGradient>
				<path fill="url(#SVGID_3_)" d="M11.6,44.7C5.2,40.2,1.3,32.9,1.3,25.1c0-7.9,3.9-15.3,10.5-19.8L12.9,7
					c-6,4.1-9.6,10.9-9.6,18.1c0,7.1,3.5,13.9,9.4,18L11.6,44.7z"/>
			</g>
			<g>
				
					<linearGradient id="SVGID_4_" gradientUnits="userSpaceOnUse" x1="-1583.1632" y1="-331.0417" x2="-1484.1226" y2="-331.0417" gradientTransform="matrix(6.297229e-002 0 0 -6.297229e-002 106.3526 4.4358)">
					<stop  offset="0" style="stop-color:#36A0FE"/>
					<stop  offset="1" style="stop-color:#1D7DD2"/>
				</linearGradient>
				<path fill="url(#SVGID_4_)" d="M11.4,36.9c-3.1-3.6-4.7-7.7-4.7-11.9c0-4,1.5-7.9,4.4-11.5l1.6,1.3c-2.6,3.2-3.9,6.6-3.9,10.2
					c0,3.7,1.5,7.3,4.2,10.6L11.4,36.9z"/>
			</g>
			<g>
				
					<linearGradient id="SVGID_5_" gradientUnits="userSpaceOnUse" x1="-1100.4515" y1="-326.5212" x2="-916.2032" y2="-326.5212" gradientTransform="matrix(6.297229e-002 0 0 -6.297229e-002 106.3526 4.4358)">
					<stop  offset="0" style="stop-color:#36A0FE"/>
					<stop  offset="1" style="stop-color:#1D7DD2"/>
				</linearGradient>
				<path fill="url(#SVGID_5_)" d="M38.4,44.7L37.2,43c5.9-4.1,9.4-10.8,9.4-18c0-7.2-3.6-14-9.6-18.1l1.1-1.6
					c6.6,4.5,10.5,11.9,10.5,19.8C48.7,32.9,44.8,40.2,38.4,44.7z"/>
			</g>
			<g>
				
					<linearGradient id="SVGID_6_" gradientUnits="userSpaceOnUse" x1="-1098.8232" y1="-331.0417" x2="-999.8058" y2="-331.0417" gradientTransform="matrix(6.297229e-002 0 0 -6.297229e-002 106.3526 4.4358)">
					<stop  offset="0" style="stop-color:#36A0FE"/>
					<stop  offset="1" style="stop-color:#1D7DD2"/>
				</linearGradient>
				<path fill="url(#SVGID_6_)" d="M38.7,36.9l-1.5-1.3c2.8-3.2,4.2-6.9,4.2-10.6c0-3.6-1.3-7-3.9-10.2l1.6-1.3
					c2.8,3.5,4.4,7.5,4.4,11.5C43.4,29.2,41.8,33.3,38.7,36.9z"/>
			</g>
		</g>
	</g>
</g>
</svg>
