<?xml version="1.0" encoding="utf-8"?>
<!-- Generator: Adobe Illustrator 18.1.1, SVG Export Plug-In . SVG Version: 6.00 Build 0)  -->
<!DOCTYPE svg PUBLIC "-//W3C//DTD SVG 1.1//EN" "http://www.w3.org/Graphics/SVG/1.1/DTD/svg11.dtd">
<svg version="1.1" id="Слой_1" xmlns="http://www.w3.org/2000/svg" xmlns:xlink="http://www.w3.org/1999/xlink" x="0px" y="0px"
	 viewBox="0 0 50 50" enable-background="new 0 0 50 50" xml:space="preserve">
<g>
	<g id="ic_x5F_finger">
		<g>
			
				<linearGradient id="SVGID_1_" gradientUnits="userSpaceOnUse" x1="-1563.3795" y1="-401.1062" x2="-1047.0977" y2="-401.1062" gradientTransform="matrix(6.297229e-002 0 0 -6.297229e-002 109.1637 3.9673)">
				<stop  offset="0" style="stop-color:#36A0FE"/>
				<stop  offset="1" style="stop-color:#1D7DD2"/>
			</linearGradient>
			<path fill="url(#SVGID_1_)" d="M31.6,49.2c-4.3,0-7.5-2-9.5-6c-2.2-4.3-4.4-5.7-8.6-8.1l-1-0.6c-0.9-0.5-1.5-1.3-1.7-2.3
				c-0.2-1-0.1-2,0.4-2.9c0.5-0.9,1.4-1.5,2.3-1.7c1-0.2,2-0.1,2.9,0.4l4.2,2.5V12.9c0-2.5,1.9-3.7,3.6-3.7c1.8,0,3.6,1.3,3.6,3.7
				v4.5c0.4-0.1,0.8-0.2,1.2-0.2c1.5,0,2.8,0.8,3.5,2.1c0.5-0.2,0.9-0.3,1.4-0.3c1.7,0,3.1,1,3.7,2.4c0.5-0.2,1-0.3,1.5-0.3
				c2.2,0,4,1.8,4,4v13.3C43.2,44.5,38.1,49.2,31.6,49.2z M14.5,29.5c-0.1,0-0.3,0-0.4,0c-0.5,0.1-0.8,0.4-1.1,0.8
				c-0.3,0.4-0.3,0.9-0.2,1.4c0.1,0.5,0.4,0.8,0.8,1.1l1,0.6c4.2,2.5,6.9,4.1,9.3,9c1.7,3.3,4.2,4.9,7.7,4.9c5.4,0,9.6-3.8,9.6-8.7
				V25.2c0-1.1-0.9-2-2-2c-0.4,0-0.8,0.1-1.1,0.3v8.1h-2v-6.1l0,0v-2.4c0-1.1-0.9-2-2-2c-0.3,0-0.6,0.1-0.9,0.2v10.3h-2l0-10.6
				c-0.1-1-1-1.7-2-1.7c-0.4,0-0.9,0.1-1.2,0.4v11.9h-2V12.9c0-1.3-1-1.7-1.6-1.7c-0.8,0-1.6,0.4-1.6,1.7l0,18.5l-0.4,2.4l-6.8-4.1
				C15.1,29.6,14.8,29.5,14.5,29.5z"/>
		</g>
	</g>
	<g id="ic_x5F_finger-elem-1">
		<g>
			
				<linearGradient id="SVGID_2_" gradientUnits="userSpaceOnUse" x1="-1543.0267" y1="-96.0714" x2="-1496.6971" y2="-96.0714" gradientTransform="matrix(6.297229e-002 0 0 -6.297229e-002 109.1637 3.9673)">
				<stop  offset="0" style="stop-color:#36A0FE"/>
				<stop  offset="1" style="stop-color:#1D7DD2"/>
			</linearGradient>
			<path fill="url(#SVGID_2_)" d="M13,13.9c-0.7-1.1-1-2.4-1-3.8c0-1.4,0.4-2.9,1.2-4.1l1.7,1.1c-0.6,0.9-0.9,1.9-0.9,3
				c0,1,0.3,1.9,0.7,2.7L13,13.9z"/>
		</g>
		<g>
			
				<linearGradient id="SVGID_3_" gradientUnits="userSpaceOnUse" x1="-1625.9501" y1="-89.7675" x2="-1539.0055" y2="-89.7675" gradientTransform="matrix(6.297229e-002 0 0 -6.297229e-002 109.1637 3.9673)">
				<stop  offset="0" style="stop-color:#36A0FE"/>
				<stop  offset="1" style="stop-color:#1D7DD2"/>
			</linearGradient>
			<path fill="url(#SVGID_3_)" d="M9.2,18.2c-1.6-2.2-2.4-4.9-2.4-7.6C6.8,7,8.3,3.5,10.9,1l1.4,1.5c-2.2,2.1-3.5,5-3.5,8.1
				c0,2.3,0.7,4.6,2.1,6.5L9.2,18.2z"/>
		</g>
		<g>
			
				<linearGradient id="SVGID_4_" gradientUnits="userSpaceOnUse" x1="-1203.0132" y1="-96.0714" x2="-1156.6914" y2="-96.0714" gradientTransform="matrix(6.297229e-002 0 0 -6.297229e-002 109.1637 3.9673)">
				<stop  offset="0" style="stop-color:#36A0FE"/>
				<stop  offset="1" style="stop-color:#1D7DD2"/>
			</linearGradient>
			<path fill="url(#SVGID_4_)" d="M35.3,13.9l-1.7-1c0.5-0.8,0.7-1.8,0.7-2.7c0-1.1-0.3-2.1-0.9-3l1.7-1.1c0.8,1.2,1.2,2.7,1.2,4.1
				C36.3,11.5,36,12.8,35.3,13.9z"/>
		</g>
		<g>
			
				<linearGradient id="SVGID_5_" gradientUnits="userSpaceOnUse" x1="-1160.832" y1="-89.7675" x2="-1073.8951" y2="-89.7675" gradientTransform="matrix(6.297229e-002 0 0 -6.297229e-002 109.1637 3.9673)">
				<stop  offset="0" style="stop-color:#36A0FE"/>
				<stop  offset="1" style="stop-color:#1D7DD2"/>
			</linearGradient>
			<path fill="url(#SVGID_5_)" d="M39.1,18.2L37.5,17c1.4-1.9,2.1-4.1,2.1-6.5c0-3.1-1.3-6-3.5-8.1L37.4,1c2.6,2.4,4.1,5.9,4.1,9.5
				C41.5,13.3,40.7,16,39.1,18.2z"/>
		</g>
	</g>
</g>
</svg>
