<?xml version="1.0" encoding="utf-8"?>
<!-- Generator: Adobe Illustrator 18.1.1, SVG Export Plug-In . SVG Version: 6.00 Build 0)  -->
<!DOCTYPE svg PUBLIC "-//W3C//DTD SVG 1.1//EN" "http://www.w3.org/Graphics/SVG/1.1/DTD/svg11.dtd">
<svg version="1.1" id="PANEL_x5F_LOW_x5F_BATTERY" xmlns="http://www.w3.org/2000/svg" xmlns:xlink="http://www.w3.org/1999/xlink"
	 x="0px" y="0px" viewBox="0 0 50 50" enable-background="new 0 0 50 50" xml:space="preserve">
<g>
	<linearGradient id="SVGID_1_" gradientUnits="userSpaceOnUse" x1="2" y1="25.5" x2="47" y2="25.5">
		<stop  offset="0" style="stop-color:#36A0FE"/>
		<stop  offset="1" style="stop-color:#1D7DD2"/>
	</linearGradient>
	<path fill="url(#SVGID_1_)" d="M44.6,3H4.5C3.2,3,2,4.4,2,5.7v33.1C2,40.1,3.2,41,4.5,41H6v4.5c0,1,0.9,2.5,1.8,2.5h20.4
		c1,0,1.8-1.5,1.8-2.5V43h0.9c1.2,0,2.1-0.5,2.1-1.7V41h11.6c1.3,0,2.4-0.9,2.4-2.2V5.7C47,4.4,45.8,3,44.6,3z M33,39v-5.2
		c0-1.2-0.8-1.8-2.1-1.8H30v-2.4c0-1-0.8-1.6-1.8-1.6H14V5h21v34H33z M6,39H4.5C4.2,39,4,39,4,38.8V5.7C4,5.5,4.2,5,4.5,5H13v23H7.8
		c-1,0-1.8,0.6-1.8,1.6V39z M28,45H8v-4.6c0-0.1,0-0.2,0-0.3V30h20v2.5c0,0.1,0,0.2,0,0.3v9.8v0.1V45z M30.9,42H30v-9h0.9
		c0.2,0,0.1,0.6,0.1,0.8v6.4c0,0.1,0,0.2,0,0.3v0.9C31,41.5,31.1,42,30.9,42z M45,38.8c0,0.2-0.2,0.2-0.4,0.2H36V5h8.6
		C44.8,5,45,5.5,45,5.7V38.8z"/>
	<linearGradient id="SVGID_2_" gradientUnits="userSpaceOnUse" x1="22.3" y1="9.4" x2="26.7" y2="9.4">
		<stop  offset="0" style="stop-color:#36A0FE"/>
		<stop  offset="1" style="stop-color:#1D7DD2"/>
	</linearGradient>
	<path fill="url(#SVGID_2_)" d="M24.5,11.6c1.2,0,2.2-1,2.2-2.2s-1-2.2-2.2-2.2s-2.2,1-2.2,2.2S23.3,11.6,24.5,11.6z M24.5,8.4
		c0.5,0,1,0.4,1,1c0,0.5-0.4,1-1,1s-1-0.4-1-1C23.5,8.9,24,8.4,24.5,8.4z"/>
	<linearGradient id="SVGID_3_" gradientUnits="userSpaceOnUse" x1="16" y1="16.55" x2="33.1" y2="16.55">
		<stop  offset="0" style="stop-color:#36A0FE"/>
		<stop  offset="1" style="stop-color:#1D7DD2"/>
	</linearGradient>
	<path fill="url(#SVGID_3_)" d="M33,14.3c0-0.1-0.1-0.3-0.3-0.3H16.3c-0.1,0-0.3,0.1-0.3,0.3v4.5c0,0.1,0.1,0.3,0.3,0.3h16.5
		c0.1,0,0.3-0.1,0.3-0.3L33,14.3L33,14.3z"/>
	<linearGradient id="SVGID_4_" gradientUnits="userSpaceOnUse" x1="16" y1="23" x2="21" y2="23">
		<stop  offset="0" style="stop-color:#36A0FE"/>
		<stop  offset="1" style="stop-color:#1D7DD2"/>
	</linearGradient>
	<path fill="url(#SVGID_4_)" d="M16,23c0,0.6,0.5,1,1,1h4v-2h-4C16.4,22,16,22.4,16,23z"/>
	<linearGradient id="SVGID_5_" gradientUnits="userSpaceOnUse" x1="22" y1="23" x2="27" y2="23">
		<stop  offset="0" style="stop-color:#36A0FE"/>
		<stop  offset="1" style="stop-color:#1D7DD2"/>
	</linearGradient>
	<rect x="22" y="22" fill="url(#SVGID_5_)" width="5" height="2"/>
	<linearGradient id="SVGID_6_" gradientUnits="userSpaceOnUse" x1="28" y1="23" x2="33" y2="23">
		<stop  offset="0" style="stop-color:#36A0FE"/>
		<stop  offset="1" style="stop-color:#1D7DD2"/>
	</linearGradient>
	<path fill="url(#SVGID_6_)" d="M32,22h-4v2h4c0.6,0,1-0.4,1-1S32.6,22,32,22z"/>
	<linearGradient id="SVGID_7_" gradientUnits="userSpaceOnUse" x1="9" y1="37.558" x2="13" y2="37.558">
		<stop  offset="0" style="stop-color:#36A0FE"/>
		<stop  offset="1" style="stop-color:#1D7DD2"/>
	</linearGradient>
	<path fill="url(#SVGID_7_)" d="M12.5,31H10c-0.3,0-1,0-1,0.3v12.6c0,0.3,0.7,0.2,1,0.2h2.5c0.3,0,0.5,0.1,0.5-0.2V31.3
		C13,31,12.7,31,12.5,31z"/>
</g>
</svg>
