<?xml version="1.0" encoding="utf-8"?>
<!-- Generator: Adobe Illustrator 18.1.1, SVG Export Plug-In . SVG Version: 6.00 Build 0)  -->
<!DOCTYPE svg PUBLIC "-//W3C//DTD SVG 1.1//EN" "http://www.w3.org/Graphics/SVG/1.1/DTD/svg11.dtd">
<svg version="1.1" id="Слой_1" xmlns="http://www.w3.org/2000/svg" xmlns:xlink="http://www.w3.org/1999/xlink" x="0px" y="0px"
	 viewBox="0 0 50 50" enable-background="new 0 0 50 50" xml:space="preserve">
<g id="ic_x5F_screwdriver">
	<g>
		
			<linearGradient id="SVGID_1_" gradientUnits="userSpaceOnUse" x1="-1708.6064" y1="-367.9627" x2="-941.2465" y2="-367.9627" gradientTransform="matrix(6.297229e-002 0 0 -6.297229e-002 108.2267 1.6247)">
			<stop  offset="0" style="stop-color:#36A0FE"/>
			<stop  offset="1" style="stop-color:#1D7DD2"/>
		</linearGradient>
		<path fill="url(#SVGID_1_)" d="M39.2,48.8c-1.5,0-2.5-1.1-4-2.7c-0.4-0.4-0.8-0.8-1.3-1.3l-9.6-9.6c-1.2-1.2-2-2.7-2.7-4.2
			c-0.7-1.5-1.5-3-2.8-4.4c-1.4,0.5-2.9,0.1-3.9-0.9c-1.5-1.5-1.5-3.8,0-5.4l0.1-0.1L7,12.2C6.9,12,6.7,12,6.3,12
			c-0.5-0.1-1.4-0.2-2.2-0.9L0.6,7.5l6.8-6.8L11,4.2c0.8,0.8,0.9,1.6,0.9,2.2c0,0.4,0.1,0.6,0.2,0.8l7.9,7.9l0.3-0.3
			c1.4-1.4,3.9-1.4,5.4,0c1.1,1.1,1.4,2.6,0.9,3.9c1.5,1.3,3,2.1,4.5,2.8c1.5,0.7,2.9,1.4,4.2,2.7l9.6,9.6c0.5,0.5,0.9,0.9,1.3,1.3
			c1.6,1.6,2.7,2.6,2.7,4c0,1.6-1.2,3-3.9,5.8l-0.3,0.3C42.1,47.7,40.7,48.8,39.2,48.8z M19.1,24.1l0.5,0.6c1.8,1.8,2.8,3.8,3.6,5.5
			c0.7,1.4,1.3,2.7,2.3,3.7l9.7,9.6c0.5,0.5,0.9,1,1.3,1.4c1.2,1.3,2,2.1,2.6,2.1c0.8,0,2.2-1.3,4.3-3.4l0.3-0.3
			c1.9-1.9,3.1-3.3,3.1-4.1c0-0.6-0.8-1.4-2.1-2.6c-0.4-0.4-0.9-0.8-1.3-1.3l-9.6-9.6c-1-1-2.2-1.6-3.6-2.3
			c-1.7-0.8-3.6-1.8-5.5-3.7L24.1,19l0.4-0.7c0.4-0.7,0.3-1.6-0.3-2.2c-0.7-0.7-1.9-0.7-2.6,0L20,17.9l-9.3-9.3
			C10,7.9,10,7.2,9.9,6.6c-0.1-0.5-0.1-0.7-0.4-1L7.4,3.6l-4,4l2.1,2.1c0.3,0.3,0.5,0.3,1,0.4c0.5,0.1,1.3,0.1,1.9,0.8l9.3,9.3
			l-1.5,1.5c-0.7,0.7-0.7,1.9,0,2.6c0.6,0.6,1.5,0.7,2.2,0.2L19.1,24.1z"/>
	</g>
</g>
<g id="ic_x5F_screwdriver-elem-1">
	<g>
		
			<linearGradient id="SVGID_2_" gradientUnits="userSpaceOnUse" x1="-1277.0706" y1="-545.6862" x2="-1013.2516" y2="-545.6862" gradientTransform="matrix(6.297229e-002 0 0 -6.297229e-002 108.2267 1.6247)">
			<stop  offset="0" style="stop-color:#36A0FE"/>
			<stop  offset="1" style="stop-color:#1D7DD2"/>
		</linearGradient>
		<path fill="url(#SVGID_2_)" d="M38.8,44.3l-11-11l1.4-1.4l11,11L38.8,44.3z M40.9,42.2l-11-11l1.4-1.4l11,11L40.9,42.2z M43,40.1
			l-11-11l1.4-1.4l11,11L43,40.1z"/>
	</g>
</g>
</svg>
