<?xml version="1.0" encoding="utf-8"?>
<!-- Generator: Adobe Illustrator 18.1.1, SVG Export Plug-In . SVG Version: 6.00 Build 0)  -->
<!DOCTYPE svg PUBLIC "-//W3C//DTD SVG 1.1//EN" "http://www.w3.org/Graphics/SVG/1.1/DTD/svg11.dtd">
<svg version="1.1" id="Слой_1" xmlns="http://www.w3.org/2000/svg" xmlns:xlink="http://www.w3.org/1999/xlink" x="0px" y="0px"
	 viewBox="0 0 50 50" enable-background="new 0 0 50 50" xml:space="preserve">
<g id="ic_x5F_screwdriver">
	<g>
		<path d="M39.7,49.4c-1.5,0-2.5-1.1-4.2-2.8c-0.4-0.4-0.8-0.9-1.3-1.4l-10-9.9c-1.3-1.3-2-2.8-2.8-4.3
			c-0.8-1.5-1.5-3.1-2.9-4.6c-1.4,0.5-3,0.1-4-0.9c-1.5-1.5-1.5-4,0-5.5l0.2-0.2l-8.2-8.2c-0.2-0.2-0.3-0.2-0.8-0.3
			c-0.6-0.1-1.4-0.2-2.2-1L0.6,7.5C0.4,7.3,0.3,7,0.3,6.8s0.1-0.5,0.3-0.7l5.5-5.5c0.4-0.4,1-0.4,1.4,0l3,2.9
			c0.8,0.8,0.9,1.6,0.9,2.2c0.1,0.5,0.1,0.6,0.3,0.8l8.2,8.2l0.4-0.4c1.5-1.5,4-1.5,5.5,0c1.1,1.1,1.4,2.7,0.9,4.1
			c1.5,1.4,3.1,2.2,4.6,2.9c1.6,0.8,3,1.5,4.3,2.8l10,9.9c0.5,0.5,1,0.9,1.4,1.3c1.7,1.6,2.8,2.7,2.8,4.2c0,1.6-1.2,3.1-4.1,6
			c-0.1,0.1-0.1,0.1-0.2,0.2C42.7,48.2,41.2,49.4,39.7,49.4L39.7,49.4z M18.8,24.2c0.3,0,0.5,0.1,0.7,0.3c1.9,1.9,2.9,3.9,3.7,5.6
			c0.7,1.5,1.4,2.8,2.4,3.8l10,9.9c0.5,0.5,1,1,1.4,1.4c1.2,1.3,2.1,2.2,2.7,2.2c0.8,0,2.3-1.3,4.5-3.5c0.1-0.1,0.1-0.1,0.2-0.2
			c2.1-2.1,3.4-3.6,3.4-4.4c0-0.6-0.9-1.5-2.2-2.7c-0.4-0.4-0.9-0.8-1.4-1.4l-10-9.9c-1-1-2.3-1.7-3.8-2.4c-1.8-0.9-3.8-1.9-5.7-3.8
			c-0.3-0.3-0.4-0.8-0.1-1.2c0.5-0.7,0.4-1.7-0.3-2.3c-0.7-0.7-2-0.7-2.7,0l-1.1,1.1c-0.4,0.4-1,0.4-1.4,0l-8.9-8.9
			c-0.7-0.7-0.7-1.4-0.8-2c-0.1-0.5-0.1-0.7-0.4-1L6.8,2.6L2.7,6.8L4.9,9c0.3,0.3,0.6,0.3,1,0.4c0.5,0.1,1.3,0.1,2,0.8l8.9,8.9
			c0.2,0.2,0.3,0.4,0.3,0.7s-0.1,0.5-0.3,0.7l-0.9,0.9c-0.7,0.8-0.7,2,0,2.7c0.6,0.6,1.6,0.7,2.3,0.3C18.4,24.2,18.6,24.2,18.8,24.2
			z"/>
	</g>
</g>
<g id="ic_x5F_screwdriver-elem-1">
	<g>
		<path d="M40.1,45c-0.3,0-0.5-0.1-0.7-0.3L28,33.4c-0.4-0.4-0.4-1,0-1.4s1-0.4,1.4,0l11.4,11.4c0.4,0.4,0.4,1,0,1.4
			C40.6,45,40.3,45,40.1,45z M42.2,42.9c-0.3,0-0.5-0.1-0.7-0.3L30.1,31.2c-0.4-0.4-0.4-1,0-1.4s1-0.4,1.4,0l11.4,11.4
			c0.4,0.4,0.4,1,0,1.4C42.7,42.8,42.4,42.9,42.2,42.9z M44.4,40.7c-0.3,0-0.5-0.1-0.7-0.3L32.3,29c-0.4-0.4-0.4-1,0-1.4
			s1-0.4,1.4,0L45.1,39c0.4,0.4,0.4,1,0,1.4C44.9,40.6,44.6,40.7,44.4,40.7z"/>
	</g>
</g>
</svg>
