<?xml version="1.0" encoding="utf-8"?>
<!-- Generator: Adobe Illustrator 17.0.0, SVG Export Plug-In . SVG Version: 6.00 Build 0)  -->
<!DOCTYPE svg PUBLIC "-//W3C//DTD SVG 1.1 Tiny//EN" "http://www.w3.org/Graphics/SVG/1.1/DTD/svg11-tiny.dtd">
<svg version="1.1" baseProfile="tiny" id="Слой_1"
	 xmlns="http://www.w3.org/2000/svg" xmlns:xlink="http://www.w3.org/1999/xlink" x="0px" y="0px"
	 viewBox="0 0 29 17" xml:space="preserve">
<path d="M14.5,17C6.492,17,0,13.194,0,8.5S6.492,0,14.5,0S29,3.806,29,8.5S22.508,17,14.5,17z
	 M21,8.5C21,4.358,18.09,1,14.5,1S8,4.358,8,8.5s2.91,7.5,6.5,7.5S21,12.642,21,8.5z M1,8.5c0,3.362,3.982,6.207,9.468,7.159
	C8.385,14.149,7,11.51,7,8.5s1.385-5.649,3.468-7.159C4.982,2.293,1,5.138,1,8.5z M18.532,1.341C20.615,2.851,22,5.49,22,8.5
	s-1.385,5.649-3.468,7.159C24.018,14.706,28,11.862,28,8.5S24.018,2.293,18.532,1.341z M14.5,5C16.433,5,18,6.567,18,8.5
	S16.433,12,14.5,12S11,10.433,11,8.5S12.567,5,14.5,5z"/>
</svg>
