<?xml version="1.0" encoding="utf-8"?>
<!-- Generator: Adobe Illustrator 18.1.1, SVG Export Plug-In . SVG Version: 6.00 Build 0)  -->
<!DOCTYPE svg PUBLIC "-//W3C//DTD SVG 1.1//EN" "http://www.w3.org/Graphics/SVG/1.1/DTD/svg11.dtd">
<svg version="1.1" id="went_x5F_offline" xmlns="http://www.w3.org/2000/svg" xmlns:xlink="http://www.w3.org/1999/xlink" x="0px"
	 y="0px" viewBox="0 0 50 50" enable-background="new 0 0 50 50" xml:space="preserve">
<path fill="#253339" d="M31,4.3H5.2c-1,0-1.8,0.8-1.8,1.8v21.2c0,1,0.8,1.8,1.8,1.8H31c1,0,1.8-0.8,1.8-1.8V6.1
	C32.8,5.1,32,4.3,31,4.3z M11.6,27.3V6.1h13v21.2H11.6z M5.3,27.3V6.1h5.1v21.2H6.9H5.3z M31,27.3h-5.2V6.1H31V27.3z"/>
<g>
	<path fill="#253339" d="M18.1,9.9c-0.8,0-1.4-0.6-1.4-1.4c0-0.8,0.6-1.4,1.4-1.4s1.4,0.6,1.4,1.4S18.9,9.9,18.1,9.9z M18.1,7.9
		c-0.3,0-0.6,0.3-0.6,0.6s0.3,0.6,0.6,0.6c0.3,0,0.6-0.3,0.6-0.6C18.7,8.1,18.5,7.9,18.1,7.9z"/>
</g>
<g>
	<path fill="#253339" d="M12.7,11.4h10.8c0.1,0,0.2,0.1,0.2,0.2v2.9c0,0.1-0.1,0.2-0.2,0.2H12.7c-0.1,0-0.2-0.1-0.2-0.2v-2.9
		C12.5,11.5,12.6,11.4,12.7,11.4L12.7,11.4z"/>
</g>
<g>
	<path fill="#253339" d="M13.3,16.5h2.4v1.3h-2.4c-0.4,0-0.7-0.3-0.7-0.7l0,0C12.6,16.8,12.9,16.5,13.3,16.5L13.3,16.5z M16.3,16.5
		h3.5v1.3h-3.5V16.5L16.3,16.5z M20.5,16.5h2.4c0.4,0,0.7,0.3,0.7,0.7l0,0c0,0.4-0.3,0.7-0.7,0.7h-2.4V16.5L20.5,16.5z"/>
</g>
<g>
	<path fill="#253339" d="M39.6,46.3L39.6,46.3c-0.3,0-0.6-0.1-0.8-0.3l-4.1-4.2c-0.4-0.5-0.4-1.2,0-1.6c0.5-0.4,1.2-0.4,1.6,0
		l2.1,2.2v-4.6H31c-0.6,0-1.2-0.5-1.2-1.2s0.5-1.2,1.2-1.2h8.6c0.6,0,1.2,0.5,1.2,1.2v5.8l2.2-2.2c0.4-0.5,1.2-0.5,1.6,0
		c0.5,0.4,0.5,1.2,0,1.6L40.5,46C40.2,46.2,39.9,46.3,39.6,46.3z M18.6,37.7H14c-0.6,0-1.2-0.5-1.2-1.2V29c0-0.6,0.5-1.2,1.2-1.2
		c0.6,0,1.2,0.5,1.2,1.2v6.4h3.5c0.6,0,1.2,0.5,1.2,1.2S19.3,37.7,18.6,37.7z"/>
</g>
<g>
	<path fill="#253339" d="M28.4,41.7c-0.4,0-0.7-0.1-1-0.4l-2.6-2.6l-2.6,2.6c-0.5,0.5-1.4,0.5-2,0c-0.5-0.5-0.5-1.4,0-2l2.6-2.6
		l-2.6-2.6c-0.5-0.5-0.5-1.4,0-2c0.5-0.5,1.4-0.5,2,0l2.6,2.6l2.6-2.6c0.5-0.5,1.4-0.5,2,0c0.5,0.5,0.5,1.4,0,2l-2.6,2.6l2.6,2.6
		c0.5,0.5,0.5,1.4,0,2C29.1,41.5,28.7,41.7,28.4,41.7z"/>
</g>
</svg>
