<?xml version="1.0" encoding="utf-8"?>
<!-- Generator: Adobe Illustrator 18.1.1, SVG Export Plug-In . SVG Version: 6.00 Build 0)  -->
<!DOCTYPE svg PUBLIC "-//W3C//DTD SVG 1.1//EN" "http://www.w3.org/Graphics/SVG/1.1/DTD/svg11.dtd">
<svg version="1.1" id="went_x5F_offline" xmlns="http://www.w3.org/2000/svg" xmlns:xlink="http://www.w3.org/1999/xlink" x="0px"
	 y="0px" viewBox="0 0 50 50" enable-background="new 0 0 50 50" xml:space="preserve">
<g>
	
		<linearGradient id="SVGID_1_" gradientUnits="userSpaceOnUse" x1="16.7" y1="41.5" x2="19.5" y2="41.5" gradientTransform="matrix(1 0 0 -1 0 50)">
		<stop  offset="0" style="stop-color:#36A0FE"/>
		<stop  offset="1" style="stop-color:#1D7DD2"/>
	</linearGradient>
	<path fill="url(#SVGID_1_)" d="M18.1,9.9c-0.8,0-1.4-0.6-1.4-1.4c0-0.8,0.6-1.4,1.4-1.4s1.4,0.6,1.4,1.4S18.9,9.9,18.1,9.9z
		 M18.1,7.9c-0.3,0-0.6,0.3-0.6,0.6s0.3,0.6,0.6,0.6c0.3,0,0.6-0.3,0.6-0.6C18.7,8.1,18.5,7.9,18.1,7.9z"/>
</g>
<g>
	
		<linearGradient id="SVGID_2_" gradientUnits="userSpaceOnUse" x1="12.5" y1="36.95" x2="23.7" y2="36.95" gradientTransform="matrix(1 0 0 -1 0 50)">
		<stop  offset="0" style="stop-color:#36A0FE"/>
		<stop  offset="1" style="stop-color:#1D7DD2"/>
	</linearGradient>
	<path fill="url(#SVGID_2_)" d="M12.7,11.4h10.8c0.1,0,0.2,0.1,0.2,0.2v2.9c0,0.1-0.1,0.2-0.2,0.2H12.7c-0.1,0-0.2-0.1-0.2-0.2v-2.9
		C12.5,11.5,12.6,11.4,12.7,11.4L12.7,11.4z"/>
</g>
<g>
	
		<linearGradient id="SVGID_3_" gradientUnits="userSpaceOnUse" x1="12.6" y1="32.8" x2="23.6" y2="32.8" gradientTransform="matrix(1 0 0 -1 0 50)">
		<stop  offset="0" style="stop-color:#36A0FE"/>
		<stop  offset="1" style="stop-color:#1D7DD2"/>
	</linearGradient>
	<path fill="url(#SVGID_3_)" d="M13.3,16.5h2.4v1.3h-2.4c-0.4,0-0.7-0.3-0.7-0.7l0,0C12.6,16.8,12.9,16.5,13.3,16.5L13.3,16.5z
		 M16.3,16.5h3.5v1.3h-3.5V16.5L16.3,16.5z M20.5,16.5h2.4c0.4,0,0.7,0.3,0.7,0.7l0,0c0,0.4-0.3,0.7-0.7,0.7h-2.4V16.5L20.5,16.5z"
		/>
</g>
<g>
	<linearGradient id="SVGID_4_" gradientUnits="userSpaceOnUse" x1="29.8" y1="40.85" x2="44.975" y2="40.85">
		<stop  offset="0" style="stop-color:#36A0FE"/>
		<stop  offset="1" style="stop-color:#1D7DD2"/>
	</linearGradient>
	<path fill="url(#SVGID_4_)" d="M44.6,40.2c-0.4-0.5-1.2-0.5-1.6,0l-2.2,2.2v-5.8c0-0.7-0.6-1.2-1.2-1.2H31c-0.7,0-1.2,0.5-1.2,1.2
		c0,0.7,0.6,1.2,1.2,1.2h7.4v4.6l-2.1-2.2c-0.4-0.4-1.1-0.4-1.6,0c-0.4,0.4-0.4,1.1,0,1.6l4.1,4.2c0.2,0.2,0.5,0.3,0.8,0.3
		c0.3,0,0.6-0.1,0.9-0.3l4.1-4.2C45.1,41.4,45.1,40.6,44.6,40.2z"/>
	<linearGradient id="SVGID_5_" gradientUnits="userSpaceOnUse" x1="3.4" y1="21" x2="32.8" y2="21">
		<stop  offset="0" style="stop-color:#36A0FE"/>
		<stop  offset="1" style="stop-color:#1D7DD2"/>
	</linearGradient>
	<path fill="url(#SVGID_5_)" d="M18.7,35.4h-3.5v-6.3H31c1,0,1.8-0.8,1.8-1.8V6.1c0-1-0.8-1.8-1.8-1.8H5.2c-1,0-1.8,0.8-1.8,1.8
		v21.2c0,1,0.8,1.8,1.8,1.8h7.6v7.4c0,0.7,0.6,1.2,1.2,1.2h4.6c0.7,0,1.3-0.4,1.3-1.1C19.9,35.9,19.3,35.4,18.7,35.4z M25.8,6.1H31
		v21.2h-5.2V6.1z M10.4,27.3H6.9H5.3V6.1h5.1V27.3z M11.6,6.1h13v21.2h-13V6.1z"/>
</g>
<g>
	
		<linearGradient id="SVGID_6_" gradientUnits="userSpaceOnUse" x1="19.825" y1="13.2875" x2="29.775" y2="13.2875" gradientTransform="matrix(1 0 0 -1 0 50)">
		<stop  offset="0" style="stop-color:#36A0FE"/>
		<stop  offset="1" style="stop-color:#1D7DD2"/>
	</linearGradient>
	<path fill="url(#SVGID_6_)" d="M28.4,41.7c-0.4,0-0.7-0.1-1-0.4l-2.6-2.6l-2.6,2.6c-0.5,0.5-1.4,0.5-2,0c-0.5-0.5-0.5-1.4,0-2
		l2.6-2.6l-2.6-2.6c-0.5-0.5-0.5-1.4,0-2c0.5-0.5,1.4-0.5,2,0l2.6,2.6l2.6-2.6c0.5-0.5,1.4-0.5,2,0c0.5,0.5,0.5,1.4,0,2l-2.6,2.6
		l2.6,2.6c0.5,0.5,0.5,1.4,0,2C29.1,41.5,28.7,41.7,28.4,41.7z"/>
</g>
</svg>
