<?xml version="1.0" encoding="utf-8"?>
<!-- Generator: Adobe Illustrator 19.1.0, SVG Export Plug-In . SVG Version: 6.00 Build 0)  -->
<svg version="1.0" xmlns="http://www.w3.org/2000/svg" xmlns:xlink="http://www.w3.org/1999/xlink" x="0px" y="0px" width="612px" height="792"
	 viewBox="0 0 612 792" style="enable-background:new 0 0 612 792;" xml:space="preserve">
<style type="text/css">
	.st0{display:none;}
	.st1{display:inline;fill:none;}
	.st2{display:inline;fill-rule:evenodd;clip-rule:evenodd;fill:none;}
	.st3{display:inline;fill:#EBEBEB;}
	.st4{display:inline;fill:#D2D2D2;}
	.st5{display:inline;fill-rule:evenodd;clip-rule:evenodd;fill:#EBEBEB;}
	.st6{fill-rule:evenodd;clip-rule:evenodd;fill:#FFFFFF;}
	.st7{fill-rule:evenodd;clip-rule:evenodd;fill:#494949;}
	.st8{fill-rule:evenodd;clip-rule:evenodd;fill:#003F84;}
	.st9{fill:#959595;}
	.st10{fill:#7A7A7A;}
	.st11{fill:#1969C7;}
	.st12{fill-rule:evenodd;clip-rule:evenodd;fill:#1969C7;}
	.st13{fill:#949596;}
	.st14{fill:#003F84;}
	.st15{fill-rule:evenodd;clip-rule:evenodd;fill:#FBB5B5;}
	.st16{fill:#F30B0B;}
	.st17{fill-rule:evenodd;clip-rule:evenodd;fill:none;}
</style>
<g id="Layer_2" class="st0">
	<rect x="8.2" y="8" class="st1" width="600" height="1200"/>
	<rect x="8.2" y="8" class="st2" width="600" height="1200"/>
	<rect x="8.2" y="8" class="st1" width="612" height="1200"/>
	<rect x="8.2" y="8" class="st1" width="600" height="1200"/>
	<rect x="8.2" y="8" class="st2" width="600" height="1200"/>
	<rect x="8.2" y="8" class="st1" width="612" height="1200"/>
	<rect x="8.2" y="8" class="st1" width="600" height="1200"/>
	<rect x="8.2" y="8" class="st2" width="600" height="1200"/>
	<rect x="8.2" y="8" class="st1" width="612" height="1200"/>
	<rect x="8.2" y="8" class="st1" width="600" height="1200"/>
	<rect x="8.2" y="8" class="st1" width="600" height="1200"/>
	<rect x="8.2" y="8" class="st2" width="600" height="1200"/>
	<rect x="8.2" y="8" class="st1" width="612" height="1200"/>
	<rect x="8.2" y="8" class="st1" width="600" height="1200"/>
	<rect x="8.2" y="8" class="st2" width="600" height="1200"/>
	<rect x="8.2" y="8" class="st1" width="612" height="1200"/>
	<rect x="8.2" y="8" class="st1" width="600" height="1200"/>
	<rect x="8.2" y="8" class="st2" width="600" height="1200"/>
	<rect x="8.2" y="8" class="st1" width="612" height="1200"/>
	<rect x="8.2" y="8" class="st1" width="600" height="1200"/>
	<rect x="8.2" y="8" class="st2" width="600" height="1200"/>
	<rect x="8.2" y="8" class="st1" width="612" height="1200"/>
	<rect x="8.2" y="8" class="st1" width="600" height="1200"/>
	<rect x="8.2" y="8" class="st2" width="600" height="1200"/>
	<rect x="8.2" y="8" class="st1" width="612" height="1200"/>
	<rect x="8.2" y="8" class="st1" width="600" height="1200"/>
	<rect x="8.2" y="8" class="st2" width="600" height="1200"/>
	<rect x="8.2" y="8" class="st1" width="612" height="1200"/>
	<rect x="8.2" y="8" class="st1" width="600" height="1200"/>
	<rect x="8.2" y="8" class="st2" width="600" height="1200"/>
	<rect x="8.2" y="8" class="st1" width="612" height="1200"/>
	<rect x="8.2" y="8" class="st1" width="600" height="1200"/>
	<rect x="8.2" y="8" class="st2" width="600" height="1200"/>
	<rect x="8.2" y="8" class="st1" width="612" height="1200"/>
	<rect x="8.2" y="8" class="st1" width="600" height="1200"/>
	<rect x="8.2" y="8" class="st2" width="600" height="1200"/>
	<rect x="8.2" y="8" class="st1" width="612" height="1200"/>
	<rect x="8.2" y="8" class="st1" width="600" height="1200"/>
	<rect x="8.2" y="8" class="st2" width="600" height="1200"/>
	<rect x="8.2" y="8" class="st1" width="612" height="1200"/>
	<rect x="8.2" y="8" class="st1" width="600" height="1200"/>
	<rect x="8.2" y="8" class="st2" width="600" height="1200"/>
	<rect x="8.2" y="8" class="st1" width="612" height="1200"/>
	<rect x="8.2" y="8" class="st1" width="600" height="1200"/>
	<rect x="8.2" y="8" class="st2" width="600" height="1200"/>
	<rect x="8.2" y="8" class="st1" width="612" height="1200"/>
	<rect x="8.2" y="8" class="st1" width="600" height="1200"/>
	<rect x="8.2" y="8" class="st2" width="600" height="1200"/>
	<rect x="8.2" y="8" class="st1" width="612" height="1200"/>
	<rect x="8.2" y="8" class="st1" width="600" height="1200"/>
	<rect x="8.2" y="8" class="st2" width="600" height="1200"/>
	<rect x="8.2" y="8" class="st1" width="612" height="1200"/>
	<rect x="8.2" y="8" class="st1" width="600" height="1200"/>
	<rect x="8.2" y="8" class="st2" width="600" height="1200"/>
	<rect x="8.2" y="8" class="st1" width="612" height="1200"/>
	<rect x="8.2" y="8" class="st1" width="600" height="1200"/>
	<rect x="8.2" y="8" class="st2" width="600" height="1200"/>
	<rect x="8.2" y="8" class="st1" width="612" height="1200"/>
	<rect x="8.2" y="8" class="st1" width="600" height="1200"/>
	<rect x="8.2" y="8" class="st2" width="600" height="1200"/>
	<rect x="8.2" y="8" class="st1" width="612" height="1200"/>
	<rect x="8.2" y="8" class="st1" width="600" height="1200"/>
	<rect x="8.2" y="8" class="st2" width="600" height="1200"/>
	<rect x="8.2" y="8" class="st1" width="612" height="1200"/>
	<rect x="8.2" y="8" class="st1" width="600" height="1200"/>
	<rect x="8.2" y="8" class="st2" width="600" height="1200"/>
	<rect x="8.2" y="8" class="st1" width="612" height="1200"/>
	<rect x="8.2" y="8" class="st1" width="600" height="1200"/>
	<rect x="8.2" y="8" class="st2" width="600" height="1200"/>
	<rect x="8.2" y="8" class="st1" width="612" height="1200"/>
	<rect x="8.2" y="8" class="st1" width="600" height="1200"/>
	<rect x="8.2" y="8" class="st2" width="600" height="1200"/>
	<rect x="8.2" y="8" class="st1" width="612" height="1200"/>
	<rect x="8.2" y="8" class="st1" width="600" height="1200"/>
	<rect x="8.2" y="8" class="st2" width="600" height="1200"/>
	<rect x="8.2" y="8" class="st1" width="612" height="1200"/>
	<rect x="8.2" y="8" class="st1" width="600" height="1200"/>
	<rect x="8.2" y="8" class="st2" width="600" height="1200"/>
	<rect x="8.2" y="8" class="st1" width="612" height="1200"/>
	<rect x="8.2" y="8" class="st1" width="600" height="1200"/>
	<rect x="8.2" y="8" class="st2" width="600" height="1200"/>
	<rect x="8.2" y="8" class="st1" width="612" height="1200"/>
	<rect x="8.2" y="8" class="st1" width="600" height="1200"/>
	<rect x="8.2" y="8" class="st2" width="600" height="1200"/>
	<rect x="8.2" y="8" class="st1" width="612" height="1200"/>
	<rect x="8.2" y="8" class="st1" width="600" height="1200"/>
	<rect x="8.2" y="8" class="st2" width="600" height="1200"/>
	<rect x="8.2" y="8" class="st1" width="612" height="1200"/>
	<rect x="8.2" y="8" class="st1" width="600" height="1200"/>
	<rect x="8.2" y="8" class="st2" width="600" height="1200"/>
	<rect x="8.2" y="8" class="st1" width="612" height="1200"/>
	<rect x="8.2" y="8" class="st1" width="600" height="1200"/>
	<rect x="8.2" y="8" class="st2" width="600" height="1200"/>
	<rect x="8.2" y="8" class="st1" width="612" height="1200"/>
	<rect x="8.2" y="8" class="st1" width="600" height="1200"/>
	<rect x="8.2" y="8" class="st2" width="600" height="1200"/>
	<rect x="8.2" y="8" class="st1" width="612" height="1200"/>
	<rect x="8.2" y="8" class="st1" width="600" height="1200"/>
	<rect x="8.2" y="8" class="st2" width="600" height="1200"/>
	<rect x="8.2" y="8" class="st1" width="612" height="1200"/>
	<rect x="8.2" y="8" class="st1" width="600" height="1200"/>
	<rect x="8.2" y="8" class="st2" width="600" height="1200"/>
	<rect x="8.2" y="8" class="st1" width="612" height="1200"/>
	<rect x="8.2" y="8" class="st1" width="600" height="1200"/>
	<rect x="8.2" y="8" class="st2" width="600" height="1200"/>
	<rect x="8.2" y="8" class="st1" width="612" height="1200"/>
	<rect x="8.2" y="8" class="st1" width="600" height="1200"/>
	<rect x="8.2" y="8" class="st2" width="600" height="1200"/>
	<rect x="8.2" y="8" class="st1" width="612" height="1200"/>
	<rect x="8.2" y="8" class="st1" width="600" height="1200"/>
	<rect x="8.2" y="8" class="st2" width="600" height="1200"/>
	<rect x="8.2" y="8" class="st1" width="612" height="1200"/>
	<rect y="0" class="st3" width="24" height="24"/>
	<rect y="24" class="st4" width="24" height="24"/>
	<rect y="48" class="st3" width="24" height="24"/>
	<rect y="72" class="st4" width="24" height="24"/>
	<rect y="96" class="st3" width="24" height="24"/>
	<rect y="120" class="st4" width="24" height="24"/>
	<rect y="144" class="st3" width="24" height="24"/>
	<rect y="168" class="st4" width="24" height="24"/>
	<rect y="192" class="st3" width="24" height="24"/>
	<rect y="216" class="st4" width="24" height="24"/>
	<rect y="240" class="st3" width="24" height="24"/>
	<rect y="264" class="st4" width="24" height="24"/>
	<rect y="288" class="st3" width="24" height="24"/>
	<rect y="312" class="st4" width="24" height="24"/>
	<rect y="336" class="st3" width="24" height="24"/>
	<rect y="360" class="st4" width="24" height="24"/>
	<rect y="384" class="st3" width="24" height="24"/>
	<rect y="408" class="st4" width="24" height="24"/>
	<rect y="432" class="st3" width="24" height="24"/>
	<rect y="456" class="st4" width="24" height="24"/>
	<rect y="480" class="st3" width="24" height="24"/>
	<rect y="504" class="st4" width="24" height="24"/>
	<rect y="528" class="st3" width="24" height="24"/>
	<rect y="552" class="st4" width="24" height="24"/>
	<rect x="24" y="0" class="st4" width="24" height="24"/>
	<rect x="24" y="24" class="st3" width="24" height="24"/>
	<rect x="24" y="48" class="st4" width="24" height="24"/>
	<rect x="24" y="72" class="st3" width="24" height="24"/>
	<rect x="24" y="96" class="st4" width="24" height="24"/>
	<rect x="24" y="120" class="st3" width="24" height="24"/>
	<rect x="24" y="144" class="st4" width="24" height="24"/>
	<rect x="24" y="168" class="st3" width="24" height="24"/>
	<rect x="24" y="192" class="st4" width="24" height="24"/>
	<rect x="24" y="216" class="st3" width="24" height="24"/>
	<rect x="24" y="240" class="st4" width="24" height="24"/>
	<rect x="24" y="264" class="st3" width="24" height="24"/>
	<rect x="24" y="288" class="st4" width="24" height="24"/>
	<rect x="24" y="312" class="st3" width="24" height="24"/>
	<rect x="24" y="336" class="st4" width="24" height="24"/>
	<rect x="24" y="360" class="st3" width="24" height="24"/>
	<rect x="24" y="384" class="st4" width="24" height="24"/>
	<rect x="24" y="408" class="st3" width="24" height="24"/>
	<rect x="24" y="432" class="st4" width="24" height="24"/>
	<rect x="24" y="456" class="st3" width="24" height="24"/>
	<rect x="24" y="480" class="st4" width="24" height="24"/>
	<rect x="24" y="504" class="st3" width="24" height="24"/>
	<rect x="24" y="528" class="st4" width="24" height="24"/>
	<rect x="48" y="0" class="st3" width="24" height="24"/>
	<rect x="48" y="24" class="st4" width="24" height="24"/>
	<rect x="48" y="48" class="st3" width="24" height="24"/>
	<rect x="48" y="72" class="st4" width="24" height="24"/>
	<rect x="48" y="96" class="st3" width="24" height="24"/>
	<rect x="48" y="120" class="st4" width="24" height="24"/>
	<rect x="48" y="144" class="st3" width="24" height="24"/>
	<rect x="48" y="168" class="st4" width="24" height="24"/>
	<rect x="48" y="192" class="st3" width="24" height="24"/>
	<rect x="48" y="216" class="st4" width="24" height="24"/>
	<rect x="48" y="240" class="st3" width="24" height="24"/>
	<rect x="48" y="264" class="st4" width="24" height="24"/>
	<rect x="48" y="288" class="st3" width="24" height="24"/>
	<rect x="48" y="312" class="st4" width="24" height="24"/>
	<rect x="48" y="336" class="st3" width="24" height="24"/>
	<rect x="48" y="360" class="st4" width="24" height="24"/>
	<rect x="48" y="384" class="st3" width="24" height="24"/>
	<rect x="48" y="408" class="st4" width="24" height="24"/>
	<rect x="48" y="432" class="st3" width="24" height="24"/>
	<rect x="48" y="456" class="st4" width="24" height="24"/>
	<rect x="48" y="480" class="st3" width="24" height="24"/>
	<rect x="48" y="504" class="st4" width="24" height="24"/>
	<rect x="48" y="528" class="st3" width="24" height="24"/>
	<rect x="48" y="552" class="st4" width="24" height="24"/>
	<rect x="72" y="0" class="st4" width="24" height="24"/>
	<rect x="72" y="24" class="st3" width="24" height="24"/>
	<rect x="72" y="48" class="st4" width="24" height="24"/>
	<rect x="72" y="72" class="st3" width="24" height="24"/>
	<rect x="72" y="96" class="st4" width="24" height="24"/>
	<rect x="72" y="120" class="st3" width="24" height="24"/>
	<rect x="72" y="144" class="st4" width="24" height="24"/>
	<rect x="72" y="168" class="st3" width="24" height="24"/>
	<rect x="72" y="192" class="st4" width="24" height="24"/>
	<rect x="72" y="216" class="st3" width="24" height="24"/>
	<rect x="72" y="240" class="st4" width="24" height="24"/>
	<rect x="72" y="264" class="st3" width="24" height="24"/>
	<rect x="72" y="288" class="st4" width="24" height="24"/>
	<rect x="72" y="312" class="st3" width="24" height="24"/>
	<rect x="72" y="336" class="st4" width="24" height="24"/>
	<rect x="72" y="360" class="st3" width="24" height="24"/>
	<rect x="72" y="384" class="st4" width="24" height="24"/>
	<rect x="72" y="408" class="st3" width="24" height="24"/>
	<rect x="72" y="432" class="st4" width="24" height="24"/>
	<rect x="72" y="456" class="st3" width="24" height="24"/>
	<rect x="72" y="480" class="st4" width="24" height="24"/>
	<rect x="0" y="575.9" class="st5" width="24" height="24"/>
	<rect x="24" y="575.9" class="st5" width="24" height="24"/>
	<rect x="48" y="575.9" class="st5" width="24" height="24"/>
	<rect x="72" y="575.9" class="st5" width="24" height="24"/>
</g>
<g id="Layer_1">
	<polygon class="st6" points="9,562 12,565.9 15,562 	"/>
	<polygon class="st7" points="9,538 12,541.9 15,538 	"/>
	<polygon class="st8" points="9,514 12,517.9 15,514 	"/>
	<polygon class="st9" points="18.1,462.6 17.4,461.9 12,467.3 6.4,461.7 5.7,462.4 11.3,468 5.7,473.6 6.4,474.3 12,468.7 
		17.4,474.1 18.1,473.4 12.7,468 	"/>
	<path class="st7" d="M15.7,449.5c0,0.1,0,0.2-0.1,0.3c-0.2,0.2-0.5,0.3-0.7,0.1l-6.6-5.4c-0.1-0.1-0.2-0.2-0.2-0.4
		c0-0.1,0.1-0.3,0.2-0.4l6.6-5.6c0.2-0.2,0.5-0.2,0.7,0.1c0.2,0.2,0.2,0.5-0.1,0.7l-6.2,5.2l6.2,5C15.6,449.2,15.7,449.3,15.7,449.5
		"/>
	<polygon class="st10" points="16.2,420 15.5,419.3 12,422.8 8.5,419.3 7.8,420 12,424.2 	"/>
	<polygon class="st10" points="7.8,396 8.5,396.7 12,393.2 15.5,396.7 16.2,396 12,391.8 	"/>
	<g>
		<path class="st11" d="M36,381c-5,0-9-4-9-9s4-9,9-9s9,4,9,9S41,381,36,381z M36,365c-3.9,0-7,3.1-7,7s3.1,7,7,7s7-3.1,7-7
			S39.9,365,36,365z"/>
	</g>
	<path class="st12" d="M36,376c2.2,0,4-1.8,4-4c0-2.2-1.8-4-4-4c-2.2,0-4,1.8-4,4C32,374.2,33.8,376,36,376L36,376z M36,376"/>
	<g>
		<path class="st13" d="M12,381c-5,0-9-4-9-9s4-9,9-9s9,4,9,9S17,381,12,381z M12,365c-3.9,0-7,3.1-7,7s3.1,7,7,7s7-3.1,7-7
			S15.9,365,12,365z"/>
	</g>
	<g>
		<path class="st13" d="M42,357H30c-1.7,0-3-1.3-3-3v-12c0-1.7,1.3-3,3-3h12c1.7,0,3,1.3,3,3v12C45,355.7,43.7,357,42,357z M30,341
			c-0.5,0-1,0.4-1,1v12c0,0.5,0.4,1,1,1h12c0.5,0,1-0.4,1-1v-12c0-0.5-0.4-1-1-1H30z"/>
	</g>
	<path class="st12" d="M31,346.9l3,2.9l7-6.8l1,1.1l-7.8,7.9l-4.2-4.1L31,346.9L31,346.9z M31,346.9"/>
	<g>
		<path class="st13" d="M18,357H6c-1.7,0-3-1.3-3-3v-12c0-1.7,1.3-3,3-3h12c1.7,0,3,1.3,3,3v12C21,355.7,19.7,357,18,357z M6,341
			c-0.5,0-1,0.4-1,1v12c0,0.5,0.4,1,1,1h12c0.5,0,1-0.4,1-1v-12c0-0.5-0.4-1-1-1H6z"/>
	</g>
	<path class="st6" d="M20,324.7v-1.8c0-0.1-0.1-0.2-0.2-0.3c-0.1-0.1-0.2-0.2-0.3-0.2l-2.4-0.4c-0.1,0-0.2-0.1-0.2-0.2
		c0-0.1,0-0.2,0-0.3l1.4-2c0.1-0.1,0.1-0.2,0.1-0.3c0-0.1-0.1-0.2-0.1-0.3l-1.3-1.3c-0.1-0.1-0.2-0.1-0.3-0.2c-0.1,0-0.2,0-0.3,0.1
		l-2,1.3c-0.1,0.1-0.2,0.1-0.3,0c-0.1,0-0.1-0.1-0.2-0.2l-0.4-2.3c0-0.1-0.1-0.2-0.2-0.3c-0.1-0.1-0.2-0.1-0.3-0.1H11
		c-0.1,0-0.2,0-0.3,0.1c-0.1,0.1-0.2,0.2-0.2,0.3l-0.4,2.3c0,0.1-0.1,0.2-0.2,0.2c-0.1,0-0.2,0-0.3,0l-2-1.3
		c-0.1-0.1-0.2-0.1-0.3-0.1c-0.1,0-0.2,0.1-0.3,0.1L5.7,319c-0.1,0.1-0.1,0.2-0.1,0.3c0,0.1,0,0.2,0.1,0.3l1.4,2
		c0.1,0.1,0.1,0.2,0,0.3c0,0.1-0.1,0.1-0.2,0.2l-2.4,0.4c-0.1,0-0.2,0.1-0.3,0.2C4,322.7,4,322.8,4,322.9v1.8c0,0.1,0,0.2,0.1,0.3
		c0.1,0.1,0.2,0.2,0.3,0.2l2.4,0.4c0.1,0,0.2,0.1,0.2,0.1c0,0.1,0,0.2,0,0.3l-1.4,2c-0.1,0.1-0.1,0.2-0.1,0.3c0,0.1,0.1,0.2,0.1,0.3
		l1.3,1.3c0.1,0.1,0.2,0.1,0.3,0.1c0.1,0,0.2,0,0.3-0.1l2-1.3c0.1-0.1,0.2-0.1,0.3-0.1c0.1,0,0.1,0.1,0.2,0.2l0.4,2.3
		c0,0.1,0.1,0.2,0.2,0.3c0.1,0.1,0.2,0.1,0.3,0.1h1.8c0.1,0,0.2,0,0.3-0.1c0.1-0.1,0.2-0.2,0.2-0.3l0.4-2.3c0-0.1,0.1-0.2,0.2-0.2
		c0.1,0,0.2,0,0.3,0l2,1.3c0.1,0.1,0.2,0.1,0.3,0.1c0.1,0,0.2-0.1,0.3-0.1l1.3-1.3c0.1-0.1,0.1-0.2,0.2-0.3c0-0.1,0-0.2-0.1-0.3
		l-1.4-2c-0.1-0.1-0.1-0.2,0-0.3c0-0.1,0.1-0.1,0.2-0.1l2.4-0.4c0.1,0,0.2-0.1,0.3-0.2C19.9,324.9,20,324.8,20,324.7L20,324.7
		L20,324.7z M15,323.8c0,0.5-0.1,1-0.4,1.4c-0.3,0.4-0.6,0.8-1.1,1.1c-0.5,0.3-1,0.4-1.5,0.4c-0.5,0-1-0.1-1.5-0.4
		c-0.5-0.3-0.8-0.6-1.1-1.1c-0.3-0.4-0.4-0.9-0.4-1.4s0.1-1,0.4-1.4c0.3-0.4,0.6-0.8,1.1-1.1c0.5-0.3,1-0.4,1.5-0.4
		c0.5,0,1,0.1,1.5,0.4c0.5,0.3,0.8,0.6,1.1,1.1C14.9,322.8,15,323.3,15,323.8L15,323.8L15,323.8z"/>
	<path class="st6" d="M8,293.1c1.2-0.7,2.6-1.1,4-1.1c1.4,0,2.8,0.4,4,1.1c1.2,0.7,2.2,1.7,2.9,2.9c0.7,1.2,1.1,2.6,1.1,4
		s-0.4,2.8-1.1,4c-0.7,1.2-1.7,2.2-2.9,2.9c-1.2,0.7-2.6,1.1-4,1.1c-1.4,0-2.8-0.4-4-1.1c-1.2-0.7-2.2-1.7-2.9-2.9
		c-0.7-1.2-1.1-2.6-1.1-4s0.4-2.8,1.1-4C5.8,294.8,6.8,293.8,8,293.1C8,293.1,6.8,293.8,8,293.1L8,293.1L8,293.1L8,293.1z
		 M11.3,299.7l-1.4-1.4l-2.3,2.3l3.7,3.7l5.5-5.5l-2.3-2.3L11.3,299.7L11.3,299.7L11.3,299.7z"/>
	<path class="st11" d="M15.5,277.1c0.6-0.9,1-2,1-3.1c0-3-2.5-5.5-5.5-5.5S5.5,271,5.5,274s2.5,5.5,5.5,5.5c1.1,0,2.2-0.3,3.1-1
		l4.6,4.6l1.4-1.4L15.5,277.1z M14.5,276.8l-0.3,0.4l-0.4,0.3c-0.8,0.7-1.8,1-2.8,1c-2.5,0-4.5-2-4.5-4.5s2-4.5,4.5-4.5
		s4.5,2,4.5,4.5C15.5,275,15.1,276,14.5,276.8z"/>
	<path class="st8" d="M11.1,250h2l-3-4L7,250h2.1l0,3h2L11.1,250L11.1,250L11.1,250z M15,251h-2v3h-2.1l3,4l3.1-4h-2V251L15,251
		L15,251z M18,244H6c-1.1,0-2,0.9-2,2v12c0,1.1,0.9,2,2,2h12c1.1,0,2-0.9,2-2v-12C20,244.9,19.1,244,18,244L18,244L18,244z M19,258
		c0,0.6-0.4,1-1,1H6c-0.6,0-1-0.4-1-1v-12c0-0.6,0.4-1,1-1h12c0.6,0,1,0.4,1,1V258L19,258L19,258z"/>
	<path class="st8" d="M18.5,225c-0.3,0-0.5,0.5-0.5,1v8c0,0.6-0.5,1-1,1H6c-0.5,0-1-0.4-1-1v-11c0-0.5,0.5-1,1-1h7
		c0.6,0,1-0.2,1-0.5c0-0.3-0.5-0.5-1-0.5H5c-0.6,0-1,0.5-1,1v13c0,0.6,0.5,1,1,1h13c0.5,0,1-0.4,1-1v-9C19,225.5,18.8,225,18.5,225
		L18.5,225L18.5,225z M18,224l-2-2l-7,7l2,2L18,224L18,224L18,224z M7,233l3-1l-2-2L7,233L7,233L7,233z M18,220l-1,1l2,2l1-1L18,220
		L18,220L18,220z"/>
	<path class="st8" d="M20,200h-8l-2-2H6v2H4v11h14v-2h2V200L20,200L20,200z M17,210H5v-9h2.6l2,2H17V210L17,210L17,210z M19,208h-1
		v-6h-8l-2-2H7v-1h2.6l2,2H19V208L19,208L19,208z"/>
	<path class="st8" d="M18.8,175H12l-2-2H5.2c-0.7,0-1.3,0.6-1.3,1.2v10.5c0,0.7,0.6,1.2,1.3,1.2H10v-1H5.2c-0.1,0-0.2-0.1-0.2-0.2
		v-10.5c0-0.1,0.1-0.2,0.2-0.2h4.3l2,2h7.2c0.1,0,0.2,0.1,0.2,0.2v2.8h1v-2.8C20,175.6,19.4,175,18.8,175L18.8,175z M15.5,179
		c-2.5,0-4.5,2-4.5,4.5c0,2.5,2,4.5,4.5,4.5c2.5,0,4.5-2,4.5-4.5C20,181,18,179,15.5,179L15.5,179z M18,184h-2v2h-1v-2h-2v-1h2v-2h1
		v2h2V184L18,184L18,184z"/>
	<path class="st8" d="M9,128h1v10H9V128L9,128z"/>
	<path class="st8" d="M11,128h1v10h-1V128L11,128z"/>
	<path class="st8" d="M13,128h1v10h-1V128L13,128z"/>
	<path class="st8" d="M15,128h1v10h-1V128L15,128z"/>
	<path class="st8" d="M19,126h-3v-1c0-0.6-0.4-1-1-1h-5c-0.6,0-1,0.4-1,1v1H6c-0.6,0-1,0.4-1,1s0.4,0,1,0h1v12c0,0.6,0.4,1,1,1h9
		c0.6,0,1-0.4,1-1v-12h1c0.6,0,1,0.6,1,0S19.6,126,19,126L19,126L19,126z M10,125h5v1h-5V125L10,125z M8,127h9v12H8V127L8,127z"/>
	<path class="st14" d="M18,101H7c-0.6,0-1,0.6-1,1.1v1.7v3.2v7.9c0,0.5,0.4,1.1,1,1.1h11c0.6,0,1-0.6,1-1.1V107v-3.2v-1.7
		C19,101.6,18.6,101,18,101z M7.2,102h10.7c0,0,0.1,0.1,0.1,0.3v0.7h-1h-3.2h-0.4l0,0.4c0,0,0,0,0,0.1c0,0.1-0.1,0.2-0.1,0.3
		c-0.2,0.2-0.4,0.4-0.8,0.4s-0.7-0.1-0.8-0.4c-0.1-0.1-0.1-0.2-0.1-0.3c0-0.1,0-0.1,0-0.1l0-0.4h-0.4H8H7v-0.7
		C7,102.1,7.1,102,7.2,102z M17.8,115H7.2c0,0-0.1-0.1-0.1-0.3V107h0v-2.6c0,0,0.1,0,0.1,0h1h2.6c0,0.1,0.1,0.2,0.2,0.4
		c0.3,0.4,0.8,0.7,1.5,0.7c0.7,0,1.2-0.3,1.5-0.7c0.1-0.1,0.1-0.2,0.2-0.4h2.8h1c0.1,0,0.1,0,0.1,0v10.4C18,114.9,17.9,115,17.8,115
		z"/>
	<path class="st8" d="M8,83h6v-1H8V83L8,83z M8,85h6v-1H8V85L8,85z M8,87h3v-1H8V87L8,87z M8,89h3v-1H8V89L8,89z M17.4,76H8.6
		C7.7,76,7,76.7,7,77.6V78H6.6C5.7,78,5,78.7,5,79.6v10.9C5,91.3,5.7,92,6.6,92h8.9c0.9,0,1.6-0.7,1.6-1.6V90h0.4
		c0.9,0,1.6-0.7,1.6-1.6V77.6C19,76.7,18.3,76,17.4,76L17.4,76L17.4,76z M16,90.6c0,0.2-0.2,0.4-0.4,0.4H6.4C6.2,91,6,90.8,6,90.6
		V79.4C6,79.2,6.2,79,6.4,79h9.1c0.2,0,0.4,0.2,0.4,0.4V90.6L16,90.6L16,90.6z M18,88.6c0,0.2-0.2,0.4-0.4,0.4H17v-9.4
		c0-0.9-0.7-1.6-1.6-1.6H8v-0.6C8,77.2,8.2,77,8.4,77h9.1c0.2,0,0.4,0.2,0.4,0.4V88.6L18,88.6L18,88.6z"/>
	<path class="st8" d="M19.7,60.3c-1.8-1.8-4.6-1.8-6.4,0c-1.8,1.8-1.8,4.6,0,6.4c1.8,1.8,4.6,1.8,6.4,0S21.4,62.1,19.7,60.3
		L19.7,60.3L19.7,60.3z M16,64l-2-2l0.8-0.8l1.9,1.8H19l0,1H16L16,64z M8,56h6v1H8V56L8,56z M8,58h6v1H8V58L8,58z M8,60h3v1H8V60
		L8,60z M8,62h3v1H8V62L8,62z M11.6,66H6.4C6.2,66,6,65.8,6,65.6V53.4C6,53.2,6.2,53,6.4,53h9.1c0.2,0,0.4,0.2,0.4,0.4V58
		c0.2,0,0.3,0,0.5,0c0.2,0,0.3,0,0.5,0v-4.5c0-0.9-0.7-1.6-1.6-1.6H6.6C5.7,52,5,52.7,5,53.6v11.9C5,66.3,5.7,67,6.6,67h5.7
		C12,66.7,11.8,66.4,11.6,66L11.6,66z"/>
	<path class="st8" d="M8,33h6v-1H8V33L8,33z M8,35h6v-1H8V35L8,35z M8,37h3v-1H8V37L8,37z M8,39h3v-1H8V39L8,39z M17,36l-4,4h2v4h4
		v-4h2L17,36L17,36L17,36z M6,41.6V29.4C6,29.2,6.2,29,6.4,29h9.1c0.2,0,0.4,0.2,0.4,0.4V35h1v-5.4c0-0.9-0.7-1.6-1.6-1.6H6.6
		C5.7,28,5,28.7,5,29.6v11.9C5,42.3,5.7,43,6.6,43H14v-1H6.4C6.2,42,6,41.8,6,41.6L6,41.6L6,41.6z"/>
	<path class="st8" d="M8,9h6V8H8V9L8,9z M8,11h6v-1H8V11L8,11z M8,13h3v-1H8V13L8,13z M8,15h3v-1H8V15L8,15z M15.4,4H6.6
		C5.7,4,5,4.7,5,5.6v11.9C5,18.3,5.7,19,6.6,19h5.7c-0.3-0.3-0.5-0.6-0.7-1H6.4C6.2,18,6,17.8,6,17.6V5.4C6,5.2,6.2,5,6.4,5h9.1
		C15.8,5,16,5.2,16,5.4V10c0.2,0,0.3,0,0.5,0c0.2,0,0.3,0,0.5,0V5.6C17,4.7,16.3,4,15.4,4L15.4,4z M16.5,11C14,11,12,13,12,15.5
		c0,2.5,2,4.5,4.5,4.5c2.5,0,4.5-2,4.5-4.5C21,13,19,11,16.5,11L16.5,11z M19,16h-2v2h-1v-2h-2v-1h2v-2h1v2h2V16L19,16L19,16z"/>
	<g>
		<g>
			<path class="st14" d="M12,160.5c-0.1,0-0.2,0-0.2-0.1l-8-4c-0.2-0.1-0.3-0.3-0.3-0.5s0.2-0.4,0.3-0.4l3.1-1
				c0.3-0.1,0.5,0.1,0.6,0.3c0.1,0.3-0.1,0.5-0.3,0.6l-1.9,0.6l6.7,3.3l6.8-3.4l-1.7-0.7c-0.3-0.1-0.4-0.4-0.3-0.6s0.4-0.4,0.6-0.3
				l2.8,1.1c0.2,0.1,0.3,0.2,0.3,0.4c0,0.2-0.1,0.4-0.3,0.5l-8,4C12.2,160.5,12.1,160.5,12,160.5z"/>
		</g>
		<g>
			<path class="st14" d="M12,164.5c-0.1,0-0.2,0-0.2-0.1l-8-4c-0.2-0.1-0.3-0.3-0.3-0.5s0.2-0.4,0.3-0.4l3.1-1
				c0.3-0.1,0.5,0.1,0.6,0.3c0.1,0.3-0.1,0.5-0.3,0.6l-1.9,0.6l6.7,3.3l6.8-3.4l-1.7-0.7c-0.3-0.1-0.4-0.4-0.3-0.6
				c0.1-0.3,0.4-0.4,0.6-0.3l2.8,1.1c0.2,0.1,0.3,0.2,0.3,0.4c0,0.2-0.1,0.4-0.3,0.5l-8,4C12.2,164.5,12.1,164.5,12,164.5z"/>
		</g>
		<g>
			<path class="st14" d="M12,156.5c-0.1,0-0.2,0-0.2-0.1l-8-4c-0.2-0.1-0.3-0.3-0.3-0.4s0.1-0.4,0.3-0.4l8-4c0.1-0.1,0.3-0.1,0.4,0
				l8,4c0.2,0.1,0.3,0.3,0.3,0.4s-0.1,0.4-0.3,0.4l-8,4C12.2,156.5,12.1,156.5,12,156.5z M5.1,152l6.9,3.4l6.9-3.4l-6.9-3.4L5.1,152
				z"/>
		</g>
	</g>
	<polygon class="st9" points="16.8,488.6 15.4,487.2 12,490.6 8.4,487.1 7,488.5 10.5,492 7,495.5 8.4,496.9 12,493.4 15.4,496.8 
		16.8,495.4 13.4,492 	"/>
	<g>
		<polyline class="st15" points="18,591.6 12,585.6 6,591.6 		"/>
		<polygon class="st16" points="7.4,591.6 12,587 16.6,591.6 18,591.6 18.7,590.9 12,584.2 5.3,590.9 6,591.6 		"/>
	</g>
	<g>
		<polyline class="st15" points="42,584.2 36,590.2 30,584.2 		"/>
		<polygon class="st16" points="31.4,584.2 36,588.8 40.6,584.2 42,584.2 42.7,584.9 36,591.6 29.3,584.9 30,584.2 		"/>
	</g>
	<g>
		<polyline class="st15" points="56.3,593.9 62.3,587.9 56.3,581.9 		"/>
		<polygon class="st16" points="56.3,583.3 60.9,587.9 56.3,592.5 56.3,593.9 57,594.6 63.7,587.9 57,581.2 56.3,581.9 		"/>
	</g>
	<g>
		<g>
			<polyline class="st15" points="87.7,581.9 81.7,587.9 87.7,593.9 			"/>
			<g>
				<polygon class="st17" points="6,591.6 18,591.6 12,585.6 				"/>
				<polygon class="st17" points="36,590.2 42,584.2 30,584.2 				"/>
				<polygon class="st17" points="56.3,593.9 62.3,587.9 56.3,581.9 				"/>
				<polygon class="st17" points="81.7,587.9 87.7,593.9 87.7,581.9 				"/>
			</g>
		</g>
		<polygon class="st16" points="87.7,592.5 83.1,587.9 87.7,583.3 87.7,581.9 87,581.2 80.3,587.9 87,594.6 87.7,593.9 		"/>
	</g>
	<polygon class="st14" points="13,111 13,108 12,108 12,111 11,111 12,113 13,113 14,111 	"/>
</g>
</svg>
